<svg width="148" height="38" viewBox="0 0 148 38" fill="none" xmlns="http://www.w3.org/2000/svg">
<rect width="148" height="38" rx="8" fill="url(#paint0_linear_1003_3)"/>
<rect x="0.5" y="0.5" width="147" height="37" rx="7.5" stroke="black" stroke-opacity="0.23"/>
<path d="M27.3609 24.128C26.1876 24.128 25.2063 23.8827 24.4169 23.392C23.6383 22.9013 23.0516 22.224 22.6569 21.36C22.2623 20.4853 22.0649 19.488 22.0649 18.368C22.0649 17.5253 22.1716 16.752 22.3849 16.048C22.6089 15.3333 22.9396 14.7147 23.3769 14.192C23.8143 13.6693 24.3583 13.2693 25.0089 12.992C25.6703 12.704 26.4329 12.56 27.2969 12.56C28.1396 12.56 28.8809 12.6933 29.5209 12.96C30.1609 13.216 30.6889 13.5893 31.1049 14.08C31.5316 14.5707 31.8196 15.1627 31.9689 15.856H30.1769C30.0809 15.4827 29.8996 15.168 29.6329 14.912C29.3769 14.656 29.0516 14.4587 28.6569 14.32C28.2729 14.1813 27.8356 14.112 27.3449 14.112C26.7049 14.112 26.1609 14.224 25.7129 14.448C25.2649 14.672 24.8969 14.9813 24.6089 15.376C24.3316 15.76 24.1289 16.208 24.0009 16.72C23.8729 17.232 23.8089 17.776 23.8089 18.352C23.8089 19.12 23.9316 19.824 24.1769 20.464C24.4223 21.104 24.8063 21.616 25.3289 22C25.8516 22.384 26.5343 22.576 27.3769 22.576C28.0276 22.576 28.5876 22.464 29.0569 22.24C29.5263 22.0053 29.8943 21.6747 30.1609 21.248C30.4276 20.8107 30.5663 20.2827 30.5769 19.664H27.0729V18.176H32.2409V19.008C32.2409 20.0427 32.0489 20.944 31.6649 21.712C31.2809 22.48 30.7263 23.0773 30.0009 23.504C29.2756 23.92 28.3956 24.128 27.3609 24.128ZM37.1791 24.096C36.2937 24.096 35.5524 23.9147 34.9551 23.552C34.3577 23.1893 33.9044 22.688 33.5951 22.048C33.2964 21.3973 33.1471 20.6507 33.1471 19.808C33.1471 18.9547 33.3017 18.2027 33.6111 17.552C33.9311 16.9013 34.3897 16.3893 34.9871 16.016C35.5951 15.6427 36.3257 15.456 37.1791 15.456C37.8297 15.456 38.3951 15.5787 38.8751 15.824C39.3551 16.0587 39.7497 16.3787 40.0591 16.784C40.3791 17.1893 40.6137 17.6427 40.7631 18.144C40.9124 18.6347 40.9764 19.1467 40.9551 19.68C40.9551 19.7973 40.9497 19.9093 40.9391 20.016C40.9284 20.1227 40.9177 20.2347 40.9071 20.352H34.8111C34.8431 20.7787 34.9497 21.168 35.1311 21.52C35.3231 21.872 35.5897 22.1547 35.9311 22.368C36.2724 22.5707 36.6937 22.672 37.1951 22.672C37.4724 22.672 37.7391 22.64 37.9951 22.576C38.2617 22.5013 38.4964 22.3893 38.6991 22.24C38.9124 22.08 39.0617 21.8773 39.1471 21.632H40.8111C40.6724 22.1973 40.4217 22.6667 40.0591 23.04C39.7071 23.4027 39.2751 23.6693 38.7631 23.84C38.2617 24.0107 37.7337 24.096 37.1791 24.096ZM34.8431 19.04H39.3231C39.3124 18.624 39.2164 18.256 39.0351 17.936C38.8537 17.6053 38.6031 17.3493 38.2831 17.168C37.9631 16.976 37.5791 16.88 37.1311 16.88C36.6404 16.88 36.2297 16.9813 35.8991 17.184C35.5791 17.3867 35.3284 17.6533 35.1471 17.984C34.9764 18.304 34.8751 18.656 34.8431 19.04ZM45.4386 24.096C44.5319 24.096 43.8812 23.8507 43.4866 23.36C43.1026 22.8587 42.9106 22.16 42.9106 21.264V17.04H41.5666V15.568H42.9106V13.12H44.5586V15.568H47.1346V17.04H44.5586V20.992C44.5586 21.2907 44.5852 21.5627 44.6386 21.808C44.7026 22.0533 44.8199 22.2453 44.9906 22.384C45.1612 22.5227 45.4066 22.5973 45.7266 22.608C45.9719 22.608 46.1852 22.5653 46.3666 22.48C46.5586 22.3947 46.7132 22.2987 46.8306 22.192L47.4706 23.424C47.2679 23.584 47.0546 23.7173 46.8306 23.824C46.6172 23.92 46.3932 23.9893 46.1586 24.032C45.9239 24.0747 45.6839 24.096 45.4386 24.096ZM56.5536 24.128C55.8176 24.128 55.1242 24.0213 54.4736 23.808C53.8229 23.5947 53.2736 23.248 52.8256 22.768C52.3776 22.288 52.0789 21.6533 51.9296 20.864H53.6736C53.8122 21.312 54.0362 21.664 54.3456 21.92C54.6549 22.1653 55.0122 22.336 55.4176 22.432C55.8336 22.528 56.2496 22.576 56.6656 22.576C57.0602 22.576 57.4282 22.5227 57.7696 22.416C58.1216 22.3093 58.4096 22.1333 58.6336 21.888C58.8576 21.6427 58.9696 21.3227 58.9696 20.928C58.9696 20.6293 58.9109 20.384 58.7936 20.192C58.6762 20 58.5109 19.8453 58.2976 19.728C58.0949 19.6 57.8496 19.4987 57.5616 19.424C57.2309 19.3173 56.8736 19.2267 56.4896 19.152C56.1162 19.0773 55.7429 18.992 55.3696 18.896C55.0069 18.8 54.6656 18.6773 54.3456 18.528C54.0789 18.4213 53.8176 18.2933 53.5616 18.144C53.3162 17.984 53.1029 17.7973 52.9216 17.584C52.7402 17.36 52.5909 17.0987 52.4736 16.8C52.3669 16.5013 52.3136 16.16 52.3136 15.776C52.3136 15.264 52.3936 14.8267 52.5536 14.464C52.7242 14.1013 52.9429 13.7973 53.2096 13.552C53.4869 13.3067 53.8016 13.1147 54.1536 12.976C54.5162 12.8267 54.8949 12.72 55.2896 12.656C55.6842 12.592 56.0682 12.56 56.4416 12.56C57.1242 12.56 57.7536 12.6667 58.3296 12.88C58.9056 13.0933 59.3802 13.4347 59.7536 13.904C60.1376 14.3627 60.3456 14.9707 60.3776 15.728H58.7296C58.6869 15.3227 58.5482 15.0027 58.3136 14.768C58.0896 14.5227 57.8069 14.352 57.4656 14.256C57.1242 14.1493 56.7616 14.096 56.3776 14.096C56.1002 14.096 55.8229 14.1227 55.5456 14.176C55.2682 14.2187 55.0122 14.304 54.7776 14.432C54.5536 14.5493 54.3722 14.7093 54.2336 14.912C54.1056 15.1147 54.0416 15.3653 54.0416 15.664C54.0416 15.92 54.0949 16.1493 54.2016 16.352C54.3082 16.544 54.4576 16.7093 54.6496 16.848C54.8522 16.976 55.0762 17.088 55.3216 17.184C55.7696 17.3547 56.2602 17.488 56.7936 17.584C57.3269 17.6693 57.8282 17.792 58.2976 17.952C58.6389 18.0587 58.9589 18.192 59.2576 18.352C59.5562 18.5013 59.8122 18.688 60.0256 18.912C60.2389 19.1253 60.4042 19.3813 60.5216 19.68C60.6389 19.968 60.6976 20.304 60.6976 20.688C60.6976 21.3173 60.5856 21.856 60.3616 22.304C60.1376 22.7413 59.8336 23.0933 59.4496 23.36C59.0656 23.6267 58.6229 23.824 58.1216 23.952C57.6202 24.0693 57.0976 24.128 56.5536 24.128ZM65.3579 24.096C64.4513 24.096 63.8006 23.8507 63.4059 23.36C63.0219 22.8587 62.8299 22.16 62.8299 21.264V17.04H61.4859V15.568H62.8299V13.12H64.4779V15.568H67.0539V17.04H64.4779V20.992C64.4779 21.2907 64.5046 21.5627 64.5579 21.808C64.6219 22.0533 64.7393 22.2453 64.9099 22.384C65.0806 22.5227 65.3259 22.5973 65.6459 22.608C65.8913 22.608 66.1046 22.5653 66.2859 22.48C66.4779 22.3947 66.6326 22.2987 66.7499 22.192L67.3899 23.424C67.1873 23.584 66.9739 23.7173 66.7499 23.824C66.5366 23.92 66.3126 23.9893 66.0779 24.032C65.8433 24.0747 65.6033 24.096 65.3579 24.096ZM70.7863 24.096C70.4023 24.096 70.029 24.048 69.6663 23.952C69.3143 23.8453 68.9996 23.6907 68.7223 23.488C68.445 23.2747 68.221 23.0133 68.0503 22.704C67.8903 22.384 67.8103 22.0107 67.8103 21.584C67.8103 21.072 67.9063 20.6507 68.0983 20.32C68.301 19.9787 68.5676 19.7173 68.8983 19.536C69.229 19.344 69.6076 19.2107 70.0343 19.136C70.4716 19.0507 70.925 19.008 71.3943 19.008H73.4583C73.4583 18.592 73.3943 18.2293 73.2663 17.92C73.1383 17.6 72.9356 17.3547 72.6583 17.184C72.3916 17.0027 72.0343 16.912 71.5863 16.912C71.3196 16.912 71.0636 16.944 70.8183 17.008C70.5836 17.0613 70.381 17.152 70.2103 17.28C70.0396 17.408 69.9223 17.5787 69.8583 17.792H68.1303C68.1943 17.3867 68.3383 17.04 68.5623 16.752C68.7863 16.4533 69.0636 16.208 69.3943 16.016C69.725 15.824 70.077 15.6853 70.4503 15.6C70.8343 15.504 71.2236 15.456 71.6183 15.456C72.8343 15.456 73.709 15.8133 74.2423 16.528C74.7863 17.232 75.0583 18.2027 75.0583 19.44V24H73.6343L73.5703 22.928C73.325 23.2587 73.0316 23.5093 72.6903 23.68C72.3596 23.8507 72.029 23.9627 71.6983 24.016C71.3676 24.0693 71.0636 24.096 70.7863 24.096ZM71.0423 22.704C71.5223 22.704 71.9436 22.624 72.3063 22.464C72.669 22.2933 72.9516 22.0533 73.1543 21.744C73.357 21.424 73.4583 21.0507 73.4583 20.624V20.272H71.9543C71.645 20.272 71.341 20.2827 71.0423 20.304C70.7543 20.3147 70.4876 20.3573 70.2423 20.432C70.0076 20.496 69.8156 20.608 69.6663 20.768C69.5276 20.928 69.4583 21.1573 69.4583 21.456C69.4583 21.744 69.533 21.9787 69.6823 22.16C69.8316 22.3413 70.029 22.48 70.2743 22.576C70.5196 22.6613 70.7756 22.704 71.0423 22.704ZM76.5558 24V15.568H78.1078L78.1878 16.784C78.4011 16.4533 78.6465 16.192 78.9238 16C79.2011 15.808 79.5051 15.6693 79.8358 15.584C80.1665 15.4987 80.5131 15.456 80.8758 15.456C80.9718 15.456 81.0625 15.456 81.1478 15.456C81.2331 15.456 81.3131 15.456 81.3878 15.456V17.04H80.8758C80.2678 17.04 79.7611 17.1627 79.3558 17.408C78.9611 17.6533 78.6678 17.9947 78.4758 18.432C78.2945 18.8693 78.2038 19.3707 78.2038 19.936V24H76.5558ZM85.4179 24.096C84.5113 24.096 83.8606 23.8507 83.4659 23.36C83.0819 22.8587 82.8899 22.16 82.8899 21.264V17.04H81.5459V15.568H82.8899V13.12H84.5379V15.568H87.1139V17.04H84.5379V20.992C84.5379 21.2907 84.5646 21.5627 84.6179 21.808C84.6819 22.0533 84.7993 22.2453 84.9699 22.384C85.1406 22.5227 85.3859 22.5973 85.7059 22.608C85.9513 22.608 86.1646 22.5653 86.3459 22.48C86.5379 22.3947 86.6926 22.2987 86.8099 22.192L87.4499 23.424C87.2473 23.584 87.0339 23.7173 86.8099 23.824C86.5966 23.92 86.3726 23.9893 86.1379 24.032C85.9033 24.0747 85.6633 24.096 85.4179 24.096ZM91.8703 24.096C90.985 24.096 90.2436 23.9147 89.6463 23.552C89.049 23.1893 88.5956 22.688 88.2863 22.048C87.9876 21.3973 87.8383 20.6507 87.8383 19.808C87.8383 18.9547 87.993 18.2027 88.3023 17.552C88.6223 16.9013 89.081 16.3893 89.6783 16.016C90.2863 15.6427 91.017 15.456 91.8703 15.456C92.521 15.456 93.0863 15.5787 93.5663 15.824C94.0463 16.0587 94.441 16.3787 94.7503 16.784C95.0703 17.1893 95.305 17.6427 95.4543 18.144C95.6036 18.6347 95.6676 19.1467 95.6463 19.68C95.6463 19.7973 95.641 19.9093 95.6303 20.016C95.6196 20.1227 95.609 20.2347 95.5983 20.352H89.5023C89.5343 20.7787 89.641 21.168 89.8223 21.52C90.0143 21.872 90.281 22.1547 90.6223 22.368C90.9636 22.5707 91.385 22.672 91.8863 22.672C92.1636 22.672 92.4303 22.64 92.6863 22.576C92.953 22.5013 93.1876 22.3893 93.3903 22.24C93.6036 22.08 93.753 21.8773 93.8383 21.632H95.5023C95.3636 22.1973 95.113 22.6667 94.7503 23.04C94.3983 23.4027 93.9663 23.6693 93.4543 23.84C92.953 24.0107 92.425 24.096 91.8703 24.096ZM89.5343 19.04H94.0143C94.0036 18.624 93.9076 18.256 93.7263 17.936C93.545 17.6053 93.2943 17.3493 92.9743 17.168C92.6543 16.976 92.2703 16.88 91.8223 16.88C91.3316 16.88 90.921 16.9813 90.5903 17.184C90.2703 17.3867 90.0196 17.6533 89.8383 17.984C89.6676 18.304 89.5663 18.656 89.5343 19.04ZM100.274 24.096C99.4311 24.096 98.7325 23.9093 98.1778 23.536C97.6338 23.152 97.2231 22.6347 96.9458 21.984C96.6791 21.3333 96.5458 20.6027 96.5458 19.792C96.5458 18.9707 96.6845 18.2347 96.9618 17.584C97.2391 16.9227 97.6605 16.4053 98.2258 16.032C98.7911 15.648 99.5058 15.456 100.37 15.456C100.69 15.456 101.01 15.4933 101.33 15.568C101.66 15.6427 101.964 15.76 102.242 15.92C102.53 16.0693 102.775 16.272 102.978 16.528V12.688H104.626V24H103.042L102.978 22.848C102.786 23.136 102.546 23.376 102.258 23.568C101.98 23.7493 101.671 23.8827 101.33 23.968C100.988 24.0533 100.636 24.096 100.274 24.096ZM100.546 22.624C101.09 22.624 101.538 22.4907 101.89 22.224C102.252 21.9573 102.524 21.6053 102.706 21.168C102.887 20.7307 102.978 20.256 102.978 19.744C102.978 19.2213 102.887 18.752 102.706 18.336C102.535 17.9093 102.268 17.5733 101.906 17.328C101.554 17.072 101.1 16.944 100.546 16.944C99.9698 16.944 99.5111 17.0773 99.1698 17.344C98.8285 17.6 98.5778 17.9467 98.4178 18.384C98.2685 18.8213 98.1938 19.3013 98.1938 19.824C98.1938 20.208 98.2365 20.5707 98.3218 20.912C98.4071 21.2427 98.5405 21.5413 98.7218 21.808C98.9138 22.064 99.1591 22.2667 99.4578 22.416C99.7565 22.5547 100.119 22.624 100.546 22.624Z" fill="white"/>
<path d="M118.828 21.4852L124.485 15.8283M124.485 15.8283H118.828M124.485 15.8283V21.4852" stroke="white" stroke-width="1.5" stroke-linecap="round" stroke-linejoin="round"/>
<rect x="1.5" y="1.5" width="145" height="35" rx="6.5" stroke="url(#paint1_linear_1003_3)"/>
<defs>
<linearGradient id="paint0_linear_1003_3" x1="5.90225e-06" y1="19" x2="98.823" y2="89.3347" gradientUnits="userSpaceOnUse">
<stop stop-color="#5945FD"/>
<stop offset="0.52" stop-color="#8D7FFF"/>
<stop offset="1" stop-color="#5945FD"/>
</linearGradient>
<linearGradient id="paint1_linear_1003_3" x1="74" y1="1" x2="74" y2="37" gradientUnits="userSpaceOnUse">
<stop stop-color="#A99EFF"/>
<stop offset="1" stop-color="#5945FD"/>
</linearGradient>
</defs>
</svg>
