<svg width="139" height="46" viewBox="0 0 139 46" fill="none" xmlns="http://www.w3.org/2000/svg">
<rect x="0.5" y="0.499512" width="137.314" height="45" rx="22.5" fill="#5945FD"/>
<rect x="0.5" y="0.499512" width="137.314" height="45" rx="22.5" stroke="url(#paint0_linear_979_314)"/>
<path d="M23.7044 28.1115C22.6871 28.1115 21.8238 27.8968 21.1144 27.4675C20.4144 27.0288 19.8824 26.4268 19.5184 25.6615C19.1544 24.8962 18.9724 24.0282 18.9724 23.0575C18.9724 22.0775 19.1544 21.2048 19.5184 20.4395C19.8824 19.6742 20.4191 19.0768 21.1284 18.6475C21.8378 18.2088 22.7011 17.9895 23.7184 17.9895C24.7451 17.9895 25.6084 18.2042 26.3084 18.6335C27.0084 19.0628 27.5404 19.6602 27.9044 20.4255C28.2684 21.1908 28.4504 22.0635 28.4504 23.0435C28.4504 24.0142 28.2684 24.8822 27.9044 25.6475C27.5404 26.4128 27.0038 27.0148 26.2944 27.4535C25.5944 27.8922 24.7311 28.1115 23.7044 28.1115ZM23.7184 26.7535C24.4651 26.7535 25.0764 26.5808 25.5524 26.2355C26.0284 25.8902 26.3784 25.4375 26.6024 24.8775C26.8264 24.3175 26.9384 23.7108 26.9384 23.0575C26.9384 22.5628 26.8731 22.0915 26.7424 21.6435C26.6211 21.1955 26.4298 20.7988 26.1684 20.4535C25.9071 20.1082 25.5711 19.8375 25.1604 19.6415C24.7498 19.4455 24.2691 19.3475 23.7184 19.3475C22.9811 19.3475 22.3698 19.5202 21.8844 19.8655C21.4084 20.2108 21.0538 20.6635 20.8204 21.2235C20.5871 21.7835 20.4704 22.3948 20.4704 23.0575C20.4704 23.7108 20.5824 24.3175 20.8064 24.8775C21.0398 25.4375 21.3944 25.8902 21.8704 26.2355C22.3558 26.5808 22.9718 26.7535 23.7184 26.7535ZM33.1075 28.0835C32.0715 28.0835 31.2782 27.8128 30.7275 27.2715C30.1862 26.7208 29.9155 25.8855 29.9155 24.7655V20.6215H31.3575V24.6815C31.3575 25.1202 31.4182 25.4982 31.5395 25.8155C31.6702 26.1328 31.8662 26.3755 32.1275 26.5435C32.3889 26.7115 32.7202 26.7955 33.1215 26.7955C33.5415 26.7955 33.8775 26.7115 34.1295 26.5435C34.3909 26.3662 34.5775 26.1188 34.6895 25.8015C34.8109 25.4842 34.8715 25.1108 34.8715 24.6815V20.6215H36.3135V24.7655C36.3135 25.9042 36.0335 26.7442 35.4735 27.2855C34.9229 27.8175 34.1342 28.0835 33.1075 28.0835ZM38.0509 27.9995V20.6215H39.4089L39.4789 21.6855C39.6656 21.3962 39.8803 21.1675 40.1229 20.9995C40.3656 20.8315 40.6316 20.7102 40.9209 20.6355C41.2103 20.5608 41.5136 20.5235 41.8309 20.5235C41.9149 20.5235 41.9943 20.5235 42.0689 20.5235C42.1436 20.5235 42.2136 20.5235 42.2789 20.5235V21.9095H41.8309C41.2989 21.9095 40.8556 22.0168 40.5009 22.2315C40.1556 22.4462 39.8989 22.7448 39.7309 23.1275C39.5723 23.5102 39.4929 23.9488 39.4929 24.4435V27.9995H38.0509ZM51.1171 28.1115C50.4731 28.1115 49.8664 28.0182 49.2971 27.8315C48.7278 27.6448 48.2471 27.3415 47.8551 26.9215C47.4631 26.5015 47.2018 25.9462 47.0711 25.2555H48.5971C48.7184 25.6475 48.9144 25.9555 49.1851 26.1795C49.4558 26.3942 49.7684 26.5435 50.1231 26.6275C50.4871 26.7115 50.8511 26.7535 51.2151 26.7535C51.5604 26.7535 51.8824 26.7068 52.1811 26.6135C52.4891 26.5202 52.7411 26.3662 52.9371 26.1515C53.1331 25.9368 53.2311 25.6568 53.2311 25.3115C53.2311 25.0502 53.1798 24.8355 53.0771 24.6675C52.9744 24.4995 52.8298 24.3642 52.6431 24.2615C52.4658 24.1495 52.2511 24.0608 51.9991 23.9955C51.7098 23.9022 51.3971 23.8228 51.0611 23.7575C50.7344 23.6922 50.4078 23.6175 50.0811 23.5335C49.7638 23.4495 49.4651 23.3422 49.1851 23.2115C48.9518 23.1182 48.7231 23.0062 48.4991 22.8755C48.2844 22.7355 48.0978 22.5722 47.9391 22.3855C47.7804 22.1895 47.6498 21.9608 47.5471 21.6995C47.4538 21.4382 47.4071 21.1395 47.4071 20.8035C47.4071 20.3555 47.4771 19.9728 47.6171 19.6555C47.7664 19.3382 47.9578 19.0722 48.1911 18.8575C48.4338 18.6428 48.7091 18.4748 49.0171 18.3535C49.3344 18.2228 49.6658 18.1295 50.0111 18.0735C50.3564 18.0175 50.6924 17.9895 51.0191 17.9895C51.6164 17.9895 52.1671 18.0828 52.6711 18.2695C53.1751 18.4562 53.5904 18.7548 53.9171 19.1655C54.2531 19.5668 54.4351 20.0988 54.4631 20.7615H53.0211C52.9838 20.4068 52.8624 20.1268 52.6571 19.9215C52.4611 19.7068 52.2138 19.5575 51.9151 19.4735C51.6164 19.3802 51.2991 19.3335 50.9631 19.3335C50.7204 19.3335 50.4778 19.3568 50.2351 19.4035C49.9924 19.4408 49.7684 19.5155 49.5631 19.6275C49.3671 19.7302 49.2084 19.8702 49.0871 20.0475C48.9751 20.2248 48.9191 20.4442 48.9191 20.7055C48.9191 20.9295 48.9658 21.1302 49.0591 21.3075C49.1524 21.4755 49.2831 21.6202 49.4511 21.7415C49.6284 21.8535 49.8244 21.9515 50.0391 22.0355C50.4311 22.1848 50.8604 22.3015 51.3271 22.3855C51.7938 22.4602 52.2324 22.5675 52.6431 22.7075C52.9418 22.8008 53.2218 22.9175 53.4831 23.0575C53.7444 23.1882 53.9684 23.3515 54.1551 23.5475C54.3418 23.7342 54.4864 23.9582 54.5891 24.2195C54.6918 24.4715 54.7431 24.7655 54.7431 25.1015C54.7431 25.6522 54.6451 26.1235 54.4491 26.5155C54.2531 26.8982 53.9871 27.2062 53.6511 27.4395C53.3151 27.6728 52.9278 27.8455 52.4891 27.9575C52.0504 28.0602 51.5931 28.1115 51.1171 28.1115ZM59.6329 28.0835C58.8583 28.0835 58.2096 27.9248 57.6869 27.6075C57.1643 27.2902 56.7676 26.8515 56.4969 26.2915C56.2356 25.7222 56.1049 25.0688 56.1049 24.3315C56.1049 23.5848 56.2403 22.9268 56.5109 22.3575C56.7909 21.7882 57.1923 21.3402 57.7149 21.0135C58.2469 20.6868 58.8863 20.5235 59.6329 20.5235C60.2023 20.5235 60.6969 20.6308 61.1169 20.8455C61.5369 21.0508 61.8823 21.3308 62.1529 21.6855C62.4329 22.0402 62.6383 22.4368 62.7689 22.8755C62.8996 23.3048 62.9556 23.7528 62.9369 24.2195C62.9369 24.3222 62.9323 24.4202 62.9229 24.5135C62.9136 24.6068 62.9043 24.7048 62.8949 24.8075H57.5609C57.5889 25.1808 57.6823 25.5215 57.8409 25.8295C58.0089 26.1375 58.2423 26.3848 58.5409 26.5715C58.8396 26.7488 59.2083 26.8375 59.6469 26.8375C59.8896 26.8375 60.1229 26.8095 60.3469 26.7535C60.5803 26.6882 60.7856 26.5902 60.9629 26.4595C61.1496 26.3195 61.2803 26.1422 61.3549 25.9275H62.8109C62.6896 26.4222 62.4703 26.8328 62.1529 27.1595C61.8449 27.4768 61.4669 27.7102 61.0189 27.8595C60.5803 28.0088 60.1183 28.0835 59.6329 28.0835ZM57.5889 23.6595H61.5089C61.4996 23.2955 61.4156 22.9735 61.2569 22.6935C61.0983 22.4042 60.8789 22.1802 60.5989 22.0215C60.3189 21.8535 59.9829 21.7695 59.5909 21.7695C59.1616 21.7695 58.8023 21.8582 58.5129 22.0355C58.2329 22.2128 58.0136 22.4462 57.8549 22.7355C57.7056 23.0155 57.6169 23.3235 57.5889 23.6595ZM64.424 27.9995V20.6215H65.782L65.852 21.6855C66.0387 21.3962 66.2533 21.1675 66.496 20.9995C66.7387 20.8315 67.0047 20.7102 67.294 20.6355C67.5833 20.5608 67.8867 20.5235 68.204 20.5235C68.288 20.5235 68.3673 20.5235 68.442 20.5235C68.5167 20.5235 68.5867 20.5235 68.652 20.5235V21.9095H68.204C67.672 21.9095 67.2287 22.0168 66.874 22.2315C66.5287 22.4462 66.272 22.7448 66.104 23.1275C65.9453 23.5102 65.866 23.9488 65.866 24.4435V27.9995H64.424ZM71.6884 27.9995L68.9304 20.6215H70.5404L72.6684 26.6975L74.7824 20.6215H76.4064L73.6484 27.9995H71.6884ZM77.3439 27.9995V20.6215H78.7859V27.9995H77.3439ZM78.0579 19.6415C77.7779 19.6415 77.5492 19.5575 77.3719 19.3895C77.2039 19.2122 77.1199 18.9882 77.1199 18.7175C77.1199 18.4468 77.2086 18.2275 77.3859 18.0595C77.5632 17.8822 77.7872 17.7935 78.0579 17.7935C78.3099 17.7935 78.5292 17.8822 78.7159 18.0595C78.9119 18.2275 79.0099 18.4468 79.0099 18.7175C79.0099 18.9882 78.9166 19.2122 78.7299 19.3895C78.5526 19.5575 78.3286 19.6415 78.0579 19.6415ZM83.7765 28.0835C83.0018 28.0835 82.3531 27.9248 81.8305 27.6075C81.3171 27.2902 80.9298 26.8515 80.6685 26.2915C80.4165 25.7222 80.2905 25.0688 80.2905 24.3315C80.2905 23.6035 80.4211 22.9548 80.6825 22.3855C80.9531 21.8068 81.3545 21.3542 81.8865 21.0275C82.4278 20.6915 83.0951 20.5235 83.8885 20.5235C84.4298 20.5235 84.9105 20.6168 85.3305 20.8035C85.7505 20.9808 86.0911 21.2468 86.3525 21.6015C86.6231 21.9468 86.8005 22.3808 86.8845 22.9035H85.4425C85.3211 22.5208 85.1158 22.2455 84.8265 22.0775C84.5465 21.9095 84.2151 21.8255 83.8325 21.8255C83.3191 21.8255 82.9085 21.9468 82.6005 22.1895C82.3018 22.4322 82.0825 22.7448 81.9425 23.1275C81.8025 23.5102 81.7325 23.9115 81.7325 24.3315C81.7325 24.7702 81.8025 25.1762 81.9425 25.5495C82.0918 25.9228 82.3158 26.2262 82.6145 26.4595C82.9225 26.6835 83.3238 26.7955 83.8185 26.7955C84.1918 26.7955 84.5371 26.7162 84.8545 26.5575C85.1718 26.3895 85.3771 26.1095 85.4705 25.7175H86.9545C86.8705 26.2588 86.6745 26.7068 86.3665 27.0615C86.0585 27.4068 85.6758 27.6635 85.2185 27.8315C84.7705 27.9995 84.2898 28.0835 83.7765 28.0835ZM91.5978 28.0835C90.8231 28.0835 90.1744 27.9248 89.6518 27.6075C89.1291 27.2902 88.7324 26.8515 88.4618 26.2915C88.2004 25.7222 88.0698 25.0688 88.0698 24.3315C88.0698 23.5848 88.2051 22.9268 88.4758 22.3575C88.7558 21.7882 89.1571 21.3402 89.6798 21.0135C90.2118 20.6868 90.8511 20.5235 91.5978 20.5235C92.1671 20.5235 92.6618 20.6308 93.0818 20.8455C93.5018 21.0508 93.8471 21.3308 94.1178 21.6855C94.3978 22.0402 94.6031 22.4368 94.7338 22.8755C94.8644 23.3048 94.9204 23.7528 94.9018 24.2195C94.9018 24.3222 94.8971 24.4202 94.8878 24.5135C94.8784 24.6068 94.8691 24.7048 94.8598 24.8075H89.5258C89.5538 25.1808 89.6471 25.5215 89.8058 25.8295C89.9738 26.1375 90.2071 26.3848 90.5058 26.5715C90.8044 26.7488 91.1731 26.8375 91.6118 26.8375C91.8544 26.8375 92.0878 26.8095 92.3118 26.7535C92.5451 26.6882 92.7504 26.5902 92.9278 26.4595C93.1144 26.3195 93.2451 26.1422 93.3198 25.9275H94.7758C94.6544 26.4222 94.4351 26.8328 94.1178 27.1595C93.8098 27.4768 93.4318 27.7102 92.9838 27.8595C92.5451 28.0088 92.0831 28.0835 91.5978 28.0835ZM89.5538 23.6595H93.4738C93.4644 23.2955 93.3804 22.9735 93.2218 22.6935C93.0631 22.4042 92.8438 22.1802 92.5638 22.0215C92.2838 21.8535 91.9478 21.7695 91.5558 21.7695C91.1264 21.7695 90.7671 21.8582 90.4778 22.0355C90.1978 22.2128 89.9784 22.4462 89.8198 22.7355C89.6704 23.0155 89.5818 23.3235 89.5538 23.6595ZM99.1468 28.0835C98.8015 28.0835 98.4562 28.0508 98.1108 27.9855C97.7655 27.9202 97.4435 27.8035 97.1448 27.6355C96.8462 27.4675 96.5942 27.2435 96.3888 26.9635C96.1835 26.6742 96.0528 26.3195 95.9968 25.8995H97.4668C97.5415 26.1235 97.6722 26.3055 97.8588 26.4455C98.0548 26.5855 98.2695 26.6882 98.5028 26.7535C98.7455 26.8188 98.9835 26.8515 99.2168 26.8515C99.3568 26.8515 99.5108 26.8422 99.6788 26.8235C99.8562 26.8048 100.024 26.7628 100.183 26.6975C100.342 26.6322 100.472 26.5388 100.575 26.4175C100.678 26.2868 100.729 26.1142 100.729 25.8995C100.729 25.7315 100.682 25.5915 100.589 25.4795C100.505 25.3675 100.384 25.2788 100.225 25.2135C100.076 25.1388 99.8935 25.0828 99.6788 25.0455C99.2588 24.9522 98.8062 24.8635 98.3208 24.7795C97.8448 24.6862 97.4248 24.5275 97.0608 24.3035C96.9302 24.2195 96.8135 24.1262 96.7108 24.0235C96.6082 23.9115 96.5195 23.7855 96.4448 23.6455C96.3702 23.5055 96.3142 23.3562 96.2768 23.1975C96.2395 23.0388 96.2208 22.8662 96.2208 22.6795C96.2208 22.2968 96.2955 21.9702 96.4448 21.6995C96.6035 21.4288 96.8182 21.2095 97.0888 21.0415C97.3595 20.8642 97.6675 20.7335 98.0128 20.6495C98.3582 20.5655 98.7222 20.5235 99.1048 20.5235C99.5995 20.5235 100.048 20.6028 100.449 20.7615C100.85 20.9202 101.182 21.1535 101.443 21.4615C101.704 21.7695 101.858 22.1568 101.905 22.6235H100.547C100.491 22.3715 100.328 22.1708 100.057 22.0215C99.7955 21.8628 99.4642 21.7835 99.0628 21.7835C98.9228 21.7835 98.7688 21.7928 98.6008 21.8115C98.4422 21.8302 98.2882 21.8722 98.1388 21.9375C97.9895 22.0028 97.8682 22.0962 97.7748 22.2175C97.6815 22.3295 97.6348 22.4788 97.6348 22.6655C97.6348 22.8428 97.6768 22.9922 97.7608 23.1135C97.8542 23.2348 97.9848 23.3328 98.1528 23.4075C98.3302 23.4822 98.5308 23.5428 98.7548 23.5895C99.0722 23.6642 99.4128 23.7342 99.7768 23.7995C100.15 23.8648 100.454 23.9348 100.687 24.0095C100.995 24.0935 101.256 24.2148 101.471 24.3735C101.695 24.5322 101.863 24.7328 101.975 24.9755C102.096 25.2182 102.157 25.5122 102.157 25.8575C102.157 26.3055 102.068 26.6742 101.891 26.9635C101.714 27.2435 101.476 27.4675 101.177 27.6355C100.888 27.8035 100.561 27.9202 100.197 27.9855C99.8422 28.0508 99.4922 28.0835 99.1468 28.0835Z" fill="white"/>
<path d="M111.828 25.8279L117.485 20.1711M117.485 20.1711H111.828M117.485 20.1711V25.8279" stroke="white" stroke-width="1.5" stroke-linecap="round" stroke-linejoin="round"/>
<defs>
<linearGradient id="paint0_linear_979_314" x1="69" y1="45.9995" x2="69" y2="-0.000488526" gradientUnits="userSpaceOnUse">
<stop stop-color="#5945FD"/>
<stop offset="1" stop-color="#B7AEFF"/>
</linearGradient>
</defs>
</svg>
