<svg width="112" height="46" viewBox="0 0 112 46" fill="none" xmlns="http://www.w3.org/2000/svg">
<rect x="0.313477" width="111" height="46" rx="23" fill="white" fill-opacity="0.06"/>
<rect x="0.813477" y="0.5" width="110" height="45" rx="22.5" stroke="white" stroke-opacity="0.14"/>
<path d="M23.7526 28.112C22.7353 28.112 21.8813 27.8973 21.1906 27.468C20.5093 27.0387 19.9959 26.446 19.6506 25.69C19.3053 24.934 19.1326 24.0613 19.1326 23.072C19.1326 22.0827 19.3053 21.2053 19.6506 20.44C20.0053 19.6747 20.5233 19.0773 21.2046 18.648C21.8953 18.2093 22.7493 17.99 23.7666 17.99C24.5039 17.99 25.1479 18.1113 25.6986 18.354C26.2493 18.5873 26.6926 18.9233 27.0286 19.362C27.3739 19.7913 27.6026 20.3047 27.7146 20.902H26.2586C26.1186 20.426 25.8339 20.048 25.4046 19.768C24.9753 19.488 24.4246 19.348 23.7526 19.348C23.0059 19.348 22.4039 19.5207 21.9466 19.866C21.4986 20.2113 21.1719 20.664 20.9666 21.224C20.7613 21.7747 20.6586 22.372 20.6586 23.016C20.6586 23.6787 20.7659 24.2947 20.9806 24.864C21.1953 25.4333 21.5359 25.8907 22.0026 26.236C22.4693 26.5813 23.0666 26.754 23.7946 26.754C24.2426 26.754 24.6393 26.6933 24.9846 26.572C25.3299 26.4413 25.6193 26.2593 25.8526 26.026C26.0859 25.7833 26.2446 25.5033 26.3286 25.186H27.8826C27.7613 25.7927 27.5139 26.3153 27.1406 26.754C26.7673 27.1927 26.2959 27.5287 25.7266 27.762C25.1573 27.9953 24.4993 28.112 23.7526 28.112ZM32.587 28.084C31.8217 28.084 31.173 27.93 30.641 27.622C30.109 27.3047 29.703 26.8613 29.423 26.292C29.1524 25.7227 29.017 25.0647 29.017 24.318C29.017 23.562 29.157 22.904 29.437 22.344C29.717 21.7747 30.123 21.3313 30.655 21.014C31.187 20.6873 31.8357 20.524 32.601 20.524C33.3664 20.524 34.015 20.6873 34.547 21.014C35.079 21.3313 35.4804 21.7747 35.751 22.344C36.0217 22.9133 36.157 23.576 36.157 24.332C36.157 25.0693 36.017 25.7227 35.737 26.292C35.4664 26.8613 35.065 27.3047 34.533 27.622C34.0104 27.93 33.3617 28.084 32.587 28.084ZM32.587 26.796C33.091 26.796 33.497 26.684 33.805 26.46C34.1224 26.236 34.3557 25.9373 34.505 25.564C34.6544 25.1813 34.729 24.766 34.729 24.318C34.729 23.87 34.6544 23.4593 34.505 23.086C34.3557 22.7127 34.1224 22.414 33.805 22.19C33.497 21.9567 33.091 21.84 32.587 21.84C32.0924 21.84 31.6864 21.9567 31.369 22.19C31.0517 22.414 30.8184 22.7127 30.669 23.086C30.529 23.4593 30.459 23.87 30.459 24.318C30.459 24.7753 30.529 25.1907 30.669 25.564C30.8184 25.9373 31.0517 26.236 31.369 26.46C31.6864 26.684 32.0924 26.796 32.587 26.796ZM37.6369 28V20.622H39.0089L39.0789 21.658C39.2655 21.3873 39.4895 21.1727 39.7509 21.014C40.0122 20.846 40.2922 20.7247 40.5909 20.65C40.8895 20.566 41.1789 20.524 41.4589 20.524C42.1682 20.524 42.7235 20.678 43.1249 20.986C43.5355 21.2847 43.8249 21.6907 43.9929 22.204C44.1702 22.708 44.2589 23.282 44.2589 23.926V28H42.8029V24.22C42.8029 23.9213 42.7842 23.6273 42.7469 23.338C42.7095 23.0487 42.6302 22.792 42.5089 22.568C42.3969 22.3347 42.2335 22.1527 42.0189 22.022C41.8042 21.882 41.5149 21.812 41.1509 21.812C40.7029 21.812 40.3249 21.9333 40.0169 22.176C39.7089 22.4187 39.4755 22.7453 39.3169 23.156C39.1582 23.5667 39.0789 24.0287 39.0789 24.542V28H37.6369ZM48.8327 28.084C48.0394 28.084 47.4701 27.8693 47.1247 27.44C46.7887 27.0013 46.6207 26.39 46.6207 25.606V21.91H45.4447V20.622H46.6207V18.48H48.0627V20.622H50.3167V21.91H48.0627V25.368C48.0627 25.6293 48.0861 25.8673 48.1327 26.082C48.1887 26.2967 48.2914 26.4647 48.4407 26.586C48.5901 26.7073 48.8047 26.7727 49.0847 26.782C49.2994 26.782 49.4861 26.7447 49.6447 26.67C49.8127 26.5953 49.9481 26.5113 50.0507 26.418L50.6107 27.496C50.4334 27.636 50.2467 27.7527 50.0507 27.846C49.8641 27.93 49.6681 27.9907 49.4627 28.028C49.2574 28.0653 49.0474 28.084 48.8327 28.084ZM54.0026 28.084C53.6666 28.084 53.3399 28.042 53.0226 27.958C52.7146 27.8647 52.4392 27.7293 52.1966 27.552C51.9539 27.3653 51.7579 27.1367 51.6086 26.866C51.4686 26.586 51.3986 26.2593 51.3986 25.886C51.3986 25.438 51.4826 25.0693 51.6506 24.78C51.8279 24.4813 52.0612 24.2527 52.3506 24.094C52.6399 23.926 52.9712 23.8093 53.3446 23.744C53.7272 23.6693 54.1239 23.632 54.5346 23.632H56.3406C56.3406 23.268 56.2846 22.9507 56.1726 22.68C56.0606 22.4 55.8832 22.1853 55.6406 22.036C55.4072 21.8773 55.0946 21.798 54.7026 21.798C54.4692 21.798 54.2452 21.826 54.0306 21.882C53.8252 21.9287 53.6479 22.008 53.4986 22.12C53.3492 22.232 53.2466 22.3813 53.1906 22.568H51.6786C51.7346 22.2133 51.8606 21.91 52.0566 21.658C52.2526 21.3967 52.4952 21.182 52.7846 21.014C53.0739 20.846 53.3819 20.7247 53.7086 20.65C54.0446 20.566 54.3852 20.524 54.7306 20.524C55.7946 20.524 56.5599 20.8367 57.0266 21.462C57.5026 22.078 57.7406 22.9273 57.7406 24.01V28H56.4946L56.4386 27.062C56.2239 27.3513 55.9672 27.5707 55.6686 27.72C55.3792 27.8693 55.0899 27.9673 54.8006 28.014C54.5112 28.0607 54.2452 28.084 54.0026 28.084ZM54.2266 26.866C54.6466 26.866 55.0152 26.796 55.3326 26.656C55.6499 26.5067 55.8972 26.2967 56.0746 26.026C56.2519 25.746 56.3406 25.4193 56.3406 25.046V24.738H55.0246C54.7539 24.738 54.4879 24.7473 54.2266 24.766C53.9746 24.7753 53.7412 24.8127 53.5266 24.878C53.3212 24.934 53.1532 25.032 53.0226 25.172C52.9012 25.312 52.8406 25.5127 52.8406 25.774C52.8406 26.026 52.9059 26.2313 53.0366 26.39C53.1672 26.5487 53.3399 26.67 53.5546 26.754C53.7692 26.8287 53.9932 26.866 54.2266 26.866ZM62.6769 28.084C61.9022 28.084 61.2535 27.9253 60.7309 27.608C60.2175 27.2907 59.8302 26.852 59.5689 26.292C59.3169 25.7227 59.1909 25.0693 59.1909 24.332C59.1909 23.604 59.3215 22.9553 59.5829 22.386C59.8535 21.8073 60.2549 21.3547 60.7869 21.028C61.3282 20.692 61.9955 20.524 62.7889 20.524C63.3302 20.524 63.8109 20.6173 64.2309 20.804C64.6509 20.9813 64.9915 21.2473 65.2529 21.602C65.5235 21.9473 65.7009 22.3813 65.7849 22.904H64.3429C64.2215 22.5213 64.0162 22.246 63.7269 22.078C63.4469 21.91 63.1155 21.826 62.7329 21.826C62.2195 21.826 61.8089 21.9473 61.5009 22.19C61.2022 22.4327 60.9829 22.7453 60.8429 23.128C60.7029 23.5107 60.6329 23.912 60.6329 24.332C60.6329 24.7707 60.7029 25.1767 60.8429 25.55C60.9922 25.9233 61.2162 26.2267 61.5149 26.46C61.8229 26.684 62.2242 26.796 62.7189 26.796C63.0922 26.796 63.4375 26.7167 63.7549 26.558C64.0722 26.39 64.2775 26.11 64.3709 25.718H65.8549C65.7709 26.2593 65.5749 26.7073 65.2669 27.062C64.9589 27.4073 64.5762 27.664 64.1189 27.832C63.6709 28 63.1902 28.084 62.6769 28.084ZM70.1062 28.084C69.3128 28.084 68.7435 27.8693 68.3982 27.44C68.0622 27.0013 67.8942 26.39 67.8942 25.606V21.91H66.7182V20.622H67.8942V18.48H69.3362V20.622H71.5902V21.91H69.3362V25.368C69.3362 25.6293 69.3595 25.8673 69.4062 26.082C69.4622 26.2967 69.5648 26.4647 69.7142 26.586C69.8635 26.7073 70.0782 26.7727 70.3582 26.782C70.5728 26.782 70.7595 26.7447 70.9182 26.67C71.0862 26.5953 71.2215 26.5113 71.3242 26.418L71.8842 27.496C71.7068 27.636 71.5202 27.7527 71.3242 27.846C71.1375 27.93 70.9415 27.9907 70.7362 28.028C70.5308 28.0653 70.3208 28.084 70.1062 28.084ZM80.9938 28.112C80.0605 28.112 79.2951 27.9253 78.6978 27.552C78.1098 27.1693 77.6758 26.6467 77.3958 25.984C77.1158 25.3213 76.9758 24.5513 76.9758 23.674V18.102H78.4598V23.688C78.4598 24.2387 78.5391 24.7473 78.6978 25.214C78.8565 25.6807 79.1225 26.054 79.4958 26.334C79.8691 26.614 80.3731 26.754 81.0078 26.754C81.6518 26.754 82.1558 26.614 82.5198 26.334C82.8838 26.054 83.1405 25.6807 83.2898 25.214C83.4391 24.7473 83.5138 24.2387 83.5138 23.688V18.102H85.0118V23.674C85.0118 24.542 84.8718 25.312 84.5918 25.984C84.3118 26.6467 83.8778 27.1693 83.2898 27.552C82.7018 27.9253 81.9365 28.112 80.9938 28.112ZM89.6136 28.084C89.2683 28.084 88.923 28.0513 88.5776 27.986C88.2323 27.9207 87.9103 27.804 87.6116 27.636C87.313 27.468 87.061 27.244 86.8556 26.964C86.6503 26.6747 86.5196 26.32 86.4636 25.9H87.9336C88.0083 26.124 88.139 26.306 88.3256 26.446C88.5216 26.586 88.7363 26.6887 88.9696 26.754C89.2123 26.8193 89.4503 26.852 89.6836 26.852C89.8236 26.852 89.9776 26.8427 90.1456 26.824C90.323 26.8053 90.491 26.7633 90.6496 26.698C90.8083 26.6327 90.939 26.5393 91.0416 26.418C91.1443 26.2873 91.1956 26.1147 91.1956 25.9C91.1956 25.732 91.149 25.592 91.0556 25.48C90.9716 25.368 90.8503 25.2793 90.6916 25.214C90.5423 25.1393 90.3603 25.0833 90.1456 25.046C89.7256 24.9527 89.273 24.864 88.7876 24.78C88.3116 24.6867 87.8916 24.528 87.5276 24.304C87.397 24.22 87.2803 24.1267 87.1776 24.024C87.075 23.912 86.9863 23.786 86.9116 23.646C86.837 23.506 86.781 23.3567 86.7436 23.198C86.7063 23.0393 86.6876 22.8667 86.6876 22.68C86.6876 22.2973 86.7623 21.9707 86.9116 21.7C87.0703 21.4293 87.285 21.21 87.5556 21.042C87.8263 20.8647 88.1343 20.734 88.4796 20.65C88.825 20.566 89.189 20.524 89.5716 20.524C90.0663 20.524 90.5143 20.6033 90.9156 20.762C91.317 20.9207 91.6483 21.154 91.9096 21.462C92.171 21.77 92.325 22.1573 92.3716 22.624H91.0136C90.9576 22.372 90.7943 22.1713 90.5236 22.022C90.2623 21.8633 89.931 21.784 89.5296 21.784C89.3896 21.784 89.2356 21.7933 89.0676 21.812C88.909 21.8307 88.755 21.8727 88.6056 21.938C88.4563 22.0033 88.335 22.0967 88.2416 22.218C88.1483 22.33 88.1016 22.4793 88.1016 22.666C88.1016 22.8433 88.1436 22.9927 88.2276 23.114C88.321 23.2353 88.4516 23.3333 88.6196 23.408C88.797 23.4827 88.9976 23.5433 89.2216 23.59C89.539 23.6647 89.8796 23.7347 90.2436 23.8C90.617 23.8653 90.9203 23.9353 91.1536 24.01C91.4616 24.094 91.723 24.2153 91.9376 24.374C92.1616 24.5327 92.3296 24.7333 92.4416 24.976C92.563 25.2187 92.6236 25.5127 92.6236 25.858C92.6236 26.306 92.535 26.6747 92.3576 26.964C92.1803 27.244 91.9423 27.468 91.6436 27.636C91.3543 27.804 91.0276 27.9207 90.6636 27.986C90.309 28.0513 89.959 28.084 89.6136 28.084Z" fill="white"/>
</svg>
