<svg width="112" height="46" viewBox="0 0 112 46" fill="none" xmlns="http://www.w3.org/2000/svg">
<rect x="0.313477" width="111" height="46" rx="23" fill="white" fill-opacity="0.06"/>
<rect x="0.813477" y="0.5" width="110" height="45" rx="22.5" stroke="white" stroke-opacity="0.14"/>
<path d="M23.3661 28.112C22.7221 28.112 22.1155 28.0187 21.5461 27.832C20.9768 27.6453 20.4961 27.342 20.1041 26.922C19.7121 26.502 19.4508 25.9467 19.3201 25.256H20.8461C20.9675 25.648 21.1635 25.956 21.4341 26.18C21.7048 26.3947 22.0175 26.544 22.3721 26.628C22.7361 26.712 23.1001 26.754 23.4641 26.754C23.8095 26.754 24.1315 26.7073 24.4301 26.614C24.7381 26.5207 24.9901 26.3667 25.1861 26.152C25.3821 25.9373 25.4801 25.6573 25.4801 25.312C25.4801 25.0507 25.4288 24.836 25.3261 24.668C25.2235 24.5 25.0788 24.3647 24.8921 24.262C24.7148 24.15 24.5001 24.0613 24.2481 23.996C23.9588 23.9027 23.6461 23.8233 23.3101 23.758C22.9835 23.6927 22.6568 23.618 22.3301 23.534C22.0128 23.45 21.7141 23.3427 21.4341 23.212C21.2008 23.1187 20.9721 23.0067 20.7481 22.876C20.5335 22.736 20.3468 22.5727 20.1881 22.386C20.0295 22.19 19.8988 21.9613 19.7961 21.7C19.7028 21.4387 19.6561 21.14 19.6561 20.804C19.6561 20.356 19.7261 19.9733 19.8661 19.656C20.0155 19.3387 20.2068 19.0727 20.4401 18.858C20.6828 18.6433 20.9581 18.4753 21.2661 18.354C21.5835 18.2233 21.9148 18.13 22.2601 18.074C22.6055 18.018 22.9415 17.99 23.2681 17.99C23.8655 17.99 24.4161 18.0833 24.9201 18.27C25.4241 18.4567 25.8395 18.7553 26.1661 19.166C26.5021 19.5673 26.6841 20.0993 26.7121 20.762H25.2701C25.2328 20.4073 25.1115 20.1273 24.9061 19.922C24.7101 19.7073 24.4628 19.558 24.1641 19.474C23.8655 19.3807 23.5481 19.334 23.2121 19.334C22.9695 19.334 22.7268 19.3573 22.4841 19.404C22.2415 19.4413 22.0175 19.516 21.8121 19.628C21.6161 19.7307 21.4575 19.8707 21.3361 20.048C21.2241 20.2253 21.1681 20.4447 21.1681 20.706C21.1681 20.93 21.2148 21.1307 21.3081 21.308C21.4015 21.476 21.5321 21.6207 21.7001 21.742C21.8775 21.854 22.0735 21.952 22.2881 22.036C22.6801 22.1853 23.1095 22.302 23.5761 22.386C24.0428 22.4607 24.4815 22.568 24.8921 22.708C25.1908 22.8013 25.4708 22.918 25.7321 23.058C25.9935 23.1887 26.2175 23.352 26.4041 23.548C26.5908 23.7347 26.7355 23.9587 26.8381 24.22C26.9408 24.472 26.9921 24.766 26.9921 25.102C26.9921 25.6527 26.8941 26.124 26.6981 26.516C26.5021 26.8987 26.2361 27.2067 25.9001 27.44C25.5641 27.6733 25.1768 27.846 24.7381 27.958C24.2995 28.0607 23.8421 28.112 23.3661 28.112ZM31.882 28.084C31.1073 28.084 30.4586 27.9253 29.936 27.608C29.4133 27.2907 29.0166 26.852 28.746 26.292C28.4846 25.7227 28.354 25.0693 28.354 24.332C28.354 23.5853 28.4893 22.9273 28.76 22.358C29.04 21.7887 29.4413 21.3407 29.964 21.014C30.496 20.6873 31.1353 20.524 31.882 20.524C32.4513 20.524 32.946 20.6313 33.366 20.846C33.786 21.0513 34.1313 21.3313 34.402 21.686C34.682 22.0407 34.8873 22.4373 35.018 22.876C35.1486 23.3053 35.2046 23.7533 35.186 24.22C35.186 24.3227 35.1813 24.4207 35.172 24.514C35.1626 24.6073 35.1533 24.7053 35.144 24.808H29.81C29.838 25.1813 29.9313 25.522 30.09 25.83C30.258 26.138 30.4913 26.3853 30.79 26.572C31.0886 26.7493 31.4573 26.838 31.896 26.838C32.1386 26.838 32.372 26.81 32.596 26.754C32.8293 26.6887 33.0346 26.5907 33.212 26.46C33.3986 26.32 33.5293 26.1427 33.604 25.928H35.06C34.9386 26.4227 34.7193 26.8333 34.402 27.16C34.094 27.4773 33.716 27.7107 33.268 27.86C32.8293 28.0093 32.3673 28.084 31.882 28.084ZM29.838 23.66H33.758C33.7486 23.296 33.6646 22.974 33.506 22.694C33.3473 22.4047 33.128 22.1807 32.848 22.022C32.568 21.854 32.232 21.77 31.84 21.77C31.4106 21.77 31.0513 21.8587 30.762 22.036C30.482 22.2133 30.2626 22.4467 30.104 22.736C29.9546 23.016 29.866 23.324 29.838 23.66ZM39.921 28.084C39.1463 28.084 38.4977 27.9253 37.975 27.608C37.4523 27.2907 37.0557 26.852 36.785 26.292C36.5237 25.7227 36.393 25.0693 36.393 24.332C36.393 23.5853 36.5283 22.9273 36.799 22.358C37.079 21.7887 37.4803 21.3407 38.003 21.014C38.535 20.6873 39.1743 20.524 39.921 20.524C40.4903 20.524 40.985 20.6313 41.405 20.846C41.825 21.0513 42.1703 21.3313 42.441 21.686C42.721 22.0407 42.9263 22.4373 43.057 22.876C43.1877 23.3053 43.2437 23.7533 43.225 24.22C43.225 24.3227 43.2203 24.4207 43.211 24.514C43.2017 24.6073 43.1923 24.7053 43.183 24.808H37.849C37.877 25.1813 37.9703 25.522 38.129 25.83C38.297 26.138 38.5303 26.3853 38.829 26.572C39.1277 26.7493 39.4963 26.838 39.935 26.838C40.1777 26.838 40.411 26.81 40.635 26.754C40.8683 26.6887 41.0737 26.5907 41.251 26.46C41.4377 26.32 41.5683 26.1427 41.643 25.928H43.099C42.9777 26.4227 42.7583 26.8333 42.441 27.16C42.133 27.4773 41.755 27.7107 41.307 27.86C40.8683 28.0093 40.4063 28.084 39.921 28.084ZM37.877 23.66H41.797C41.7877 23.296 41.7037 22.974 41.545 22.694C41.3863 22.4047 41.167 22.1807 40.887 22.022C40.607 21.854 40.271 21.77 39.879 21.77C39.4497 21.77 39.0903 21.8587 38.801 22.036C38.521 22.2133 38.3017 22.4467 38.143 22.736C37.9937 23.016 37.905 23.324 37.877 23.66ZM48.8339 28V18.102H52.4039C53.1412 18.102 53.7759 18.2187 54.3079 18.452C54.8492 18.6853 55.2645 19.0493 55.5539 19.544C55.8432 20.0293 55.9879 20.6593 55.9879 21.434C55.9879 22.1807 55.8199 22.806 55.4839 23.31C55.1572 23.814 54.7092 24.1967 54.1399 24.458C53.5705 24.71 52.9219 24.836 52.1939 24.836H50.3179V28H48.8339ZM50.3179 23.492H52.1379C52.8472 23.492 53.4165 23.3287 53.8459 23.002C54.2752 22.666 54.4899 22.1293 54.4899 21.392C54.4899 20.748 54.3125 20.2673 53.9579 19.95C53.6032 19.6233 53.0665 19.46 52.3479 19.46H50.3179V23.492ZM57.4816 28V20.622H58.8396L58.9096 21.686C59.0963 21.3967 59.3109 21.168 59.5536 21C59.7963 20.832 60.0623 20.7107 60.3516 20.636C60.6409 20.5613 60.9443 20.524 61.2616 20.524C61.3456 20.524 61.4249 20.524 61.4996 20.524C61.5743 20.524 61.6443 20.524 61.7096 20.524V21.91H61.2616C60.7296 21.91 60.2863 22.0173 59.9316 22.232C59.5863 22.4467 59.3296 22.7453 59.1616 23.128C59.0029 23.5107 58.9236 23.9493 58.9236 24.444V28H57.4816ZM62.8 28V20.622H64.242V28H62.8ZM63.514 19.642C63.234 19.642 63.0053 19.558 62.828 19.39C62.66 19.2127 62.576 18.9887 62.576 18.718C62.576 18.4473 62.6646 18.228 62.842 18.06C63.0193 17.8827 63.2433 17.794 63.514 17.794C63.766 17.794 63.9853 17.8827 64.172 18.06C64.368 18.228 64.466 18.4473 64.466 18.718C64.466 18.9887 64.3726 19.2127 64.186 19.39C64.0086 19.558 63.7846 19.642 63.514 19.642ZM69.2325 28.084C68.4579 28.084 67.8092 27.9253 67.2865 27.608C66.7732 27.2907 66.3859 26.852 66.1245 26.292C65.8725 25.7227 65.7465 25.0693 65.7465 24.332C65.7465 23.604 65.8772 22.9553 66.1385 22.386C66.4092 21.8073 66.8105 21.3547 67.3425 21.028C67.8839 20.692 68.5512 20.524 69.3445 20.524C69.8859 20.524 70.3665 20.6173 70.7865 20.804C71.2065 20.9813 71.5472 21.2473 71.8085 21.602C72.0792 21.9473 72.2565 22.3813 72.3405 22.904H70.8985C70.7772 22.5213 70.5719 22.246 70.2825 22.078C70.0025 21.91 69.6712 21.826 69.2885 21.826C68.7752 21.826 68.3645 21.9473 68.0565 22.19C67.7579 22.4327 67.5385 22.7453 67.3985 23.128C67.2585 23.5107 67.1885 23.912 67.1885 24.332C67.1885 24.7707 67.2585 25.1767 67.3985 25.55C67.5479 25.9233 67.7719 26.2267 68.0705 26.46C68.3785 26.684 68.7799 26.796 69.2745 26.796C69.6479 26.796 69.9932 26.7167 70.3105 26.558C70.6279 26.39 70.8332 26.11 70.9265 25.718H72.4105C72.3265 26.2593 72.1305 26.7073 71.8225 27.062C71.5145 27.4073 71.1319 27.664 70.6745 27.832C70.2265 28 69.7459 28.084 69.2325 28.084ZM73.8058 28V20.622H75.2478V28H73.8058ZM74.5198 19.642C74.2398 19.642 74.0112 19.558 73.8338 19.39C73.6658 19.2127 73.5818 18.9887 73.5818 18.718C73.5818 18.4473 73.6705 18.228 73.8478 18.06C74.0252 17.8827 74.2492 17.794 74.5198 17.794C74.7718 17.794 74.9912 17.8827 75.1778 18.06C75.3738 18.228 75.4718 18.4473 75.4718 18.718C75.4718 18.9887 75.3785 19.2127 75.1918 19.39C75.0145 19.558 74.7905 19.642 74.5198 19.642ZM77.0324 28V20.622H78.4044L78.4744 21.658C78.6611 21.3873 78.8851 21.1727 79.1464 21.014C79.4077 20.846 79.6877 20.7247 79.9864 20.65C80.2851 20.566 80.5744 20.524 80.8544 20.524C81.5637 20.524 82.1191 20.678 82.5204 20.986C82.9311 21.2847 83.2204 21.6907 83.3884 22.204C83.5657 22.708 83.6544 23.282 83.6544 23.926V28H82.1984V24.22C82.1984 23.9213 82.1797 23.6273 82.1424 23.338C82.1051 23.0487 82.0257 22.792 81.9044 22.568C81.7924 22.3347 81.6291 22.1527 81.4144 22.022C81.1997 21.882 80.9104 21.812 80.5464 21.812C80.0984 21.812 79.7204 21.9333 79.4124 22.176C79.1044 22.4187 78.8711 22.7453 78.7124 23.156C78.5537 23.5667 78.4744 24.0287 78.4744 24.542V28H77.0324ZM88.6902 31.346C88.1676 31.346 87.6822 31.262 87.2342 31.094C86.7862 30.9353 86.4036 30.6787 86.0862 30.324C85.7782 29.9787 85.5682 29.5353 85.4562 28.994H86.9542C87.0196 29.246 87.1456 29.4467 87.3322 29.596C87.5189 29.7547 87.7382 29.8667 87.9902 29.932C88.2422 29.9973 88.4942 30.03 88.7462 30.03C89.2222 30.03 89.6049 29.932 89.8942 29.736C90.1836 29.54 90.3889 29.274 90.5102 28.938C90.6409 28.6113 90.7062 28.238 90.7062 27.818V26.964C90.5476 27.2347 90.3376 27.454 90.0762 27.622C89.8149 27.79 89.5349 27.9113 89.2362 27.986C88.9469 28.0513 88.6482 28.084 88.3402 28.084C87.5842 28.084 86.9682 27.916 86.4922 27.58C86.0162 27.244 85.6616 26.796 85.4282 26.236C85.2042 25.6667 85.0922 25.0367 85.0922 24.346C85.0922 23.6367 85.2089 22.9927 85.4422 22.414C85.6849 21.8353 86.0536 21.378 86.5482 21.042C87.0429 20.6967 87.6682 20.524 88.4242 20.524C88.8629 20.524 89.2876 20.6033 89.6982 20.762C90.1089 20.9113 90.4496 21.154 90.7202 21.49L90.8042 20.622H92.1622V27.65C92.1622 28.406 92.0409 29.0593 91.7982 29.61C91.5556 30.17 91.1776 30.5993 90.6642 30.898C90.1509 31.1967 89.4929 31.346 88.6902 31.346ZM88.6062 26.796C89.0729 26.796 89.4602 26.684 89.7682 26.46C90.0856 26.2267 90.3236 25.9187 90.4822 25.536C90.6409 25.1533 90.7202 24.7333 90.7202 24.276C90.7202 23.8093 90.6409 23.394 90.4822 23.03C90.3236 22.6567 90.0902 22.3627 89.7822 22.148C89.4742 21.9333 89.0776 21.826 88.5922 21.826C88.0882 21.826 87.6869 21.9427 87.3882 22.176C87.0896 22.4 86.8702 22.7033 86.7302 23.086C86.5996 23.4593 86.5342 23.8747 86.5342 24.332C86.5342 24.7987 86.6042 25.2187 86.7442 25.592C86.8842 25.9653 87.1036 26.2593 87.4022 26.474C87.7102 26.6887 88.1116 26.796 88.6062 26.796Z" fill="white"/>
</svg>
