<svg width="368" height="298" viewBox="0 0 368 298" fill="none" xmlns="http://www.w3.org/2000/svg">
<path d="M260.602 19.9174C233.663 19.9174 209.847 32.9985 194.914 53.1081C179.882 32.9008 155.871 19.7222 128.737 19.9174C85.1077 20.2103 49.2867 54.5724 47.6274 98.1107C44.2113 188.702 175.393 282.612 192.961 294.814C194.133 295.595 195.597 295.595 196.768 294.814C213.947 282.417 342.2 187.335 342.2 101.625C342.395 56.5248 305.793 19.9174 260.602 19.9174Z" fill="#B880FF" stroke="white" stroke-width="2" stroke-linecap="round" stroke-linejoin="round"/>
<path d="M228.572 237.22L233.055 233.952L246.588 230.223L249.521 242.919L229.913 248.994L228.572 237.22Z" fill="#B880FF"/>
<path d="M198.908 224.944H193.503L186.59 230.223L182.274 236.382L181.73 241.075L201.296 256.661L225.974 250.167L198.908 224.944Z" fill="#B880FF"/>
<path d="M266.155 234.162C253.837 239.86 240.932 246.312 222.497 251.131C212.106 253.854 189.732 262.024 183.112 247.402C175.068 229.595 204.983 218.198 204.983 218.198L216.505 229.343C216.505 229.343 206.156 237.765 207.372 241.62" stroke="white" stroke-width="1.2" stroke-miterlimit="10" stroke-linecap="round" stroke-linejoin="round"/>
<path d="M208.964 236.969C221.114 239.106 253.962 228.296 267.202 223.184" stroke="white" stroke-width="1.2" stroke-miterlimit="10" stroke-linecap="round" stroke-linejoin="round"/>
<path d="M260.415 241.41H257.733C256.225 241.41 255.052 240.195 255.052 238.729V227.668C255.052 226.159 256.267 224.986 257.733 224.986H260.415V241.41Z" fill="black"/>
<path d="M314.925 249.79H270.931C268.669 249.79 266.867 247.946 266.867 245.726V160.672C266.867 158.409 268.711 156.608 270.931 156.608H314.925C317.187 156.608 318.989 158.451 318.989 160.672V245.684C318.989 247.946 317.187 249.79 314.925 249.79Z" fill="black" stroke="black" stroke-width="1.2" stroke-miterlimit="10" stroke-linecap="round" stroke-linejoin="round"/>
<path d="M316.936 142.32H268.92C267.789 142.32 266.826 141.398 266.826 140.225V136.203C266.826 135.072 267.747 134.108 268.92 134.108H316.894C318.026 134.108 318.989 135.03 318.989 136.203V140.225C318.989 141.398 318.067 142.32 316.936 142.32Z" fill="black" stroke="black" stroke-width="1.2" stroke-miterlimit="10" stroke-linecap="round" stroke-linejoin="round"/>
<path d="M309.017 249.79H265.024C262.761 249.79 260.96 247.946 260.96 245.726V160.672C260.96 158.409 262.803 156.608 265.024 156.608H309.017C311.28 156.608 313.081 158.451 313.081 160.672V245.684C313.081 247.946 311.28 249.79 309.017 249.79Z" fill="white" stroke="black" stroke-width="1.2" stroke-miterlimit="10" stroke-linecap="round" stroke-linejoin="round"/>
<path d="M311.028 142.32H263.013C261.881 142.32 260.918 141.399 260.918 140.225V136.203C260.918 135.072 261.839 134.108 263.013 134.108H310.986C312.118 134.108 313.081 135.03 313.081 136.203V140.225C313.081 141.399 312.16 142.32 311.028 142.32Z" fill="white" stroke="black" stroke-width="1.2" stroke-miterlimit="10" stroke-linecap="round" stroke-linejoin="round"/>
<path d="M290.037 142.32H284.004V156.607H290.037V142.32Z" fill="white" stroke="black" stroke-width="1.2" stroke-miterlimit="10" stroke-linecap="round" stroke-linejoin="round"/>
<path d="M294.353 162.641H279.772C277.929 162.641 276.253 161.426 275.708 159.666L274.702 156.608H299.423L298.417 159.666C297.872 161.468 296.196 162.641 294.353 162.641Z" fill="black" stroke="black" stroke-width="1.2" stroke-miterlimit="10" stroke-linecap="round" stroke-linejoin="round"/>
<path d="M335.79 126.524C326.992 128.619 318.57 133.061 310.819 134.15C309.436 134.36 296.029 134.234 299.381 143.661C299.548 144.164 299.842 144.876 300.931 145.588L298.333 146.259L277.384 130.589L274.954 128.494C267.496 133.689 259.828 136.245 257.273 133.605C256.602 132.935 256.728 131.804 257.482 131.217C272.314 119.779 281.029 114.835 289.074 111.609C294.562 109.388 306.336 107.88 326.782 104.276L336.796 118.061L335.79 126.524Z" fill="#B880FF"/>
<path d="M257.231 133.564C259.242 135.617 264.354 134.527 270.094 131.469C267.622 131.846 258.697 133.019 257.44 131.175C256.686 131.762 256.56 132.851 257.231 133.564Z" fill="white"/>
<path d="M274.912 128.452L279.563 126.608C279.269 125.1 279.018 123.55 278.725 122.041C276.504 122.963 273.822 129.164 268.669 132.139C270.68 131.175 272.817 129.918 274.912 128.452Z" fill="black"/>
<path d="M282.035 118.773C281.7 118.983 274.661 124.765 274.074 132.265C273.571 138.675 277.174 150.616 285.47 146.51" fill="#B880FF"/>
<path d="M287.021 122.335C285.386 123.55 282.202 127.488 281.239 130.17C279.269 135.575 284.297 149.233 290.582 150.03C292.677 150.281 294.604 149.485 295.065 148.186" fill="#B880FF"/>
<path d="M292.928 127.069C291.168 128.536 289.451 131.678 289.409 136.035C289.367 143.41 294.395 149.443 299.129 149.443C305.707 149.443 307.383 143.703 304.702 142.949C302.942 142.614 299.548 143.535 299.339 143.619" fill="#B880FF"/>
<path d="M287.021 116.385C289.157 117.558 291.629 118.773 294.437 119.904C296.951 120.91 299.339 121.706 301.518 122.293" stroke="black" stroke-width="1.2" stroke-miterlimit="10" stroke-linecap="round" stroke-linejoin="round"/>
<path d="M275.54 128.619C275.54 128.117 274.828 127.991 274.661 128.452C274.242 129.583 273.99 130.798 273.906 132.055C273.404 138.465 277.007 150.407 285.303 146.301L284.968 143.619C284.507 143.661 284.465 144.08 284.004 144.122C281.825 144.708 275.247 140.686 275.54 128.619Z" fill="white"/>
<path d="M282.077 135.072C281.867 134.318 280.82 133.605 281.322 136.664C282.328 142.488 285.889 149.317 290.414 149.862C292.509 150.113 294.437 149.317 294.898 148.019C294.898 148.019 294.772 147.935 294.646 147.767C288.906 151.622 283.208 139.22 282.077 135.072Z" fill="white"/>
<path d="M282.035 118.773C281.7 118.983 274.661 124.765 274.074 132.265C273.571 138.675 277.174 150.616 285.47 146.51" stroke="black" stroke-width="1.2" stroke-miterlimit="10" stroke-linecap="round" stroke-linejoin="round"/>
<path d="M287.44 122.712C284.968 123.927 282.747 127.321 281.616 130.756C279.814 136.245 284.297 149.233 290.582 149.988C292.677 150.239 294.604 149.443 295.065 148.144" stroke="black" stroke-width="1.2" stroke-miterlimit="10" stroke-linecap="round" stroke-linejoin="round"/>
<path d="M342.201 101.553C338.346 102.181 333.695 102.977 326.698 104.192C306.252 107.796 293.515 109.891 288.026 112.111C280.023 115.337 272.272 119.737 257.44 131.133C256.686 131.72 256.56 132.851 257.231 133.521C259.786 136.161 267.454 133.605 274.912 128.41" stroke="black" stroke-width="1.2" stroke-miterlimit="10" stroke-linecap="round" stroke-linejoin="round"/>
<path d="M300.931 145.588C299.842 144.876 299.506 144.164 299.381 143.661C298.333 139.68 297.83 135.616 309.52 134.317C316.643 133.563 325.232 128.996 333.989 126.901C339.896 125.519 345.427 124.555 350.539 123.927" stroke="black" stroke-width="1.2" stroke-miterlimit="10" stroke-linecap="round" stroke-linejoin="round"/>
<path d="M305.666 143.661C305.037 145.253 303.068 147.39 300.554 147.348C294.856 147.306 292.342 142.32 291.462 141.398C291.085 141.021 290.624 141.021 290.205 141.063C291.797 145.965 295.568 149.443 299.171 149.443C304.702 149.485 306.755 145.379 305.666 143.661Z" fill="white"/>
<path d="M294.227 127.74C292.216 129.038 289.409 131.678 289.409 136.035C289.367 143.41 294.395 149.443 299.129 149.443C305.707 149.443 307.383 143.703 304.702 142.949C302.858 142.613 299.548 143.535 299.339 143.619" stroke="black" stroke-width="1.2" stroke-miterlimit="10" stroke-linecap="round" stroke-linejoin="round"/>
<path d="M325.4 104.444C327.453 106.664 330.176 110.1 332.397 114.877C334.534 119.444 335.413 123.591 335.79 126.524C340.986 125.728 346.181 124.89 351.377 124.094C351.209 121.371 350.706 117.768 349.282 113.745C347.271 108.089 344.338 104.025 342.201 101.553C336.587 102.517 330.972 103.48 325.4 104.444Z" fill="black" stroke="black" stroke-width="1.2" stroke-miterlimit="10" stroke-linecap="round" stroke-linejoin="round"/>
<path d="M305.959 180.951H293.473V183.548H305.959V180.951Z" fill="#B880FF"/>
<path d="M301.015 186.648H293.473V189.246H301.015V186.648Z" fill="#B880FF"/>
<path d="M278.808 195.95C284.871 195.95 289.786 191.036 289.786 184.973C289.786 178.91 284.871 173.995 278.808 173.995C272.746 173.995 267.831 178.91 267.831 184.973C267.831 191.036 272.746 195.95 278.808 195.95Z" fill="#B880FF" stroke="black" stroke-width="1.2" stroke-miterlimit="10"/>
<path d="M269.339 179.484C268.376 181.118 267.873 183.004 267.873 185.015C267.873 191.09 272.775 195.992 278.85 195.992C284.926 195.992 289.828 191.09 289.828 185.015C289.828 181.453 288.152 178.311 285.512 176.3" stroke="black" stroke-width="1.2" stroke-miterlimit="10" stroke-linecap="round" stroke-linejoin="round"/>
<path d="M278.808 196.201C282.663 196.201 286.015 194.232 287.984 191.257C286.392 190.503 283.92 189.749 279.521 190.084C275.834 190.336 272.817 191.928 271.015 192.975C272.985 194.945 275.75 196.201 278.808 196.201Z" fill="black"/>
<path d="M277.091 186.356C276.881 188.032 276.253 189.666 275.834 190.923C275.457 192.263 281.658 193.017 284.255 191.006C283.753 188.241 282.831 183.129 282.915 180.364" fill="#B880FF"/>
<path d="M277.091 186.356C276.881 188.032 276.253 189.666 275.834 190.923C275.457 192.263 281.658 193.017 284.255 191.006C283.753 188.241 282.831 183.129 282.915 180.364" stroke="black" stroke-width="1.2" stroke-miterlimit="10" stroke-linecap="round" stroke-linejoin="round"/>
<path d="M274.619 174.624C272.105 180.616 273.948 186.188 275.75 186.649C277.468 187.068 279.353 185.35 280.108 182.627L282.161 180.28L281.448 176.509L277.468 173.87L274.619 174.624Z" fill="#B880FF"/>
<path d="M276.043 174.75L274.577 174.624C272.105 180.49 273.781 188.115 277.258 186.481C276.043 186.356 274.577 183.716 274.828 180.28C274.954 178.479 275.666 175.965 276.043 174.75Z" fill="white"/>
<path d="M274.619 174.624C272.105 180.616 273.948 186.188 275.75 186.649C277.468 187.068 279.353 185.35 280.108 182.627" stroke="black" stroke-width="1.2" stroke-miterlimit="10" stroke-linecap="round" stroke-linejoin="round"/>
<path d="M275.038 177.934L274.702 179.401C274.2 179.526 271.644 179.694 271.644 180.574C271.644 181.286 274.325 181.37 274.912 181.37" fill="#B880FF"/>
<path d="M275.038 177.934L274.702 179.401C274.2 179.526 271.644 179.694 271.644 180.574C271.644 181.286 274.325 181.37 274.912 181.37" stroke="black" stroke-width="1.2" stroke-miterlimit="10" stroke-linecap="round" stroke-linejoin="round"/>
<path d="M274.618 174.624C274.912 174.708 275.373 174.792 275.875 174.959C276.085 175.043 277.049 175.336 277.551 175.588C277.928 175.797 278.892 176.384 279.604 178.144C279.688 178.06 280.275 177.557 280.861 177.683C281.532 177.85 282.034 178.856 281.699 179.987C281.699 180.071 281.867 180.532 282.328 180.741C282.747 180.951 282.956 180.867 283.04 180.825C283.208 180.071 283.836 177.557 283.04 175.546C282.286 173.744 280.023 171.649 277.635 172.152C275.792 172.571 274.954 173.828 274.618 174.624Z" fill="black" stroke="black" stroke-width="1.2" stroke-miterlimit="10" stroke-linecap="round" stroke-linejoin="round"/>
<path d="M285.177 203.199H267.831V220.545H285.177V203.199Z" fill="#B880FF" stroke="#B880FF" stroke-width="1.2" stroke-miterlimit="10" stroke-linecap="round" stroke-linejoin="round"/>
<path d="M306.252 203.199H288.906V220.545H306.252V203.199Z" fill="#B880FF" stroke="#B880FF" stroke-width="1.2" stroke-miterlimit="10" stroke-linecap="round" stroke-linejoin="round"/>
<path d="M285.177 224.274H267.831V241.62H285.177V224.274Z" fill="#B880FF" stroke="#B880FF" stroke-width="1.2" stroke-miterlimit="10" stroke-linecap="round" stroke-linejoin="round"/>
<path d="M306.252 224.274H288.906V241.62H306.252V224.274Z" fill="#B880FF" stroke="#B880FF" stroke-width="1.2" stroke-miterlimit="10" stroke-linecap="round" stroke-linejoin="round"/>
<path d="M279.73 214.595L273.781 208.562L267.077 215.307" stroke="white" stroke-width="1.2" stroke-miterlimit="10" stroke-linecap="round" stroke-linejoin="round"/>
<path d="M286.225 215.601L280.862 210.196L278.138 212.961" stroke="white" stroke-width="1.2" stroke-miterlimit="10" stroke-linecap="round" stroke-linejoin="round"/>
<path d="M300.805 214.595L294.855 208.562L288.152 215.307" stroke="white" stroke-width="1.2" stroke-miterlimit="10" stroke-linecap="round" stroke-linejoin="round"/>
<path d="M307.383 215.726L301.936 210.196L299.171 212.961" stroke="white" stroke-width="1.2" stroke-miterlimit="10" stroke-linecap="round" stroke-linejoin="round"/>
<path d="M279.73 235.628L273.781 229.637L267.035 236.424" stroke="white" stroke-width="1.2" stroke-miterlimit="10" stroke-linecap="round" stroke-linejoin="round"/>
<path d="M286.225 236.675L280.862 231.271L278.138 233.994" stroke="white" stroke-width="1.2" stroke-miterlimit="10" stroke-linecap="round" stroke-linejoin="round"/>
<path d="M300.805 235.628L294.855 229.637L288.152 236.382" stroke="white" stroke-width="1.2" stroke-miterlimit="10" stroke-linecap="round" stroke-linejoin="round"/>
<path d="M307.216 236.634L301.936 231.271L299.171 233.994" stroke="white" stroke-width="1.2" stroke-miterlimit="10" stroke-linecap="round" stroke-linejoin="round"/>
<path d="M249.647 115.798L241.477 106.79" stroke="white" stroke-width="1.2" stroke-miterlimit="10" stroke-linecap="round" stroke-linejoin="round"/>
<path d="M231.589 118.061L246.17 121.79" stroke="white" stroke-width="1.2" stroke-miterlimit="10" stroke-linecap="round" stroke-linejoin="round"/>
<path d="M217.888 114.583L223.796 116.092" stroke="white" stroke-width="1.2" stroke-miterlimit="10" stroke-linecap="round" stroke-linejoin="round"/>
<path d="M317.941 213.129H318.989V200.433H317.941C316.978 200.433 316.182 201.23 316.182 202.193V211.327C316.182 212.333 316.978 213.129 317.941 213.129Z" stroke="#B880FF" stroke-width="1.2" stroke-miterlimit="10" stroke-linecap="round" stroke-linejoin="round"/>
<path d="M317.941 187.696H318.989V171.482H317.941C316.978 171.482 316.182 172.278 316.182 173.241V185.895C316.182 186.9 316.978 187.696 317.941 187.696Z" stroke="#B880FF" stroke-width="1.2" stroke-miterlimit="10" stroke-linecap="round" stroke-linejoin="round"/>
<path d="M196.184 247.695C196.184 247.695 194.592 247.904 193.629 246.941C192.455 245.684 192.623 243.966 193.629 242.96C194.634 241.955 196.184 241.829 197.358 241.829C198.824 241.829 200.626 242.206 201.673 242.499C201.799 242.541 201.883 242.667 201.925 242.793C202.092 243.924 202.218 245.726 202.05 247.234C201.925 248.407 201.589 249.957 200.5 250.837C199.369 251.717 197.693 251.717 196.603 250.335C195.807 249.287 196.184 247.695 196.184 247.695Z" stroke="white" stroke-width="1.2" stroke-miterlimit="10" stroke-linecap="round" stroke-linejoin="round"/>
<path d="M222.162 239.148L219.606 239.19L220.067 239.818L217.427 241.704C216.547 242.332 216.338 243.547 216.966 244.469L218.517 246.648L219.564 245.893L218.014 243.715C217.804 243.421 217.888 243.002 218.181 242.793L220.821 240.907L221.282 241.536L222.162 239.148Z" fill="white"/>
<path d="M219.564 248.156L222.12 248.114L221.659 247.485L224.298 245.6C225.178 244.972 225.388 243.757 224.759 242.835L223.209 240.656L222.162 241.41L223.712 243.589C223.921 243.882 223.838 244.301 223.544 244.511L220.905 246.396L220.444 245.768L219.564 248.156Z" fill="white"/>
<path d="M241.98 235.419C241.98 235.419 242.44 234.539 243.32 234.287C244.41 233.994 245.29 234.539 245.457 235.293C245.625 236.047 245.122 236.927 244.703 237.514C244.158 238.268 243.32 239.106 242.776 239.567C242.692 239.609 242.608 239.65 242.524 239.609C241.854 239.399 240.806 239.022 240.094 238.519C239.508 238.142 238.795 237.597 238.712 236.801C238.628 236.005 239.298 235.125 240.387 234.916C241.267 234.79 241.98 235.419 241.98 235.419Z" fill="white"/>
<path d="M195.137 226.578C197.525 224.818 202.218 224.483 201.883 227.835C201.506 231.857 197.274 234.58 195.598 236.466C193.587 238.728 191.324 241.159 189.523 239.902C188.098 238.938 186.967 235.67 190.277 231.312C191.324 229.93 192.749 228.338 195.137 226.578Z" fill="white"/>
<path d="M200.458 219.162L213.195 233.575L227.944 217.025C231.044 213.548 230.458 208.227 226.729 205.461L217.679 198.841L200.458 219.162Z" fill="black" stroke="black" stroke-width="1.2" stroke-miterlimit="10" stroke-linecap="round" stroke-linejoin="round"/>
<path d="M206.156 202.026L213.908 207.556L220.863 201.188L212.022 194.861C211.478 196.034 210.598 197.584 209.257 199.135C208.168 200.433 207.078 201.355 206.156 202.026Z" fill="black" stroke="black" stroke-width="1.2" stroke-miterlimit="10" stroke-linecap="round" stroke-linejoin="round"/>
<path d="M212.944 171.398L166.73 125.142C185.375 94.0111 181.311 53.0344 154.496 26.1774C122.82 -5.49783 71.4527 -5.53973 39.7774 26.1355C8.10214 57.8108 8.06024 109.136 39.7355 140.854C66.5506 167.711 107.527 171.817 138.7 153.214L184.914 199.47C192.665 207.221 205.235 207.221 212.986 199.47C220.695 191.718 220.695 179.149 212.944 171.398ZM70.07 110.561C55.1542 95.6033 55.1542 71.4278 70.1119 56.4701C85.0697 41.5542 109.245 41.5542 124.203 56.512C139.161 71.4697 139.119 95.6452 124.161 110.603C109.203 125.561 84.9859 125.477 70.07 110.561Z" fill="#B880FF"/>
<path d="M161.995 98.1592C163.085 98.5363 170.417 101.637 172.763 84.7517C174.146 74.9055 172.847 64.8918 169.286 55.6322C166.06 47.2525 163.755 40.3812 151.772 29.2362C148.127 25.8424 140.92 22.9933 137.988 29.9065C134.468 38.2862 148.336 43.733 154.621 62.9226C158.853 75.7435 157.093 96.3995 161.995 98.1592Z" fill="white"/>
<path d="M133.42 127.488L126.968 124.388L127.303 126.566L118.295 127.949C115.278 128.41 113.183 131.259 113.686 134.276L114.859 141.734L118.505 141.147L117.331 133.689C117.164 132.684 117.876 131.72 118.882 131.552L127.89 130.17L128.225 132.348L133.42 127.488Z" fill="white"/>
<path d="M115.614 146.887L122.066 149.988L121.731 147.809L130.739 146.426C133.756 145.966 135.851 143.116 135.348 140.1L134.175 132.642L130.53 133.228L131.703 140.686C131.87 141.692 131.158 142.656 130.152 142.823L121.144 144.206L120.809 142.027L115.614 146.887Z" fill="white"/>
<path d="M107.821 19.6415L102.248 15.1583L102.08 17.3789L92.9884 16.6248C89.9298 16.3734 87.2483 18.6778 87.0389 21.7364L86.4523 29.2781L90.1393 29.5714L90.7259 22.0297C90.8097 21.0241 91.6896 20.228 92.737 20.3118L101.829 21.0241L101.661 23.2447L107.821 19.6415Z" fill="white"/>
<path d="M86.0332 34.4317L91.6057 38.9148L91.7733 36.6942L100.865 37.4065C103.924 37.6579 106.605 35.3534 106.815 32.2949L107.401 24.7531L103.714 24.4598L103.128 32.0016C103.044 33.0071 102.164 33.8032 101.117 33.7194L92.0247 33.0071L92.1923 30.7865L86.0332 34.4317Z" fill="white"/>
<path d="M204.941 187.026L204.229 180.364L202.679 181.705L197.106 175.253C195.221 173.074 191.953 172.822 189.774 174.708L184.411 179.317L186.674 181.914L192.037 177.306C192.749 176.677 193.88 176.761 194.509 177.473L200.081 183.926L198.531 185.266L204.941 187.026Z" fill="white"/>
<path d="M180.766 182.501L181.478 189.163L183.028 187.822L188.601 194.274C190.486 196.453 193.754 196.704 195.933 194.819L201.296 190.21L199.034 187.612L193.671 192.221C192.958 192.85 191.827 192.766 191.199 192.054L185.626 185.601L187.176 184.261L180.766 182.501Z" fill="white"/>
<path d="M88.5892 137.251C88.5892 137.251 88.7149 134.192 90.8517 132.767C93.5332 131.008 96.6756 131.888 98.184 134.108C99.6923 136.287 99.399 139.262 98.98 141.357C98.4773 144.038 97.1784 147.222 96.2566 149.108C96.1309 149.359 95.8795 149.485 95.6282 149.485C93.5332 149.443 90.0556 149.024 87.416 148.228C85.3211 147.599 82.5139 146.468 81.257 144.122C80 141.776 80.6285 138.633 83.4776 137.125C85.782 135.952 88.5892 137.251 88.5892 137.251Z" fill="white"/>
<path d="M158.769 51.4423C158.769 51.4423 159.356 48.4675 161.702 47.3781C164.635 46.0374 167.568 47.42 168.741 49.8502C169.914 52.2384 169.16 55.1294 168.406 57.1405C167.484 59.7382 165.724 62.6711 164.509 64.347C164.342 64.5565 164.09 64.6403 163.839 64.5984C161.744 64.2213 158.392 63.2996 155.878 62.0845C153.909 61.1209 151.311 59.6125 150.431 57.0986C149.551 54.5847 150.641 51.568 153.699 50.5205C156.213 49.7245 158.769 51.4423 158.769 51.4423Z" stroke="#B880FF" stroke-width="1.2" stroke-miterlimit="10" stroke-linecap="round" stroke-linejoin="round"/>
<path d="M175.989 164.359C175.989 164.359 176.953 167.627 175.152 169.89C172.931 172.739 169.328 172.864 166.897 171.105C164.509 169.345 163.797 166.119 163.462 163.73C163.043 160.672 163.252 156.859 163.588 154.597C163.629 154.303 163.839 154.094 164.132 153.968C166.395 153.256 170.166 152.46 173.266 152.376C175.696 152.292 179.09 152.502 181.227 154.513C183.406 156.566 183.866 160.085 181.352 162.725C179.425 164.778 175.989 164.359 175.989 164.359Z" stroke="white" stroke-width="1.2" stroke-miterlimit="10" stroke-linecap="round" stroke-linejoin="round"/>
<path d="M191.115 155.141C184.495 163.311 203.014 170.811 207.79 180.196C209.885 184.302 209.55 189.246 209.005 192.472C208.545 195.112 209.173 196.327 209.634 196.704C210.807 197.542 212.357 197.71 213.782 196.997C215.29 196.243 216.463 194.903 217.134 193.352C220.276 186.104 218.894 177.347 212.986 171.439C208.419 166.998 195.095 151.119 191.115 155.141Z" fill="white"/>
<path d="M159.104 132.642C155.166 128.117 153.909 124.513 154.454 120.282C155.292 113.704 160.906 108.299 164.467 110.645C165.599 111.399 166.521 112.656 165.557 117.139C164.677 121.12 162.373 123.55 167.987 129.625C173.559 135.7 176.576 138.214 179.425 141.692C181.311 144.038 179.677 146.133 178.252 146.007C170.878 145.421 162.54 136.622 159.104 132.642Z" fill="white"/>
<path d="M153.029 114.583C153.029 114.583 155.25 112.488 157.805 112.991C160.99 113.62 162.54 116.469 162.079 119.108C161.618 121.706 159.314 123.591 157.554 124.848C155.291 126.399 152.149 127.781 150.18 128.452C149.928 128.536 149.677 128.452 149.468 128.284C148.001 126.776 145.822 124.052 144.482 121.622C143.434 119.695 142.219 116.93 142.973 114.374C143.727 111.818 146.367 110.016 149.468 110.938C151.981 111.692 153.029 114.583 153.029 114.583Z" stroke="white" stroke-width="1.2" stroke-miterlimit="10" stroke-linecap="round" stroke-linejoin="round"/>
<mask id="mask0" mask-type="alpha" maskUnits="userSpaceOnUse" x="154" y="110" width="27" height="37">
<path d="M159.104 132.642C155.166 128.117 153.909 124.513 154.454 120.282C155.292 113.704 160.906 108.299 164.467 110.645C165.599 111.399 166.521 112.656 165.557 117.139C164.677 121.12 162.373 123.55 167.987 129.625C173.559 135.7 176.576 138.214 179.425 141.692C181.311 144.038 179.677 146.133 178.252 146.007C170.878 145.421 162.54 136.622 159.104 132.642Z" fill="white"/>
</mask>
<g mask="url(#mask0)">
<path d="M153.029 114.583C153.029 114.583 155.25 112.488 157.805 112.991C160.99 113.62 162.54 116.469 162.079 119.108C161.618 121.706 159.314 123.591 157.554 124.848C155.291 126.399 152.149 127.781 150.18 128.452C149.928 128.536 149.677 128.452 149.468 128.284C148.001 126.776 145.822 124.052 144.482 121.622C143.434 119.695 142.219 116.93 142.973 114.374C143.727 111.818 146.367 110.016 149.468 110.938C151.981 111.692 153.029 114.583 153.029 114.583Z" stroke="#B880FF" stroke-width="1.2" stroke-miterlimit="10" stroke-linecap="round" stroke-linejoin="round"/>
</g>
<path d="M123.449 24.3759C125.166 26.0937 127.722 26.3032 129.65 25.6747C131.745 25.0043 133.546 23.1608 133.881 20.7307C134.3 17.7978 132.331 14.6973 129.356 13.985C126.759 13.3566 124.203 14.7392 122.904 16.7084C121.438 18.971 121.396 22.3228 123.449 24.3759Z" fill="white"/>
<path d="M55.1541 146.803C50.2938 143.2 46.1459 139.513 46.2716 136.622C46.3973 133.898 48.9112 131.217 51.5089 130.547C53.8552 129.918 57.6261 133.563 62.9053 137.334C67.4722 140.602 73.7989 143.703 74.2179 146.803C74.6788 150.113 71.3688 152.669 67.137 152.334C64.0366 152.082 59.4277 149.946 55.1541 146.803Z" fill="black"/>
<path d="M33.9535 122.335C34.8333 123.508 37.5148 125.728 40.0706 125.728C43.2549 125.728 48.1152 122.377 44.7214 117.935C42.794 115.379 31.8166 105.491 34.2049 72.8944C35.4618 55.7579 41.5371 43.9844 49.1207 34.5992C50.1682 33.3003 49.2045 30.3255 47.361 29.8646C41.2438 28.2306 23.3112 49.4312 22.6409 76.1206C22.6828 76.1206 20.3364 104.528 33.9535 122.335Z" fill="black"/>
<path d="M134.887 111.902C134.217 110.896 131.703 110.352 129.524 111.525C123.49 114.709 120.977 120.198 122.024 121.371C124.496 123.969 136.94 115.002 134.887 111.902Z" fill="black"/>
<path d="M105.726 40.6744C102.96 39.6688 97.5973 39.5012 98.4353 35.5209C99.6922 29.5713 107.611 29.697 115.069 32.7137C132.834 39.9202 142.554 51.7775 146.116 70.7994C148.965 86.0505 143.225 104.234 139.789 105.868C138.616 106.413 137.359 105.785 136.982 105.072C135.725 102.894 143.56 84.0393 138.029 68.3274C133.923 56.5958 125.753 47.8809 105.726 40.6744Z" fill="black"/>
<path d="M191.24 196.285C192.12 197.542 194.131 199.512 197.86 201.355C200.416 202.612 203.768 202.193 204.145 200.182C204.48 198.464 200.123 196.663 196.268 193.604C193.126 191.048 189.481 193.73 191.24 196.285Z" fill="black"/>
<path d="M150.725 157.823C148.043 154.764 147.876 151.454 149.007 149.988C150.138 148.521 152.443 147.599 154.873 150.113C166.185 161.845 179.76 174.079 189.607 187.068C191.408 189.414 188.14 193.73 184.118 191.258C176.325 186.439 154.328 161.887 150.725 157.823Z" fill="black"/>
<path d="M212.944 171.398L166.73 125.142C185.375 94.0111 181.311 53.0344 154.496 26.1774C122.82 -5.49783 71.4527 -5.53973 39.7774 26.1355C8.10214 57.8108 8.06024 109.136 39.7355 140.854C66.5506 167.711 107.527 171.817 138.7 153.214L184.914 199.47C192.665 207.221 205.235 207.221 212.986 199.47C220.695 191.718 220.695 179.149 212.944 171.398ZM70.07 110.561C55.1542 95.6033 55.1542 71.4278 70.1119 56.4701C85.0697 41.5542 109.245 41.5542 124.203 56.512C139.161 71.4697 139.119 95.6452 124.161 110.603C109.203 125.561 84.9859 125.477 70.07 110.561Z" stroke="black" stroke-width="1.2" stroke-miterlimit="10" stroke-linecap="round" stroke-linejoin="round"/>
</svg>
