<svg width="47" height="32" viewBox="0 0 47 32" fill="none" xmlns="http://www.w3.org/2000/svg">
<path fill-rule="evenodd" clip-rule="evenodd" d="M21.3242 0.29545C18.3781 0.862793 15.5311 2.29255 13.3018 4.32455C9.68763 7.61875 8.01517 11.3355 8.00861 16.0872L8.00553 18.3951L7.30732 18.5218C6.46135 18.6751 4.98366 18.3806 4.56396 17.9753C4.04923 17.4779 4.43035 16.7168 5.64965 15.8068C6.69737 15.0251 6.77269 14.9127 6.7733 14.1262C6.77371 13.6626 6.72343 13.2834 6.66124 13.2834C6.1223 13.2834 3.28371 15.1328 1.76744 16.4717C-0.120305 18.1387 -0.460994 19.2129 0.578722 20.2175C1.45056 21.0599 2.96375 21.2887 6.77412 21.1545C10.4495 21.0248 13.4009 20.4891 17.1992 19.2621C24.9572 16.7557 29.197 13.0108 29.1869 8.67292C29.1853 7.93663 29.2349 7.33438 29.2975 7.33438C29.3601 7.33438 29.8467 7.77322 30.3789 8.30943C32.8261 10.7757 37.5929 11.8495 41.095 10.7236C42.4262 10.2954 44.5585 9.11057 45.5367 8.2553C46.247 7.63441 47 6.41981 47 5.8951C47 5.23912 46.4701 4.60297 45.6009 4.21549C44.9879 3.94203 44.1988 3.87699 41.4246 3.87124C39.5434 3.86727 37.9383 3.92775 37.8576 4.00568C37.777 4.08342 37.9765 4.44036 38.301 4.79889C38.8405 5.39479 38.9965 5.4519 40.1255 5.46757C41.54 5.4872 42.2796 5.78941 42.2796 6.34803C42.2796 6.81681 41.3908 7.67031 40.2665 8.28088L39.4404 8.72944L38.6757 7.51305C35.2169 2.01156 28.0009 -0.990142 21.3242 0.29545ZM39.2865 12.9081C37.6304 14.0189 37.2288 14.3945 36.3167 15.6849C35.1594 17.3227 34.6133 19.035 34.7586 20.571C34.8231 21.2528 34.8046 21.8104 34.7178 21.8104C34.6307 21.8104 34.2704 21.4136 33.9165 20.9288C33.196 19.941 31.6912 19.0172 29.9656 18.5032C28.1694 17.9681 24.4887 18.0177 22.7434 18.6003C18.9269 19.8744 16.5751 22.4898 16.5578 25.479C16.548 27.209 17.1144 28.5561 18.3304 29.6949C19.7847 31.0567 21.0759 31.604 23.5381 31.9028C28.0288 32.4476 33.1321 30.669 36.4551 27.401C39.5424 24.365 41.2487 20.442 41.252 16.3734C41.2534 14.5327 40.9109 12.0936 40.6507 12.0936C40.5682 12.0936 39.9541 12.4601 39.2865 12.9081Z" fill="white"/>
</svg>
