<svg width="601" height="643" viewBox="0 0 601 643" fill="none" xmlns="http://www.w3.org/2000/svg">
<g filter="url(#filter0_d_1071_10)">
<path fill-rule="evenodd" clip-rule="evenodd" d="M61.1036 79.9046C60.657 80.991 61.6966 89.7319 63.4153 99.3287C65.1341 108.926 70.1539 137.576 74.5692 162.994C90.3724 253.957 102.388 320.54 104.546 329.104C106.741 337.814 110.513 347.833 115.388 357.906C123.998 375.689 132.639 397.358 132.639 401.162C132.639 402.223 130.01 405.334 126.796 408.075C121.292 412.767 120.668 414.102 116.06 431.027C110.212 452.505 110.001 459.072 114.709 472.827C119.054 485.522 119.124 489.942 115.28 509.08L112.281 524.015L119.723 540.76C123.817 549.97 128.693 561.941 130.557 567.362C134.979 580.217 137.294 583.341 143.037 584.21C148.156 584.985 171.472 586.238 257.56 590.368C306.962 592.739 348.891 594.977 396.121 597.764C416.298 598.955 415.059 598.264 416.214 608.99C417.533 621.242 418.81 622.689 428.512 622.942C436.27 623.144 436.346 623.107 439.169 617.787C441.561 613.281 442.018 609.638 442.041 594.891C442.081 570.049 442.748 569.607 468.087 577.685C480.888 581.765 485.928 582.629 502.771 583.627C520.398 584.672 522.727 584.557 524.824 582.537C528.645 578.86 541.126 543.117 546.887 519.358C552.373 496.729 553.444 493.948 565.984 469.762C576.342 449.787 578.973 442.932 580.051 433.111L581 424.469L566.097 424.008C553.703 423.623 549.988 422.982 544.016 420.197L536.837 416.848L533.625 400.103C531.859 390.893 529.846 382.152 529.152 380.679C528.46 379.205 527.673 377.397 527.405 376.66C526.75 374.864 517.394 367.815 512.065 365.102C508.536 363.307 507.595 361.77 506.735 356.395C506.161 352.804 503.459 343.84 500.729 336.472C497.985 329.061 496.062 321.58 496.429 319.727C497.692 313.323 492.679 308.505 475.38 299.503C470.798 297.119 465.452 293.396 463.5 291.233C459.063 286.312 439.167 255.116 439.598 253.752C439.773 253.199 439.424 252.897 438.824 253.082C436.478 253.802 421.377 236.73 419.932 231.725C418.841 227.947 415.896 224.466 408.799 218.569C379.449 194.18 379.839 194.678 361.307 157.636C354.616 144.26 352.467 142.201 343.158 140.256C339.165 139.42 333.657 136.882 330.258 134.311C326.997 131.842 320.745 127.703 316.369 125.111C306.206 119.094 304.349 116.927 304.521 111.267C304.714 104.923 307.909 100.916 317.193 95.3756C325.125 90.6428 328.447 85.9917 327.623 80.7767C327.202 78.1109 326.191 78.0894 194.558 78.0104C78.95 77.9407 61.8114 78.1832 61.1036 79.9046Z" fill="url(#paint0_radial_1071_10)"/>
<path d="M194.558 79.0107C260.382 79.0503 293.528 79.0747 310.274 79.4229C318.671 79.5974 322.872 79.8536 324.996 80.2168C326.082 80.4026 326.452 80.5924 326.565 80.6816C326.572 80.6853 326.583 80.6631 326.606 80.7715L326.636 80.9326C327.334 85.3521 324.718 89.5531 317.403 94.0781L316.681 94.5166C312.01 97.3039 308.764 99.7654 306.666 102.396C304.534 105.07 303.624 107.872 303.521 111.236C303.431 114.217 303.881 116.451 305.81 118.705C307.418 120.584 310.032 122.445 314.05 124.887L315.859 125.971C319.939 128.387 325.66 132.158 329.016 134.632L329.654 135.108C333.056 137.681 338.459 140.205 342.561 141.148L342.953 141.234V141.235C347.563 142.199 350.195 143.153 352.522 145.382C354.615 147.386 356.514 150.466 359.207 155.703L360.413 158.083C369.658 176.564 374.243 185.81 380.207 193.462C385.431 200.164 391.705 205.633 403 215.047L408.159 219.338C415.038 225.053 417.8 228.339 418.873 231.679L418.972 232.003C419.188 232.751 419.633 233.651 420.201 234.616C420.778 235.596 421.513 236.698 422.353 237.86C424.031 240.186 426.15 242.792 428.291 245.213C430.43 247.632 432.612 249.886 434.42 251.499C435.32 252.302 436.155 252.97 436.861 253.42C437.213 253.644 437.565 253.834 437.901 253.956C438.096 254.026 438.347 254.096 438.622 254.103C438.63 254.141 438.638 254.178 438.646 254.211C438.688 254.373 438.75 254.548 438.819 254.719C438.959 255.065 439.17 255.504 439.431 256.01C439.955 257.027 440.725 258.396 441.665 259.998C443.548 263.206 446.14 267.398 448.881 271.696C451.622 275.995 454.517 280.407 457.007 284.056C459.326 287.454 461.329 290.244 462.528 291.642L462.757 291.902H462.758C463.814 293.073 465.717 294.597 467.883 296.105C469.793 297.436 471.96 298.789 474.035 299.92L474.918 300.391C483.57 304.893 489.03 308.291 492.173 311.311C493.732 312.809 494.676 314.172 495.17 315.483C495.628 316.699 495.722 317.927 495.497 319.265L495.447 319.533C495.317 320.192 495.402 321.17 495.572 322.24C495.75 323.359 496.051 324.732 496.444 326.264C497.133 328.946 498.121 332.158 499.283 335.42L499.791 336.819C502.347 343.719 504.856 351.961 505.619 355.837L505.748 356.553C506.179 359.247 506.65 361.15 507.546 362.613C508.355 363.934 509.457 364.818 510.948 365.643L511.611 365.993C514.202 367.312 517.82 369.714 520.886 372.023C522.414 373.175 523.786 374.289 524.809 375.218C525.321 375.683 525.732 376.09 526.028 376.423C526.176 376.589 526.287 376.728 526.364 376.838L526.465 377.002C526.678 377.588 527.184 378.771 527.716 379.949L528.247 381.104V381.104C528.375 381.377 528.611 382.109 528.93 383.299C529.239 384.454 529.608 385.96 530.012 387.714C530.617 390.344 531.299 393.519 531.974 396.881L532.643 400.291L535.854 417.036L535.951 417.538L536.414 417.754L543.594 421.104C549.369 423.797 553.141 424.532 563.833 424.932L566.066 425.008L579.887 425.435L579.057 433.001C578.066 442.02 575.764 448.482 566.947 465.709L565.096 469.302C558.832 481.384 555.402 488.176 552.857 494.784C550.628 500.573 549.083 506.207 546.896 515.101L545.915 519.122C543.044 530.962 538.494 545.805 534.184 558.148C532.029 564.32 529.938 569.852 528.152 574.064C527.259 576.172 526.448 577.936 525.747 579.278C525.116 580.488 524.617 581.269 524.271 581.669L524.131 581.816C523.685 582.246 523.265 582.543 522.64 582.764C521.983 582.995 521.055 583.159 519.571 583.232C516.963 583.361 512.866 583.204 505.964 582.812L502.83 582.629C487.099 581.697 481.761 580.889 470.688 577.455L468.391 576.732C462.074 574.719 457.22 573.211 453.524 572.491C449.876 571.781 447.054 571.768 445.025 573.108C442.968 574.467 442.044 576.998 441.573 580.451C441.158 583.504 441.069 587.53 441.047 592.635L441.041 594.889V594.89C441.019 609.216 440.572 612.843 438.492 616.922L438.285 617.318C437.569 618.667 437.067 619.605 436.585 620.291C436.121 620.952 435.724 621.308 435.256 621.535C434.764 621.773 434.096 621.916 433.002 621.972C432.181 622.014 431.179 622.005 429.905 621.977L428.538 621.942C426.118 621.879 424.311 621.742 422.917 621.406C421.551 621.077 420.646 620.571 419.97 619.805C419.275 619.016 418.738 617.858 418.299 616.065C417.914 614.498 417.619 612.518 417.331 609.997L417.208 608.883C416.927 606.273 416.778 604.188 416.396 602.639C415.99 600.999 415.28 599.762 413.789 598.929C412.409 598.158 410.444 597.787 407.709 597.518C406.326 597.381 404.7 597.267 402.791 597.15L396.181 596.766C354.851 594.326 317.58 592.309 275.81 590.254L257.607 589.369C214.564 587.304 187.216 585.959 169.989 585.032C153.81 584.162 146.606 583.664 143.71 583.294L143.187 583.222C141.828 583.016 140.732 582.686 139.776 582.147C138.825 581.612 137.961 580.841 137.105 579.686C135.47 577.477 133.924 573.954 131.911 568.215L131.502 567.037C129.742 561.917 125.335 551.048 121.414 542.113L120.637 540.354L113.323 523.9L116.261 509.277C118.181 499.717 119.148 493.728 119.065 488.521C118.988 483.606 117.976 479.435 116.052 473.677L115.655 472.503C113.321 465.683 112.236 460.732 112.426 454.855C112.605 449.309 113.92 442.889 116.493 433.26L117.025 431.29C119.339 422.792 120.623 418.327 121.998 415.388C123.161 412.901 124.381 411.521 126.486 409.665L127.445 408.836C129.087 407.435 130.588 405.934 131.687 404.634C132.234 403.986 132.698 403.369 133.03 402.827C133.196 402.557 133.34 402.287 133.445 402.029C133.545 401.784 133.639 401.48 133.639 401.162C133.639 400.55 133.474 399.689 133.22 398.693C132.959 397.671 132.58 396.418 132.104 394.984C131.15 392.115 129.793 388.473 128.171 384.405C125.129 376.777 121.14 367.613 117.098 359.152L116.288 357.47C111.739 348.071 108.163 338.735 105.941 330.493L105.516 328.86C103.504 320.876 92.8257 261.908 78.4727 179.59L75.5547 162.823C72.2432 143.759 68.5913 122.876 66.2471 109.576L64.3994 99.1523C63.5428 94.3691 62.8566 89.804 62.4404 86.3066C62.2322 84.5564 62.0931 83.0852 62.0332 81.9932C62.0032 81.4459 61.9942 81.0091 62.0039 80.6875C62.007 80.585 62.0115 80.5043 62.0166 80.4424C62.124 80.4028 62.2852 80.3542 62.5186 80.3018C63.2064 80.1472 64.3259 80.0012 66.0723 79.8701C69.5512 79.609 75.3453 79.4197 84.7578 79.2861C101.221 79.0526 128.68 78.9896 174.014 79.001L194.558 79.0107Z" stroke="#CFC9FF" stroke-opacity="0.6" stroke-width="2"/>
</g>
<path d="M248 309.545C248 321.636 232 332 232 332C232 332 216 321.636 216 309.545C216 305.423 217.686 301.468 220.686 298.553C223.687 295.638 227.757 294 232 294C236.243 294 240.313 295.638 243.314 298.553C246.314 301.468 248 305.423 248 309.545Z" stroke="white" stroke-opacity="0.4" stroke-width="2" stroke-linecap="round" stroke-linejoin="round"/>
<path d="M232 314.727C234.946 314.727 237.333 312.407 237.333 309.545C237.333 306.684 234.946 304.364 232 304.364C229.054 304.364 226.667 306.684 226.667 309.545C226.667 312.407 229.054 314.727 232 314.727Z" stroke="white" stroke-opacity="0.4" stroke-width="2" stroke-linecap="round" stroke-linejoin="round"/>
<path d="M340 388.545C340 400.636 324 411 324 411C324 411 308 400.636 308 388.545C308 384.423 309.686 380.468 312.686 377.553C315.687 374.638 319.757 373 324 373C328.243 373 332.313 374.638 335.314 377.553C338.314 380.468 340 384.423 340 388.545Z" stroke="white" stroke-opacity="0.4" stroke-width="2" stroke-linecap="round" stroke-linejoin="round"/>
<path d="M324 393.727C326.946 393.727 329.333 391.407 329.333 388.545C329.333 385.684 326.946 383.364 324 383.364C321.054 383.364 318.667 385.684 318.667 388.545C318.667 391.407 321.054 393.727 324 393.727Z" stroke="white" stroke-opacity="0.4" stroke-width="2" stroke-linecap="round" stroke-linejoin="round"/>
<path d="M458 434.545C458 446.636 442 457 442 457C442 457 426 446.636 426 434.545C426 430.423 427.686 426.468 430.686 423.553C433.687 420.638 437.757 419 442 419C446.243 419 450.313 420.638 453.314 423.553C456.314 426.468 458 430.423 458 434.545Z" stroke="white" stroke-opacity="0.4" stroke-width="2" stroke-linecap="round" stroke-linejoin="round"/>
<path d="M442 439.727C444.946 439.727 447.333 437.407 447.333 434.545C447.333 431.684 444.946 429.364 442 429.364C439.054 429.364 436.667 431.684 436.667 434.545C436.667 437.407 439.054 439.727 442 439.727Z" stroke="white" stroke-opacity="0.4" stroke-width="2" stroke-linecap="round" stroke-linejoin="round"/>
<path d="M324 513.545C324 525.636 308 536 308 536C308 536 292 525.636 292 513.545C292 509.423 293.686 505.468 296.686 502.553C299.687 499.638 303.757 498 308 498C312.243 498 316.313 499.638 319.314 502.553C322.314 505.468 324 509.423 324 513.545Z" stroke="white" stroke-opacity="0.4" stroke-width="2" stroke-linecap="round" stroke-linejoin="round"/>
<path d="M308 518.727C310.946 518.727 313.333 516.407 313.333 513.545C313.333 510.684 310.946 508.364 308 508.364C305.054 508.364 302.667 510.684 302.667 513.545C302.667 516.407 305.054 518.727 308 518.727Z" stroke="white" stroke-opacity="0.4" stroke-width="2" stroke-linecap="round" stroke-linejoin="round"/>
<rect width="426" height="306" fill="url(#paint1_radial_1071_10)"/>
<path d="M228.32 172.256C225.995 172.256 223.989 171.765 222.304 170.784C220.64 169.803 219.36 168.448 218.464 166.72C217.589 164.971 217.152 162.965 217.152 160.704C217.152 158.4 217.6 156.373 218.496 154.624C219.413 152.875 220.715 151.52 222.4 150.56C224.085 149.579 226.091 149.088 228.416 149.088C230.72 149.088 232.704 149.568 234.368 150.528C236.032 151.488 237.312 152.832 238.208 154.56C239.125 156.288 239.584 158.304 239.584 160.608C239.584 162.869 239.125 164.885 238.208 166.656C237.312 168.405 236.021 169.781 234.336 170.784C232.672 171.765 230.667 172.256 228.32 172.256ZM228.384 167.968C229.92 167.968 231.168 167.616 232.128 166.912C233.088 166.208 233.781 165.301 234.208 164.192C234.656 163.083 234.88 161.92 234.88 160.704C234.88 159.808 234.752 158.923 234.496 158.048C234.261 157.173 233.888 156.384 233.376 155.68C232.864 154.976 232.192 154.421 231.36 154.016C230.528 153.589 229.525 153.376 228.352 153.376C226.837 153.376 225.6 153.728 224.64 154.432C223.68 155.115 222.965 156.011 222.496 157.12C222.048 158.229 221.824 159.413 221.824 160.672C221.824 161.931 222.048 163.115 222.496 164.224C222.965 165.333 223.68 166.24 224.64 166.944C225.621 167.627 226.869 167.968 228.384 167.968ZM242.51 172V155.136H246.542L246.83 157.152C247.257 156.512 247.737 156.032 248.27 155.712C248.803 155.371 249.358 155.147 249.934 155.04C250.51 154.912 251.097 154.848 251.694 154.848C251.971 154.848 252.227 154.859 252.462 154.88C252.697 154.88 252.867 154.88 252.974 154.88V159.2H251.918C250.915 159.2 250.041 159.371 249.294 159.712C248.547 160.053 247.971 160.587 247.566 161.312C247.182 162.037 246.99 162.965 246.99 164.096V172H242.51ZM264.673 172.224C264.118 172.224 263.531 172.171 262.913 172.064C262.315 171.957 261.718 171.755 261.121 171.456C260.545 171.136 260.001 170.688 259.489 170.112L259.457 172H255.073V149.344H259.553V157.12C260.193 156.352 260.982 155.787 261.921 155.424C262.881 155.04 263.873 154.848 264.897 154.848C266.561 154.848 267.926 155.232 268.993 156C270.059 156.747 270.849 157.771 271.361 159.072C271.894 160.373 272.161 161.867 272.161 163.552C272.161 165.195 271.894 166.677 271.361 168C270.827 169.301 270.006 170.336 268.897 171.104C267.809 171.851 266.401 172.224 264.673 172.224ZM263.713 168.224C264.758 168.224 265.569 167.989 266.145 167.52C266.721 167.051 267.126 166.453 267.361 165.728C267.595 165.003 267.713 164.245 267.713 163.456C267.713 162.667 267.585 161.931 267.329 161.248C267.073 160.544 266.646 159.989 266.049 159.584C265.473 159.157 264.694 158.944 263.713 158.944C262.817 158.944 262.049 159.168 261.409 159.616C260.79 160.043 260.321 160.608 260.001 161.312C259.681 162.016 259.521 162.773 259.521 163.584C259.521 164.395 259.659 165.163 259.937 165.888C260.235 166.592 260.694 167.157 261.312 167.584C261.931 168.011 262.731 168.224 263.713 168.224ZM275.041 172V155.136H279.521V172H275.041ZM277.281 153.44C276.449 153.44 275.777 153.195 275.265 152.704C274.753 152.192 274.497 151.541 274.497 150.752C274.497 149.92 274.764 149.248 275.297 148.736C275.831 148.224 276.503 147.968 277.313 147.968C278.06 147.968 278.7 148.224 279.233 148.736C279.788 149.227 280.065 149.888 280.065 150.72C280.065 151.531 279.799 152.192 279.265 152.704C278.753 153.195 278.092 153.44 277.281 153.44ZM290.72 172C289.313 172 288.129 171.829 287.169 171.488C286.23 171.147 285.515 170.571 285.025 169.76C284.555 168.928 284.321 167.797 284.321 166.368V159.136H281.825V155.136H284.321V150.624H288.801V155.136H292.481V159.136H288.801V165.728C288.801 166.432 288.929 166.987 289.185 167.392C289.441 167.797 290.017 168 290.913 168H292.321V172H290.72ZM294.791 172V149.344H299.271V172H294.791ZM310.279 179.776C308.977 179.776 307.708 179.605 306.471 179.264C305.233 178.923 304.071 178.347 302.983 177.536L304.487 173.952C305.169 174.464 305.948 174.869 306.823 175.168C307.697 175.488 308.668 175.648 309.735 175.648C311.377 175.648 312.593 175.264 313.383 174.496C314.193 173.728 314.599 172.619 314.599 171.168V170.272C314.236 170.763 313.777 171.157 313.223 171.456C312.689 171.733 312.113 171.936 311.495 172.064C310.876 172.192 310.257 172.256 309.639 172.256C308.017 172.256 306.716 171.915 305.735 171.232C304.753 170.549 304.039 169.621 303.591 168.448C303.164 167.253 302.951 165.899 302.951 164.384V155.136H307.431V163.456C307.431 164.011 307.463 164.565 307.527 165.12C307.591 165.675 307.74 166.187 307.975 166.656C308.209 167.125 308.561 167.509 309.031 167.808C309.5 168.085 310.129 168.224 310.919 168.224C311.943 168.224 312.711 167.979 313.223 167.488C313.735 166.976 314.076 166.336 314.247 165.568C314.439 164.8 314.535 164 314.535 163.168V155.136H319.015V169.568C319.015 171.104 318.865 172.501 318.567 173.76C318.289 175.019 317.809 176.096 317.127 176.992C316.465 177.888 315.569 178.571 314.439 179.04C313.329 179.531 311.943 179.776 310.279 179.776Z" fill="white"/>
<path fill-rule="evenodd" clip-rule="evenodd" d="M181.954 141.351C178.506 142.025 175.175 143.722 172.566 146.135C168.337 150.047 166.379 154.461 166.372 160.104L166.368 162.844L165.551 162.995C164.561 163.177 162.832 162.827 162.341 162.346C161.738 161.755 162.184 160.851 163.611 159.771C164.837 158.842 164.925 158.709 164.926 157.775C164.927 157.224 164.868 156.774 164.795 156.774C164.164 156.774 160.843 158.97 159.068 160.56C156.859 162.54 156.461 163.815 157.677 165.008C158.697 166.009 160.468 166.28 164.927 166.121C169.228 165.967 172.682 165.331 177.127 163.874C186.205 160.897 191.167 156.45 191.155 151.299C191.153 150.425 191.211 149.71 191.284 149.71C191.358 149.71 191.927 150.231 192.55 150.867C195.414 153.796 200.992 155.071 205.09 153.734C206.648 153.226 209.143 151.819 210.288 150.803C211.119 150.066 212 148.624 212 148C212 147.221 211.38 146.466 210.363 146.006C209.645 145.681 208.722 145.604 205.476 145.597C203.274 145.592 201.396 145.664 201.301 145.757C201.207 145.849 201.441 146.273 201.82 146.699C202.452 147.406 202.634 147.474 203.955 147.493C205.611 147.516 206.476 147.875 206.476 148.538C206.476 149.095 205.436 150.108 204.12 150.834L203.154 151.366L202.259 149.922C198.211 143.389 189.767 139.824 181.954 141.351ZM202.974 156.328C201.036 157.647 200.566 158.094 199.498 159.626C198.144 161.571 197.505 163.604 197.675 165.428C197.75 166.238 197.729 166.9 197.627 166.9C197.525 166.9 197.104 166.429 196.69 165.853C195.846 164.68 194.085 163.583 192.066 162.972C189.964 162.337 185.657 162.396 183.615 163.088C179.148 164.601 176.396 167.707 176.376 171.256C176.365 173.311 177.028 174.91 178.451 176.263C180.152 177.88 181.663 178.53 184.545 178.885C189.8 179.531 195.772 177.419 199.66 173.539C203.273 169.933 205.27 165.275 205.274 160.443C205.275 158.258 204.874 155.361 204.57 155.361C204.473 155.361 203.755 155.796 202.974 156.328Z" fill="white"/>
<circle cx="112" cy="162" r="9" fill="white" stroke="#5945FD" stroke-width="4"/>
<circle cx="112" cy="161.5" r="16" stroke="#5945FD" stroke-opacity="0.3"/>
<circle cx="112" cy="162" r="26.5" stroke="#5945FD" stroke-opacity="0.1"/>
<rect x="46.5" y="97.5" width="130" height="33" rx="3.5" fill="#5945FD"/>
<rect x="46.5" y="97.5" width="130" height="33" rx="3.5" stroke="url(#paint2_linear_1071_10)"/>
<path d="M57.78 121.12C56.3 121.12 55.1667 120.733 54.38 119.96C53.6067 119.173 53.22 117.98 53.22 116.38V110.46H55.28V116.26C55.28 116.887 55.3667 117.427 55.54 117.88C55.7267 118.333 56.0067 118.68 56.38 118.92C56.7533 119.16 57.2267 119.28 57.8 119.28C58.4 119.28 58.88 119.16 59.24 118.92C59.6133 118.667 59.88 118.313 60.04 117.86C60.2133 117.407 60.3 116.873 60.3 116.26V110.46H62.36V116.38C62.36 118.007 61.96 119.207 61.16 119.98C60.3733 120.74 59.2467 121.12 57.78 121.12ZM64.642 121V110.46H66.602L66.702 111.94C66.9687 111.553 67.2887 111.247 67.662 111.02C68.0354 110.78 68.4354 110.607 68.862 110.5C69.2887 110.38 69.702 110.32 70.102 110.32C71.1154 110.32 71.9087 110.54 72.482 110.98C73.0687 111.407 73.482 111.987 73.722 112.72C73.9754 113.44 74.102 114.26 74.102 115.18V121H72.022V115.6C72.022 115.173 71.9954 114.753 71.942 114.34C71.8887 113.927 71.7754 113.56 71.602 113.24C71.442 112.907 71.2087 112.647 70.902 112.46C70.5954 112.26 70.182 112.16 69.662 112.16C69.022 112.16 68.482 112.333 68.042 112.68C67.602 113.027 67.2687 113.493 67.042 114.08C66.8154 114.667 66.702 115.327 66.702 116.06V121H64.642ZM80.6161 121.12C79.5628 121.12 78.6894 120.887 77.9961 120.42C77.3161 119.94 76.8028 119.293 76.4561 118.48C76.1228 117.667 75.9561 116.753 75.9561 115.74C75.9561 114.713 76.1294 113.793 76.4761 112.98C76.8228 112.153 77.3494 111.507 78.0561 111.04C78.7628 110.56 79.6561 110.32 80.7361 110.32C81.1361 110.32 81.5361 110.367 81.9361 110.46C82.3494 110.553 82.7294 110.7 83.0761 110.9C83.4361 111.087 83.7428 111.34 83.9961 111.66V106.86H86.0561V121H84.0761L83.9961 119.56C83.7561 119.92 83.4561 120.22 83.0961 120.46C82.7494 120.687 82.3628 120.853 81.9361 120.96C81.5094 121.067 81.0694 121.12 80.6161 121.12ZM80.9561 119.28C81.6361 119.28 82.1961 119.113 82.6361 118.78C83.0894 118.447 83.4294 118.007 83.6561 117.46C83.8828 116.913 83.9961 116.32 83.9961 115.68C83.9961 115.027 83.8828 114.44 83.6561 113.92C83.4428 113.387 83.1094 112.967 82.6561 112.66C82.2161 112.34 81.6494 112.18 80.9561 112.18C80.2361 112.18 79.6628 112.347 79.2361 112.68C78.8094 113 78.4961 113.433 78.2961 113.98C78.1094 114.527 78.0161 115.127 78.0161 115.78C78.0161 116.26 78.0694 116.713 78.1761 117.14C78.2828 117.553 78.4494 117.927 78.6761 118.26C78.9161 118.58 79.2228 118.833 79.5961 119.02C79.9694 119.193 80.4228 119.28 80.9561 119.28ZM93.0227 121.12C91.916 121.12 90.9893 120.893 90.2427 120.44C89.496 119.987 88.9293 119.36 88.5427 118.56C88.1693 117.747 87.9827 116.813 87.9827 115.76C87.9827 114.693 88.176 113.753 88.5627 112.94C88.9627 112.127 89.536 111.487 90.2827 111.02C91.0427 110.553 91.956 110.32 93.0227 110.32C93.836 110.32 94.5427 110.473 95.1427 110.78C95.7427 111.073 96.236 111.473 96.6227 111.98C97.0227 112.487 97.316 113.053 97.5027 113.68C97.6893 114.293 97.7693 114.933 97.7427 115.6C97.7427 115.747 97.736 115.887 97.7227 116.02C97.7093 116.153 97.696 116.293 97.6827 116.44H90.0627C90.1027 116.973 90.236 117.46 90.4627 117.9C90.7027 118.34 91.036 118.693 91.4627 118.96C91.8893 119.213 92.416 119.34 93.0427 119.34C93.3893 119.34 93.7227 119.3 94.0427 119.22C94.376 119.127 94.6693 118.987 94.9227 118.8C95.1893 118.6 95.376 118.347 95.4827 118.04H97.5627C97.3893 118.747 97.076 119.333 96.6227 119.8C96.1827 120.253 95.6427 120.587 95.0027 120.8C94.376 121.013 93.716 121.12 93.0227 121.12ZM90.1027 114.8H95.7027C95.6893 114.28 95.5693 113.82 95.3427 113.42C95.116 113.007 94.8027 112.687 94.4027 112.46C94.0027 112.22 93.5227 112.1 92.9627 112.1C92.3493 112.1 91.836 112.227 91.4227 112.48C91.0227 112.733 90.7093 113.067 90.4827 113.48C90.2693 113.88 90.1427 114.32 90.1027 114.8ZM99.667 121V110.46H101.607L101.707 111.98C101.974 111.567 102.28 111.24 102.627 111C102.974 110.76 103.354 110.587 103.767 110.48C104.18 110.373 104.614 110.32 105.067 110.32C105.187 110.32 105.3 110.32 105.407 110.32C105.514 110.32 105.614 110.32 105.707 110.32V112.3H105.067C104.307 112.3 103.674 112.453 103.167 112.76C102.674 113.067 102.307 113.493 102.067 114.04C101.84 114.587 101.727 115.213 101.727 115.92V121H99.667ZM116.773 123.78V121.06C116.026 120.967 115.326 120.773 114.673 120.48C114.033 120.173 113.493 119.74 113.053 119.18C112.626 118.62 112.34 117.92 112.193 117.08H114.373C114.546 117.64 114.826 118.08 115.213 118.4C115.6 118.707 116.046 118.92 116.553 119.04C117.073 119.16 117.593 119.22 118.113 119.22C118.62 119.22 119.086 119.153 119.513 119.02C119.953 118.887 120.306 118.667 120.573 118.36C120.853 118.053 120.993 117.66 120.993 117.18C120.993 116.793 120.913 116.48 120.753 116.24C120.606 116 120.4 115.807 120.133 115.66C119.866 115.5 119.553 115.373 119.193 115.28C118.686 115.12 118.166 114.993 117.633 114.9C117.1 114.793 116.586 114.68 116.093 114.56C115.6 114.427 115.14 114.247 114.713 114.02C114.1 113.713 113.606 113.3 113.233 112.78C112.86 112.26 112.673 111.567 112.673 110.7C112.673 109.847 112.866 109.14 113.253 108.58C113.653 108.007 114.173 107.573 114.813 107.28C115.453 106.973 116.133 106.793 116.853 106.74V104.08H118.913V106.78C119.62 106.847 120.26 107.04 120.833 107.36C121.406 107.68 121.866 108.113 122.213 108.66C122.56 109.207 122.74 109.873 122.753 110.66H120.693C120.64 110.153 120.473 109.753 120.193 109.46C119.913 109.153 119.56 108.94 119.133 108.82C118.706 108.687 118.246 108.62 117.753 108.62C117.286 108.607 116.826 108.66 116.373 108.78C115.933 108.9 115.566 109.1 115.273 109.38C114.98 109.66 114.833 110.06 114.833 110.58C114.833 110.9 114.9 111.18 115.033 111.42C115.166 111.66 115.34 111.86 115.553 112.02C115.78 112.18 116.026 112.313 116.293 112.42C116.866 112.647 117.5 112.827 118.193 112.96C118.886 113.08 119.533 113.24 120.133 113.44C120.76 113.613 121.293 113.847 121.733 114.14C122.186 114.42 122.533 114.787 122.773 115.24C123.013 115.68 123.133 116.233 123.133 116.9C123.133 117.82 122.94 118.58 122.553 119.18C122.166 119.767 121.646 120.22 120.993 120.54C120.34 120.86 119.606 121.053 118.793 121.12V123.78H116.773ZM127.317 121V109.98H124.477V108.48C125.01 108.44 125.49 108.38 125.917 108.3C126.344 108.207 126.724 108.053 127.057 107.84C127.39 107.613 127.684 107.287 127.937 106.86H129.437V121H127.317ZM137.938 121.16C136.925 121.16 136.065 120.98 135.358 120.62C134.652 120.247 134.078 119.733 133.638 119.08C133.198 118.413 132.872 117.647 132.658 116.78C132.458 115.9 132.358 114.953 132.358 113.94C132.358 112.927 132.458 111.987 132.658 111.12C132.858 110.24 133.178 109.473 133.618 108.82C134.072 108.153 134.652 107.633 135.358 107.26C136.078 106.887 136.938 106.7 137.938 106.7C139.005 106.7 139.892 106.9 140.598 107.3C141.318 107.7 141.892 108.247 142.318 108.94C142.758 109.62 143.065 110.393 143.238 111.26C143.425 112.127 143.518 113.02 143.518 113.94C143.518 114.86 143.425 115.753 143.238 116.62C143.052 117.487 142.745 118.26 142.318 118.94C141.892 119.62 141.318 120.16 140.598 120.56C139.878 120.96 138.992 121.16 137.938 121.16ZM137.938 119.22C138.672 119.22 139.265 119.06 139.718 118.74C140.172 118.407 140.518 117.973 140.758 117.44C140.998 116.907 141.158 116.333 141.238 115.72C141.332 115.107 141.378 114.513 141.378 113.94C141.378 113.38 141.332 112.793 141.238 112.18C141.158 111.553 140.998 110.973 140.758 110.44C140.518 109.907 140.172 109.473 139.718 109.14C139.278 108.807 138.692 108.64 137.958 108.64C137.212 108.64 136.605 108.807 136.138 109.14C135.685 109.473 135.338 109.907 135.098 110.44C134.858 110.973 134.698 111.547 134.618 112.16C134.538 112.773 134.498 113.367 134.498 113.94C134.498 114.513 134.538 115.107 134.618 115.72C134.698 116.333 134.852 116.907 135.078 117.44C135.318 117.973 135.665 118.407 136.118 118.74C136.585 119.06 137.192 119.22 137.938 119.22ZM151 121.16C149.987 121.16 149.127 120.98 148.42 120.62C147.713 120.247 147.14 119.733 146.7 119.08C146.26 118.413 145.933 117.647 145.72 116.78C145.52 115.9 145.42 114.953 145.42 113.94C145.42 112.927 145.52 111.987 145.72 111.12C145.92 110.24 146.24 109.473 146.68 108.82C147.133 108.153 147.713 107.633 148.42 107.26C149.14 106.887 150 106.7 151 106.7C152.067 106.7 152.953 106.9 153.66 107.3C154.38 107.7 154.953 108.247 155.38 108.94C155.82 109.62 156.127 110.393 156.3 111.26C156.487 112.127 156.58 113.02 156.58 113.94C156.58 114.86 156.487 115.753 156.3 116.62C156.113 117.487 155.807 118.26 155.38 118.94C154.953 119.62 154.38 120.16 153.66 120.56C152.94 120.96 152.053 121.16 151 121.16ZM151 119.22C151.733 119.22 152.327 119.06 152.78 118.74C153.233 118.407 153.58 117.973 153.82 117.44C154.06 116.907 154.22 116.333 154.3 115.72C154.393 115.107 154.44 114.513 154.44 113.94C154.44 113.38 154.393 112.793 154.3 112.18C154.22 111.553 154.06 110.973 153.82 110.44C153.58 109.907 153.233 109.473 152.78 109.14C152.34 108.807 151.753 108.64 151.02 108.64C150.273 108.64 149.667 108.807 149.2 109.14C148.747 109.473 148.4 109.907 148.16 110.44C147.92 110.973 147.76 111.547 147.68 112.16C147.6 112.773 147.56 113.367 147.56 113.94C147.56 114.513 147.6 115.107 147.68 115.72C147.76 116.333 147.913 116.907 148.14 117.44C148.38 117.973 148.727 118.407 149.18 118.74C149.647 119.06 150.253 119.22 151 119.22ZM164.062 121.16C163.049 121.16 162.189 120.98 161.482 120.62C160.775 120.247 160.202 119.733 159.762 119.08C159.322 118.413 158.995 117.647 158.782 116.78C158.582 115.9 158.482 114.953 158.482 113.94C158.482 112.927 158.582 111.987 158.782 111.12C158.982 110.24 159.302 109.473 159.742 108.82C160.195 108.153 160.775 107.633 161.482 107.26C162.202 106.887 163.062 106.7 164.062 106.7C165.129 106.7 166.015 106.9 166.722 107.3C167.442 107.7 168.015 108.247 168.442 108.94C168.882 109.62 169.189 110.393 169.362 111.26C169.549 112.127 169.642 113.02 169.642 113.94C169.642 114.86 169.549 115.753 169.362 116.62C169.175 117.487 168.869 118.26 168.442 118.94C168.015 119.62 167.442 120.16 166.722 120.56C166.002 120.96 165.115 121.16 164.062 121.16ZM164.062 119.22C164.795 119.22 165.389 119.06 165.842 118.74C166.295 118.407 166.642 117.973 166.882 117.44C167.122 116.907 167.282 116.333 167.362 115.72C167.455 115.107 167.502 114.513 167.502 113.94C167.502 113.38 167.455 112.793 167.362 112.18C167.282 111.553 167.122 110.973 166.882 110.44C166.642 109.907 166.295 109.473 165.842 109.14C165.402 108.807 164.815 108.64 164.082 108.64C163.335 108.64 162.729 108.807 162.262 109.14C161.809 109.473 161.462 109.907 161.222 110.44C160.982 110.973 160.822 111.547 160.742 112.16C160.662 112.773 160.622 113.367 160.622 113.94C160.622 114.513 160.662 115.107 160.742 115.72C160.822 116.333 160.975 116.907 161.202 117.44C161.442 117.973 161.789 118.407 162.242 118.74C162.709 119.06 163.315 119.22 164.062 119.22Z" fill="white"/>
<rect x="191.5" y="249.5" width="89" height="33" rx="3.5" stroke="url(#paint3_linear_1071_10)"/>
<path d="M202.68 275.78V273.06C201.933 272.967 201.233 272.773 200.58 272.48C199.94 272.173 199.4 271.74 198.96 271.18C198.533 270.62 198.247 269.92 198.1 269.08H200.28C200.453 269.64 200.733 270.08 201.12 270.4C201.507 270.707 201.953 270.92 202.46 271.04C202.98 271.16 203.5 271.22 204.02 271.22C204.527 271.22 204.993 271.153 205.42 271.02C205.86 270.887 206.213 270.667 206.48 270.36C206.76 270.053 206.9 269.66 206.9 269.18C206.9 268.793 206.82 268.48 206.66 268.24C206.513 268 206.307 267.807 206.04 267.66C205.773 267.5 205.46 267.373 205.1 267.28C204.593 267.12 204.073 266.993 203.54 266.9C203.007 266.793 202.493 266.68 202 266.56C201.507 266.427 201.047 266.247 200.62 266.02C200.007 265.713 199.513 265.3 199.14 264.78C198.767 264.26 198.58 263.567 198.58 262.7C198.58 261.847 198.773 261.14 199.16 260.58C199.56 260.007 200.08 259.573 200.72 259.28C201.36 258.973 202.04 258.793 202.76 258.74V256.08H204.82V258.78C205.527 258.847 206.167 259.04 206.74 259.36C207.313 259.68 207.773 260.113 208.12 260.66C208.467 261.207 208.647 261.873 208.66 262.66H206.6C206.547 262.153 206.38 261.753 206.1 261.46C205.82 261.153 205.467 260.94 205.04 260.82C204.613 260.687 204.153 260.62 203.66 260.62C203.193 260.607 202.733 260.66 202.28 260.78C201.84 260.9 201.473 261.1 201.18 261.38C200.887 261.66 200.74 262.06 200.74 262.58C200.74 262.9 200.807 263.18 200.94 263.42C201.073 263.66 201.247 263.86 201.46 264.02C201.687 264.18 201.933 264.313 202.2 264.42C202.773 264.647 203.407 264.827 204.1 264.96C204.793 265.08 205.44 265.24 206.04 265.44C206.667 265.613 207.2 265.847 207.64 266.14C208.093 266.42 208.44 266.787 208.68 267.24C208.92 267.68 209.04 268.233 209.04 268.9C209.04 269.82 208.847 270.58 208.46 271.18C208.073 271.767 207.553 272.22 206.9 272.54C206.247 272.86 205.513 273.053 204.7 273.12V275.78H202.68ZM213.224 273V261.98H210.384V260.48C210.917 260.44 211.397 260.38 211.824 260.3C212.251 260.207 212.631 260.053 212.964 259.84C213.297 259.613 213.591 259.287 213.844 258.86H215.344V273H213.224ZM223.845 273.16C222.832 273.16 221.972 272.98 221.265 272.62C220.559 272.247 219.985 271.733 219.545 271.08C219.105 270.413 218.779 269.647 218.565 268.78C218.365 267.9 218.265 266.953 218.265 265.94C218.265 264.927 218.365 263.987 218.565 263.12C218.765 262.24 219.085 261.473 219.525 260.82C219.979 260.153 220.559 259.633 221.265 259.26C221.985 258.887 222.845 258.7 223.845 258.7C224.912 258.7 225.799 258.9 226.505 259.3C227.225 259.7 227.799 260.247 228.225 260.94C228.665 261.62 228.972 262.393 229.145 263.26C229.332 264.127 229.425 265.02 229.425 265.94C229.425 266.86 229.332 267.753 229.145 268.62C228.959 269.487 228.652 270.26 228.225 270.94C227.799 271.62 227.225 272.16 226.505 272.56C225.785 272.96 224.899 273.16 223.845 273.16ZM223.845 271.22C224.579 271.22 225.172 271.06 225.625 270.74C226.079 270.407 226.425 269.973 226.665 269.44C226.905 268.907 227.065 268.333 227.145 267.72C227.239 267.107 227.285 266.513 227.285 265.94C227.285 265.38 227.239 264.793 227.145 264.18C227.065 263.553 226.905 262.973 226.665 262.44C226.425 261.907 226.079 261.473 225.625 261.14C225.185 260.807 224.599 260.64 223.865 260.64C223.119 260.64 222.512 260.807 222.045 261.14C221.592 261.473 221.245 261.907 221.005 262.44C220.765 262.973 220.605 263.547 220.525 264.16C220.445 264.773 220.405 265.367 220.405 265.94C220.405 266.513 220.445 267.107 220.525 267.72C220.605 268.333 220.759 268.907 220.985 269.44C221.225 269.973 221.572 270.407 222.025 270.74C222.492 271.06 223.099 271.22 223.845 271.22ZM231.795 275.64L231.215 274.78C231.401 274.66 231.588 274.5 231.775 274.3C231.975 274.113 232.148 273.907 232.295 273.68C232.441 273.467 232.548 273.26 232.615 273.06C232.241 273.033 231.935 272.907 231.695 272.68C231.455 272.453 231.335 272.147 231.335 271.76C231.348 271.347 231.488 271.027 231.755 270.8C232.035 270.56 232.348 270.44 232.695 270.44C233.148 270.44 233.508 270.607 233.775 270.94C234.041 271.26 234.175 271.7 234.175 272.26C234.175 272.74 234.061 273.213 233.835 273.68C233.608 274.147 233.315 274.553 232.955 274.9C232.595 275.247 232.208 275.493 231.795 275.64ZM241.57 273.16C240.557 273.16 239.697 272.98 238.99 272.62C238.284 272.247 237.71 271.733 237.27 271.08C236.83 270.413 236.504 269.647 236.29 268.78C236.09 267.9 235.99 266.953 235.99 265.94C235.99 264.927 236.09 263.987 236.29 263.12C236.49 262.24 236.81 261.473 237.25 260.82C237.704 260.153 238.284 259.633 238.99 259.26C239.71 258.887 240.57 258.7 241.57 258.7C242.637 258.7 243.524 258.9 244.23 259.3C244.95 259.7 245.524 260.247 245.95 260.94C246.39 261.62 246.697 262.393 246.87 263.26C247.057 264.127 247.15 265.02 247.15 265.94C247.15 266.86 247.057 267.753 246.87 268.62C246.684 269.487 246.377 270.26 245.95 270.94C245.524 271.62 244.95 272.16 244.23 272.56C243.51 272.96 242.624 273.16 241.57 273.16ZM241.57 271.22C242.304 271.22 242.897 271.06 243.35 270.74C243.804 270.407 244.15 269.973 244.39 269.44C244.63 268.907 244.79 268.333 244.87 267.72C244.964 267.107 245.01 266.513 245.01 265.94C245.01 265.38 244.964 264.793 244.87 264.18C244.79 263.553 244.63 262.973 244.39 262.44C244.15 261.907 243.804 261.473 243.35 261.14C242.91 260.807 242.324 260.64 241.59 260.64C240.844 260.64 240.237 260.807 239.77 261.14C239.317 261.473 238.97 261.907 238.73 262.44C238.49 262.973 238.33 263.547 238.25 264.16C238.17 264.773 238.13 265.367 238.13 265.94C238.13 266.513 238.17 267.107 238.25 267.72C238.33 268.333 238.484 268.907 238.71 269.44C238.95 269.973 239.297 270.407 239.75 270.74C240.217 271.06 240.824 271.22 241.57 271.22ZM254.632 273.16C253.619 273.16 252.759 272.98 252.052 272.62C251.346 272.247 250.772 271.733 250.332 271.08C249.892 270.413 249.566 269.647 249.352 268.78C249.152 267.9 249.052 266.953 249.052 265.94C249.052 264.927 249.152 263.987 249.352 263.12C249.552 262.24 249.872 261.473 250.312 260.82C250.766 260.153 251.346 259.633 252.052 259.26C252.772 258.887 253.632 258.7 254.632 258.7C255.699 258.7 256.586 258.9 257.292 259.3C258.012 259.7 258.586 260.247 259.012 260.94C259.452 261.62 259.759 262.393 259.932 263.26C260.119 264.127 260.212 265.02 260.212 265.94C260.212 266.86 260.119 267.753 259.932 268.62C259.746 269.487 259.439 270.26 259.012 270.94C258.586 271.62 258.012 272.16 257.292 272.56C256.572 272.96 255.686 273.16 254.632 273.16ZM254.632 271.22C255.366 271.22 255.959 271.06 256.412 270.74C256.866 270.407 257.212 269.973 257.452 269.44C257.692 268.907 257.852 268.333 257.932 267.72C258.026 267.107 258.072 266.513 258.072 265.94C258.072 265.38 258.026 264.793 257.932 264.18C257.852 263.553 257.692 262.973 257.452 262.44C257.212 261.907 256.866 261.473 256.412 261.14C255.972 260.807 255.386 260.64 254.652 260.64C253.906 260.64 253.299 260.807 252.832 261.14C252.379 261.473 252.032 261.907 251.792 262.44C251.552 262.973 251.392 263.547 251.312 264.16C251.232 264.773 251.192 265.367 251.192 265.94C251.192 266.513 251.232 267.107 251.312 267.72C251.392 268.333 251.546 268.907 251.772 269.44C252.012 269.973 252.359 270.407 252.812 270.74C253.279 271.06 253.886 271.22 254.632 271.22ZM267.694 273.16C266.681 273.16 265.821 272.98 265.114 272.62C264.407 272.247 263.834 271.733 263.394 271.08C262.954 270.413 262.627 269.647 262.414 268.78C262.214 267.9 262.114 266.953 262.114 265.94C262.114 264.927 262.214 263.987 262.414 263.12C262.614 262.24 262.934 261.473 263.374 260.82C263.827 260.153 264.407 259.633 265.114 259.26C265.834 258.887 266.694 258.7 267.694 258.7C268.761 258.7 269.647 258.9 270.354 259.3C271.074 259.7 271.647 260.247 272.074 260.94C272.514 261.62 272.821 262.393 272.994 263.26C273.181 264.127 273.274 265.02 273.274 265.94C273.274 266.86 273.181 267.753 272.994 268.62C272.807 269.487 272.501 270.26 272.074 270.94C271.647 271.62 271.074 272.16 270.354 272.56C269.634 272.96 268.747 273.16 267.694 273.16ZM267.694 271.22C268.427 271.22 269.021 271.06 269.474 270.74C269.927 270.407 270.274 269.973 270.514 269.44C270.754 268.907 270.914 268.333 270.994 267.72C271.087 267.107 271.134 266.513 271.134 265.94C271.134 265.38 271.087 264.793 270.994 264.18C270.914 263.553 270.754 262.973 270.514 262.44C270.274 261.907 269.927 261.473 269.474 261.14C269.034 260.807 268.447 260.64 267.714 260.64C266.967 260.64 266.361 260.807 265.894 261.14C265.441 261.473 265.094 261.907 264.854 262.44C264.614 262.973 264.454 263.547 264.374 264.16C264.294 264.773 264.254 265.367 264.254 265.94C264.254 266.513 264.294 267.107 264.374 267.72C264.454 268.333 264.607 268.907 264.834 269.44C265.074 269.973 265.421 270.407 265.874 270.74C266.341 271.06 266.947 271.22 267.694 271.22Z" fill="white"/>
<rect x="283.5" y="325.5" width="94" height="33" rx="3.5" stroke="url(#paint4_linear_1071_10)"/>
<path d="M294.68 351.78V349.06C293.933 348.967 293.233 348.773 292.58 348.48C291.94 348.173 291.4 347.74 290.96 347.18C290.533 346.62 290.247 345.92 290.1 345.08H292.28C292.453 345.64 292.733 346.08 293.12 346.4C293.507 346.707 293.953 346.92 294.46 347.04C294.98 347.16 295.5 347.22 296.02 347.22C296.527 347.22 296.993 347.153 297.42 347.02C297.86 346.887 298.213 346.667 298.48 346.36C298.76 346.053 298.9 345.66 298.9 345.18C298.9 344.793 298.82 344.48 298.66 344.24C298.513 344 298.307 343.807 298.04 343.66C297.773 343.5 297.46 343.373 297.1 343.28C296.593 343.12 296.073 342.993 295.54 342.9C295.007 342.793 294.493 342.68 294 342.56C293.507 342.427 293.047 342.247 292.62 342.02C292.007 341.713 291.513 341.3 291.14 340.78C290.767 340.26 290.58 339.567 290.58 338.7C290.58 337.847 290.773 337.14 291.16 336.58C291.56 336.007 292.08 335.573 292.72 335.28C293.36 334.973 294.04 334.793 294.76 334.74V332.08H296.82V334.78C297.527 334.847 298.167 335.04 298.74 335.36C299.313 335.68 299.773 336.113 300.12 336.66C300.467 337.207 300.647 337.873 300.66 338.66H298.6C298.547 338.153 298.38 337.753 298.1 337.46C297.82 337.153 297.467 336.94 297.04 336.82C296.613 336.687 296.153 336.62 295.66 336.62C295.193 336.607 294.733 336.66 294.28 336.78C293.84 336.9 293.473 337.1 293.18 337.38C292.887 337.66 292.74 338.06 292.74 338.58C292.74 338.9 292.807 339.18 292.94 339.42C293.073 339.66 293.247 339.86 293.46 340.02C293.687 340.18 293.933 340.313 294.2 340.42C294.773 340.647 295.407 340.827 296.1 340.96C296.793 341.08 297.44 341.24 298.04 341.44C298.667 341.613 299.2 341.847 299.64 342.14C300.093 342.42 300.44 342.787 300.68 343.24C300.92 343.68 301.04 344.233 301.04 344.9C301.04 345.82 300.847 346.58 300.46 347.18C300.073 347.767 299.553 348.22 298.9 348.54C298.247 348.86 297.513 349.053 296.7 349.12V351.78H294.68ZM308.104 349.18C307.491 349.18 306.911 349.107 306.364 348.96C305.817 348.813 305.317 348.593 304.864 348.3C304.424 347.993 304.051 347.613 303.744 347.16C303.451 346.693 303.244 346.14 303.124 345.5H305.244C305.364 345.847 305.564 346.147 305.844 346.4C306.137 346.653 306.471 346.853 306.844 347C307.231 347.147 307.624 347.22 308.024 347.22C308.624 347.22 309.151 347.12 309.604 346.92C310.071 346.707 310.437 346.4 310.704 346C310.971 345.6 311.104 345.087 311.104 344.46C311.104 343.593 310.837 342.92 310.304 342.44C309.771 341.96 309.071 341.72 308.204 341.72C307.684 341.72 307.197 341.813 306.744 342C306.304 342.173 305.897 342.42 305.524 342.74H303.524L304.024 334.86H312.784V336.8H305.964L305.644 340.72C306.017 340.427 306.464 340.2 306.984 340.04C307.517 339.88 308.124 339.807 308.804 339.82C309.711 339.82 310.497 340.007 311.164 340.38C311.844 340.753 312.364 341.28 312.724 341.96C313.097 342.627 313.284 343.413 313.284 344.32C313.284 345.347 313.051 346.22 312.584 346.94C312.131 347.66 311.511 348.213 310.724 348.6C309.951 348.987 309.077 349.18 308.104 349.18ZM320.728 349.16C319.715 349.16 318.855 348.98 318.148 348.62C317.442 348.247 316.868 347.733 316.428 347.08C315.988 346.413 315.662 345.647 315.448 344.78C315.248 343.9 315.148 342.953 315.148 341.94C315.148 340.927 315.248 339.987 315.448 339.12C315.648 338.24 315.968 337.473 316.408 336.82C316.862 336.153 317.442 335.633 318.148 335.26C318.868 334.887 319.728 334.7 320.728 334.7C321.795 334.7 322.682 334.9 323.388 335.3C324.108 335.7 324.682 336.247 325.108 336.94C325.548 337.62 325.855 338.393 326.028 339.26C326.215 340.127 326.308 341.02 326.308 341.94C326.308 342.86 326.215 343.753 326.028 344.62C325.842 345.487 325.535 346.26 325.108 346.94C324.682 347.62 324.108 348.16 323.388 348.56C322.668 348.96 321.782 349.16 320.728 349.16ZM320.728 347.22C321.462 347.22 322.055 347.06 322.508 346.74C322.962 346.407 323.308 345.973 323.548 345.44C323.788 344.907 323.948 344.333 324.028 343.72C324.122 343.107 324.168 342.513 324.168 341.94C324.168 341.38 324.122 340.793 324.028 340.18C323.948 339.553 323.788 338.973 323.548 338.44C323.308 337.907 322.962 337.473 322.508 337.14C322.068 336.807 321.482 336.64 320.748 336.64C320.002 336.64 319.395 336.807 318.928 337.14C318.475 337.473 318.128 337.907 317.888 338.44C317.648 338.973 317.488 339.547 317.408 340.16C317.328 340.773 317.288 341.367 317.288 341.94C317.288 342.513 317.328 343.107 317.408 343.72C317.488 344.333 317.642 344.907 317.868 345.44C318.108 345.973 318.455 346.407 318.908 346.74C319.375 347.06 319.982 347.22 320.728 347.22ZM328.678 351.64L328.098 350.78C328.284 350.66 328.471 350.5 328.658 350.3C328.858 350.113 329.031 349.907 329.178 349.68C329.324 349.467 329.431 349.26 329.498 349.06C329.124 349.033 328.818 348.907 328.578 348.68C328.338 348.453 328.218 348.147 328.218 347.76C328.231 347.347 328.371 347.027 328.638 346.8C328.918 346.56 329.231 346.44 329.578 346.44C330.031 346.44 330.391 346.607 330.658 346.94C330.924 347.26 331.058 347.7 331.058 348.26C331.058 348.74 330.944 349.213 330.718 349.68C330.491 350.147 330.198 350.553 329.838 350.9C329.478 351.247 329.091 351.493 328.678 351.64ZM338.453 349.16C337.44 349.16 336.58 348.98 335.873 348.62C335.167 348.247 334.593 347.733 334.153 347.08C333.713 346.413 333.387 345.647 333.173 344.78C332.973 343.9 332.873 342.953 332.873 341.94C332.873 340.927 332.973 339.987 333.173 339.12C333.373 338.24 333.693 337.473 334.133 336.82C334.587 336.153 335.167 335.633 335.873 335.26C336.593 334.887 337.453 334.7 338.453 334.7C339.52 334.7 340.407 334.9 341.113 335.3C341.833 335.7 342.407 336.247 342.833 336.94C343.273 337.62 343.58 338.393 343.753 339.26C343.94 340.127 344.033 341.02 344.033 341.94C344.033 342.86 343.94 343.753 343.753 344.62C343.567 345.487 343.26 346.26 342.833 346.94C342.407 347.62 341.833 348.16 341.113 348.56C340.393 348.96 339.507 349.16 338.453 349.16ZM338.453 347.22C339.187 347.22 339.78 347.06 340.233 346.74C340.687 346.407 341.033 345.973 341.273 345.44C341.513 344.907 341.673 344.333 341.753 343.72C341.847 343.107 341.893 342.513 341.893 341.94C341.893 341.38 341.847 340.793 341.753 340.18C341.673 339.553 341.513 338.973 341.273 338.44C341.033 337.907 340.687 337.473 340.233 337.14C339.793 336.807 339.207 336.64 338.473 336.64C337.727 336.64 337.12 336.807 336.653 337.14C336.2 337.473 335.853 337.907 335.613 338.44C335.373 338.973 335.213 339.547 335.133 340.16C335.053 340.773 335.013 341.367 335.013 341.94C335.013 342.513 335.053 343.107 335.133 343.72C335.213 344.333 335.367 344.907 335.593 345.44C335.833 345.973 336.18 346.407 336.633 346.74C337.1 347.06 337.707 347.22 338.453 347.22ZM351.515 349.16C350.502 349.16 349.642 348.98 348.935 348.62C348.228 348.247 347.655 347.733 347.215 347.08C346.775 346.413 346.448 345.647 346.235 344.78C346.035 343.9 345.935 342.953 345.935 341.94C345.935 340.927 346.035 339.987 346.235 339.12C346.435 338.24 346.755 337.473 347.195 336.82C347.648 336.153 348.228 335.633 348.935 335.26C349.655 334.887 350.515 334.7 351.515 334.7C352.582 334.7 353.468 334.9 354.175 335.3C354.895 335.7 355.468 336.247 355.895 336.94C356.335 337.62 356.642 338.393 356.815 339.26C357.002 340.127 357.095 341.02 357.095 341.94C357.095 342.86 357.002 343.753 356.815 344.62C356.628 345.487 356.322 346.26 355.895 346.94C355.468 347.62 354.895 348.16 354.175 348.56C353.455 348.96 352.568 349.16 351.515 349.16ZM351.515 347.22C352.248 347.22 352.842 347.06 353.295 346.74C353.748 346.407 354.095 345.973 354.335 345.44C354.575 344.907 354.735 344.333 354.815 343.72C354.908 343.107 354.955 342.513 354.955 341.94C354.955 341.38 354.908 340.793 354.815 340.18C354.735 339.553 354.575 338.973 354.335 338.44C354.095 337.907 353.748 337.473 353.295 337.14C352.855 336.807 352.268 336.64 351.535 336.64C350.788 336.64 350.182 336.807 349.715 337.14C349.262 337.473 348.915 337.907 348.675 338.44C348.435 338.973 348.275 339.547 348.195 340.16C348.115 340.773 348.075 341.367 348.075 341.94C348.075 342.513 348.115 343.107 348.195 343.72C348.275 344.333 348.428 344.907 348.655 345.44C348.895 345.973 349.242 346.407 349.695 346.74C350.162 347.06 350.768 347.22 351.515 347.22ZM364.577 349.16C363.563 349.16 362.703 348.98 361.997 348.62C361.29 348.247 360.717 347.733 360.277 347.08C359.837 346.413 359.51 345.647 359.297 344.78C359.097 343.9 358.997 342.953 358.997 341.94C358.997 340.927 359.097 339.987 359.297 339.12C359.497 338.24 359.817 337.473 360.257 336.82C360.71 336.153 361.29 335.633 361.997 335.26C362.717 334.887 363.577 334.7 364.577 334.7C365.643 334.7 366.53 334.9 367.237 335.3C367.957 335.7 368.53 336.247 368.957 336.94C369.397 337.62 369.703 338.393 369.877 339.26C370.063 340.127 370.157 341.02 370.157 341.94C370.157 342.86 370.063 343.753 369.877 344.62C369.69 345.487 369.383 346.26 368.957 346.94C368.53 347.62 367.957 348.16 367.237 348.56C366.517 348.96 365.63 349.16 364.577 349.16ZM364.577 347.22C365.31 347.22 365.903 347.06 366.357 346.74C366.81 346.407 367.157 345.973 367.397 345.44C367.637 344.907 367.797 344.333 367.877 343.72C367.97 343.107 368.017 342.513 368.017 341.94C368.017 341.38 367.97 340.793 367.877 340.18C367.797 339.553 367.637 338.973 367.397 338.44C367.157 337.907 366.81 337.473 366.357 337.14C365.917 336.807 365.33 336.64 364.597 336.64C363.85 336.64 363.243 336.807 362.777 337.14C362.323 337.473 361.977 337.907 361.737 338.44C361.497 338.973 361.337 339.547 361.257 340.16C361.177 340.773 361.137 341.367 361.137 341.94C361.137 342.513 361.177 343.107 361.257 343.72C361.337 344.333 361.49 344.907 361.717 345.44C361.957 345.973 362.303 346.407 362.757 346.74C363.223 347.06 363.83 347.22 364.577 347.22Z" fill="white"/>
<rect x="394.5" y="373.5" width="92" height="33" rx="3.5" stroke="url(#paint5_linear_1071_10)"/>
<path d="M405.68 399.78V397.06C404.933 396.967 404.233 396.773 403.58 396.48C402.94 396.173 402.4 395.74 401.96 395.18C401.533 394.62 401.247 393.92 401.1 393.08H403.28C403.453 393.64 403.733 394.08 404.12 394.4C404.507 394.707 404.953 394.92 405.46 395.04C405.98 395.16 406.5 395.22 407.02 395.22C407.527 395.22 407.993 395.153 408.42 395.02C408.86 394.887 409.213 394.667 409.48 394.36C409.76 394.053 409.9 393.66 409.9 393.18C409.9 392.793 409.82 392.48 409.66 392.24C409.513 392 409.307 391.807 409.04 391.66C408.773 391.5 408.46 391.373 408.1 391.28C407.593 391.12 407.073 390.993 406.54 390.9C406.007 390.793 405.493 390.68 405 390.56C404.507 390.427 404.047 390.247 403.62 390.02C403.007 389.713 402.513 389.3 402.14 388.78C401.767 388.26 401.58 387.567 401.58 386.7C401.58 385.847 401.773 385.14 402.16 384.58C402.56 384.007 403.08 383.573 403.72 383.28C404.36 382.973 405.04 382.793 405.76 382.74V380.08H407.82V382.78C408.527 382.847 409.167 383.04 409.74 383.36C410.313 383.68 410.773 384.113 411.12 384.66C411.467 385.207 411.647 385.873 411.66 386.66H409.6C409.547 386.153 409.38 385.753 409.1 385.46C408.82 385.153 408.467 384.94 408.04 384.82C407.613 384.687 407.153 384.62 406.66 384.62C406.193 384.607 405.733 384.66 405.28 384.78C404.84 384.9 404.473 385.1 404.18 385.38C403.887 385.66 403.74 386.06 403.74 386.58C403.74 386.9 403.807 387.18 403.94 387.42C404.073 387.66 404.247 387.86 404.46 388.02C404.687 388.18 404.933 388.313 405.2 388.42C405.773 388.647 406.407 388.827 407.1 388.96C407.793 389.08 408.44 389.24 409.04 389.44C409.667 389.613 410.2 389.847 410.64 390.14C411.093 390.42 411.44 390.787 411.68 391.24C411.92 391.68 412.04 392.233 412.04 392.9C412.04 393.82 411.847 394.58 411.46 395.18C411.073 395.767 410.553 396.22 409.9 396.54C409.247 396.86 408.513 397.053 407.7 397.12V399.78H405.68ZM413.504 397V395.24L417.484 391.84C417.817 391.56 418.184 391.247 418.584 390.9C418.997 390.553 419.391 390.18 419.764 389.78C420.151 389.38 420.464 388.953 420.704 388.5C420.957 388.047 421.084 387.573 421.084 387.08C421.084 386.32 420.851 385.727 420.384 385.3C419.931 384.873 419.311 384.66 418.524 384.66C417.857 384.66 417.291 384.8 416.824 385.08C416.371 385.36 416.071 385.753 415.924 386.26H413.764C413.884 385.447 414.184 384.78 414.664 384.26C415.144 383.74 415.731 383.353 416.424 383.1C417.117 382.833 417.844 382.7 418.604 382.7C419.484 382.7 420.271 382.86 420.964 383.18C421.657 383.5 422.204 383.973 422.604 384.6C423.004 385.213 423.204 385.967 423.204 386.86C423.204 387.7 423.044 388.447 422.724 389.1C422.404 389.753 421.977 390.347 421.444 390.88C420.924 391.413 420.357 391.933 419.744 392.44L416.604 395.06H423.304V397H413.504ZM430.193 397.18C429.58 397.18 429 397.107 428.453 396.96C427.906 396.813 427.406 396.593 426.953 396.3C426.513 395.993 426.14 395.613 425.833 395.16C425.54 394.693 425.333 394.14 425.213 393.5H427.333C427.453 393.847 427.653 394.147 427.933 394.4C428.226 394.653 428.56 394.853 428.933 395C429.32 395.147 429.713 395.22 430.113 395.22C430.713 395.22 431.24 395.12 431.693 394.92C432.16 394.707 432.526 394.4 432.793 394C433.06 393.6 433.193 393.087 433.193 392.46C433.193 391.593 432.926 390.92 432.393 390.44C431.86 389.96 431.16 389.72 430.293 389.72C429.773 389.72 429.286 389.813 428.833 390C428.393 390.173 427.986 390.42 427.613 390.74H425.613L426.113 382.86H434.873V384.8H428.053L427.733 388.72C428.106 388.427 428.553 388.2 429.073 388.04C429.606 387.88 430.213 387.807 430.893 387.82C431.8 387.82 432.586 388.007 433.253 388.38C433.933 388.753 434.453 389.28 434.813 389.96C435.186 390.627 435.373 391.413 435.373 392.32C435.373 393.347 435.14 394.22 434.673 394.94C434.22 395.66 433.6 396.213 432.813 396.6C432.04 396.987 431.166 397.18 430.193 397.18ZM438.017 399.64L437.437 398.78C437.624 398.66 437.811 398.5 437.997 398.3C438.197 398.113 438.371 397.907 438.517 397.68C438.664 397.467 438.771 397.26 438.837 397.06C438.464 397.033 438.157 396.907 437.917 396.68C437.677 396.453 437.557 396.147 437.557 395.76C437.571 395.347 437.711 395.027 437.977 394.8C438.257 394.56 438.571 394.44 438.917 394.44C439.371 394.44 439.731 394.607 439.997 394.94C440.264 395.26 440.397 395.7 440.397 396.26C440.397 396.74 440.284 397.213 440.057 397.68C439.831 398.147 439.537 398.553 439.177 398.9C438.817 399.247 438.431 399.493 438.017 399.64ZM447.793 397.16C446.78 397.16 445.92 396.98 445.213 396.62C444.506 396.247 443.933 395.733 443.493 395.08C443.053 394.413 442.726 393.647 442.513 392.78C442.313 391.9 442.213 390.953 442.213 389.94C442.213 388.927 442.313 387.987 442.513 387.12C442.713 386.24 443.033 385.473 443.473 384.82C443.926 384.153 444.506 383.633 445.213 383.26C445.933 382.887 446.793 382.7 447.793 382.7C448.86 382.7 449.746 382.9 450.453 383.3C451.173 383.7 451.746 384.247 452.173 384.94C452.613 385.62 452.92 386.393 453.093 387.26C453.28 388.127 453.373 389.02 453.373 389.94C453.373 390.86 453.28 391.753 453.093 392.62C452.906 393.487 452.6 394.26 452.173 394.94C451.746 395.62 451.173 396.16 450.453 396.56C449.733 396.96 448.846 397.16 447.793 397.16ZM447.793 395.22C448.526 395.22 449.12 395.06 449.573 394.74C450.026 394.407 450.373 393.973 450.613 393.44C450.853 392.907 451.013 392.333 451.093 391.72C451.186 391.107 451.233 390.513 451.233 389.94C451.233 389.38 451.186 388.793 451.093 388.18C451.013 387.553 450.853 386.973 450.613 386.44C450.373 385.907 450.026 385.473 449.573 385.14C449.133 384.807 448.546 384.64 447.813 384.64C447.066 384.64 446.46 384.807 445.993 385.14C445.54 385.473 445.193 385.907 444.953 386.44C444.713 386.973 444.553 387.547 444.473 388.16C444.393 388.773 444.353 389.367 444.353 389.94C444.353 390.513 444.393 391.107 444.473 391.72C444.553 392.333 444.706 392.907 444.933 393.44C445.173 393.973 445.52 394.407 445.973 394.74C446.44 395.06 447.046 395.22 447.793 395.22ZM460.855 397.16C459.842 397.16 458.982 396.98 458.275 396.62C457.568 396.247 456.995 395.733 456.555 395.08C456.115 394.413 455.788 393.647 455.575 392.78C455.375 391.9 455.275 390.953 455.275 389.94C455.275 388.927 455.375 387.987 455.575 387.12C455.775 386.24 456.095 385.473 456.535 384.82C456.988 384.153 457.568 383.633 458.275 383.26C458.995 382.887 459.855 382.7 460.855 382.7C461.922 382.7 462.808 382.9 463.515 383.3C464.235 383.7 464.808 384.247 465.235 384.94C465.675 385.62 465.982 386.393 466.155 387.26C466.342 388.127 466.435 389.02 466.435 389.94C466.435 390.86 466.342 391.753 466.155 392.62C465.968 393.487 465.662 394.26 465.235 394.94C464.808 395.62 464.235 396.16 463.515 396.56C462.795 396.96 461.908 397.16 460.855 397.16ZM460.855 395.22C461.588 395.22 462.182 395.06 462.635 394.74C463.088 394.407 463.435 393.973 463.675 393.44C463.915 392.907 464.075 392.333 464.155 391.72C464.248 391.107 464.295 390.513 464.295 389.94C464.295 389.38 464.248 388.793 464.155 388.18C464.075 387.553 463.915 386.973 463.675 386.44C463.435 385.907 463.088 385.473 462.635 385.14C462.195 384.807 461.608 384.64 460.875 384.64C460.128 384.64 459.522 384.807 459.055 385.14C458.602 385.473 458.255 385.907 458.015 386.44C457.775 386.973 457.615 387.547 457.535 388.16C457.455 388.773 457.415 389.367 457.415 389.94C457.415 390.513 457.455 391.107 457.535 391.72C457.615 392.333 457.768 392.907 457.995 393.44C458.235 393.973 458.582 394.407 459.035 394.74C459.502 395.06 460.108 395.22 460.855 395.22ZM473.917 397.16C472.903 397.16 472.043 396.98 471.337 396.62C470.63 396.247 470.057 395.733 469.617 395.08C469.177 394.413 468.85 393.647 468.637 392.78C468.437 391.9 468.337 390.953 468.337 389.94C468.337 388.927 468.437 387.987 468.637 387.12C468.837 386.24 469.157 385.473 469.597 384.82C470.05 384.153 470.63 383.633 471.337 383.26C472.057 382.887 472.917 382.7 473.917 382.7C474.983 382.7 475.87 382.9 476.577 383.3C477.297 383.7 477.87 384.247 478.297 384.94C478.737 385.62 479.043 386.393 479.217 387.26C479.403 388.127 479.497 389.02 479.497 389.94C479.497 390.86 479.403 391.753 479.217 392.62C479.03 393.487 478.723 394.26 478.297 394.94C477.87 395.62 477.297 396.16 476.577 396.56C475.857 396.96 474.97 397.16 473.917 397.16ZM473.917 395.22C474.65 395.22 475.243 395.06 475.697 394.74C476.15 394.407 476.497 393.973 476.737 393.44C476.977 392.907 477.137 392.333 477.217 391.72C477.31 391.107 477.357 390.513 477.357 389.94C477.357 389.38 477.31 388.793 477.217 388.18C477.137 387.553 476.977 386.973 476.737 386.44C476.497 385.907 476.15 385.473 475.697 385.14C475.257 384.807 474.67 384.64 473.937 384.64C473.19 384.64 472.583 384.807 472.117 385.14C471.663 385.473 471.317 385.907 471.077 386.44C470.837 386.973 470.677 387.547 470.597 388.16C470.517 388.773 470.477 389.367 470.477 389.94C470.477 390.513 470.517 391.107 470.597 391.72C470.677 392.333 470.83 392.907 471.057 393.44C471.297 393.973 471.643 394.407 472.097 394.74C472.563 395.06 473.17 395.22 473.917 395.22Z" fill="white"/>
<rect x="267.5" y="451.5" width="81" height="33" rx="3.5" stroke="url(#paint6_linear_1071_10)"/>
<path d="M278.68 477.78V475.06C277.933 474.967 277.233 474.773 276.58 474.48C275.94 474.173 275.4 473.74 274.96 473.18C274.533 472.62 274.247 471.92 274.1 471.08H276.28C276.453 471.64 276.733 472.08 277.12 472.4C277.507 472.707 277.953 472.92 278.46 473.04C278.98 473.16 279.5 473.22 280.02 473.22C280.527 473.22 280.993 473.153 281.42 473.02C281.86 472.887 282.213 472.667 282.48 472.36C282.76 472.053 282.9 471.66 282.9 471.18C282.9 470.793 282.82 470.48 282.66 470.24C282.513 470 282.307 469.807 282.04 469.66C281.773 469.5 281.46 469.373 281.1 469.28C280.593 469.12 280.073 468.993 279.54 468.9C279.007 468.793 278.493 468.68 278 468.56C277.507 468.427 277.047 468.247 276.62 468.02C276.007 467.713 275.513 467.3 275.14 466.78C274.767 466.26 274.58 465.567 274.58 464.7C274.58 463.847 274.773 463.14 275.16 462.58C275.56 462.007 276.08 461.573 276.72 461.28C277.36 460.973 278.04 460.793 278.76 460.74V458.08H280.82V460.78C281.527 460.847 282.167 461.04 282.74 461.36C283.313 461.68 283.773 462.113 284.12 462.66C284.467 463.207 284.647 463.873 284.66 464.66H282.6C282.547 464.153 282.38 463.753 282.1 463.46C281.82 463.153 281.467 462.94 281.04 462.82C280.613 462.687 280.153 462.62 279.66 462.62C279.193 462.607 278.733 462.66 278.28 462.78C277.84 462.9 277.473 463.1 277.18 463.38C276.887 463.66 276.74 464.06 276.74 464.58C276.74 464.9 276.807 465.18 276.94 465.42C277.073 465.66 277.247 465.86 277.46 466.02C277.687 466.18 277.933 466.313 278.2 466.42C278.773 466.647 279.407 466.827 280.1 466.96C280.793 467.08 281.44 467.24 282.04 467.44C282.667 467.613 283.2 467.847 283.64 468.14C284.093 468.42 284.44 468.787 284.68 469.24C284.92 469.68 285.04 470.233 285.04 470.9C285.04 471.82 284.847 472.58 284.46 473.18C284.073 473.767 283.553 474.22 282.9 474.54C282.247 474.86 281.513 475.053 280.7 475.12V477.78H278.68ZM292.104 475.18C291.491 475.18 290.911 475.107 290.364 474.96C289.817 474.813 289.317 474.593 288.864 474.3C288.424 473.993 288.051 473.613 287.744 473.16C287.451 472.693 287.244 472.14 287.124 471.5H289.244C289.364 471.847 289.564 472.147 289.844 472.4C290.137 472.653 290.471 472.853 290.844 473C291.231 473.147 291.624 473.22 292.024 473.22C292.624 473.22 293.151 473.12 293.604 472.92C294.071 472.707 294.437 472.4 294.704 472C294.971 471.6 295.104 471.087 295.104 470.46C295.104 469.593 294.837 468.92 294.304 468.44C293.771 467.96 293.071 467.72 292.204 467.72C291.684 467.72 291.197 467.813 290.744 468C290.304 468.173 289.897 468.42 289.524 468.74H287.524L288.024 460.86H296.784V462.8H289.964L289.644 466.72C290.017 466.427 290.464 466.2 290.984 466.04C291.517 465.88 292.124 465.807 292.804 465.82C293.711 465.82 294.497 466.007 295.164 466.38C295.844 466.753 296.364 467.28 296.724 467.96C297.097 468.627 297.284 469.413 297.284 470.32C297.284 471.347 297.051 472.22 296.584 472.94C296.131 473.66 295.511 474.213 294.724 474.6C293.951 474.987 293.077 475.18 292.104 475.18ZM299.928 477.64L299.348 476.78C299.535 476.66 299.722 476.5 299.908 476.3C300.108 476.113 300.282 475.907 300.428 475.68C300.575 475.467 300.682 475.26 300.748 475.06C300.375 475.033 300.068 474.907 299.828 474.68C299.588 474.453 299.468 474.147 299.468 473.76C299.482 473.347 299.622 473.027 299.888 472.8C300.168 472.56 300.482 472.44 300.828 472.44C301.282 472.44 301.642 472.607 301.908 472.94C302.175 473.26 302.308 473.7 302.308 474.26C302.308 474.74 302.195 475.213 301.968 475.68C301.742 476.147 301.448 476.553 301.088 476.9C300.728 477.247 300.342 477.493 299.928 477.64ZM309.704 475.16C308.691 475.16 307.831 474.98 307.124 474.62C306.417 474.247 305.844 473.733 305.404 473.08C304.964 472.413 304.637 471.647 304.424 470.78C304.224 469.9 304.124 468.953 304.124 467.94C304.124 466.927 304.224 465.987 304.424 465.12C304.624 464.24 304.944 463.473 305.384 462.82C305.837 462.153 306.417 461.633 307.124 461.26C307.844 460.887 308.704 460.7 309.704 460.7C310.771 460.7 311.657 460.9 312.364 461.3C313.084 461.7 313.657 462.247 314.084 462.94C314.524 463.62 314.831 464.393 315.004 465.26C315.191 466.127 315.284 467.02 315.284 467.94C315.284 468.86 315.191 469.753 315.004 470.62C314.817 471.487 314.511 472.26 314.084 472.94C313.657 473.62 313.084 474.16 312.364 474.56C311.644 474.96 310.757 475.16 309.704 475.16ZM309.704 473.22C310.437 473.22 311.031 473.06 311.484 472.74C311.937 472.407 312.284 471.973 312.524 471.44C312.764 470.907 312.924 470.333 313.004 469.72C313.097 469.107 313.144 468.513 313.144 467.94C313.144 467.38 313.097 466.793 313.004 466.18C312.924 465.553 312.764 464.973 312.524 464.44C312.284 463.907 311.937 463.473 311.484 463.14C311.044 462.807 310.457 462.64 309.724 462.64C308.977 462.64 308.371 462.807 307.904 463.14C307.451 463.473 307.104 463.907 306.864 464.44C306.624 464.973 306.464 465.547 306.384 466.16C306.304 466.773 306.264 467.367 306.264 467.94C306.264 468.513 306.304 469.107 306.384 469.72C306.464 470.333 306.617 470.907 306.844 471.44C307.084 471.973 307.431 472.407 307.884 472.74C308.351 473.06 308.957 473.22 309.704 473.22ZM322.766 475.16C321.752 475.16 320.892 474.98 320.186 474.62C319.479 474.247 318.906 473.733 318.466 473.08C318.026 472.413 317.699 471.647 317.486 470.78C317.286 469.9 317.186 468.953 317.186 467.94C317.186 466.927 317.286 465.987 317.486 465.12C317.686 464.24 318.006 463.473 318.446 462.82C318.899 462.153 319.479 461.633 320.186 461.26C320.906 460.887 321.766 460.7 322.766 460.7C323.832 460.7 324.719 460.9 325.426 461.3C326.146 461.7 326.719 462.247 327.146 462.94C327.586 463.62 327.892 464.393 328.066 465.26C328.252 466.127 328.346 467.02 328.346 467.94C328.346 468.86 328.252 469.753 328.066 470.62C327.879 471.487 327.572 472.26 327.146 472.94C326.719 473.62 326.146 474.16 325.426 474.56C324.706 474.96 323.819 475.16 322.766 475.16ZM322.766 473.22C323.499 473.22 324.092 473.06 324.546 472.74C324.999 472.407 325.346 471.973 325.586 471.44C325.826 470.907 325.986 470.333 326.066 469.72C326.159 469.107 326.206 468.513 326.206 467.94C326.206 467.38 326.159 466.793 326.066 466.18C325.986 465.553 325.826 464.973 325.586 464.44C325.346 463.907 324.999 463.473 324.546 463.14C324.106 462.807 323.519 462.64 322.786 462.64C322.039 462.64 321.432 462.807 320.966 463.14C320.512 463.473 320.166 463.907 319.926 464.44C319.686 464.973 319.526 465.547 319.446 466.16C319.366 466.773 319.326 467.367 319.326 467.94C319.326 468.513 319.366 469.107 319.446 469.72C319.526 470.333 319.679 470.907 319.906 471.44C320.146 471.973 320.492 472.407 320.946 472.74C321.412 473.06 322.019 473.22 322.766 473.22ZM335.828 475.16C334.814 475.16 333.954 474.98 333.248 474.62C332.541 474.247 331.968 473.733 331.528 473.08C331.088 472.413 330.761 471.647 330.548 470.78C330.348 469.9 330.248 468.953 330.248 467.94C330.248 466.927 330.348 465.987 330.548 465.12C330.748 464.24 331.068 463.473 331.508 462.82C331.961 462.153 332.541 461.633 333.248 461.26C333.968 460.887 334.828 460.7 335.828 460.7C336.894 460.7 337.781 460.9 338.488 461.3C339.208 461.7 339.781 462.247 340.207 462.94C340.648 463.62 340.954 464.393 341.128 465.26C341.314 466.127 341.408 467.02 341.408 467.94C341.408 468.86 341.314 469.753 341.128 470.62C340.941 471.487 340.634 472.26 340.207 472.94C339.781 473.62 339.208 474.16 338.488 474.56C337.768 474.96 336.881 475.16 335.828 475.16ZM335.828 473.22C336.561 473.22 337.154 473.06 337.608 472.74C338.061 472.407 338.408 471.973 338.648 471.44C338.888 470.907 339.048 470.333 339.128 469.72C339.221 469.107 339.268 468.513 339.268 467.94C339.268 467.38 339.221 466.793 339.128 466.18C339.048 465.553 338.888 464.973 338.648 464.44C338.408 463.907 338.061 463.473 337.608 463.14C337.168 462.807 336.581 462.64 335.848 462.64C335.101 462.64 334.494 462.807 334.028 463.14C333.574 463.473 333.228 463.907 332.988 464.44C332.748 464.973 332.588 465.547 332.508 466.16C332.428 466.773 332.388 467.367 332.388 467.94C332.388 468.513 332.428 469.107 332.508 469.72C332.588 470.333 332.741 470.907 332.968 471.44C333.208 471.973 333.554 472.407 334.008 472.74C334.474 473.06 335.081 473.22 335.828 473.22Z" fill="white"/>
<defs>
<filter id="filter0_d_1071_10" x="41" y="58" width="560" height="585" filterUnits="userSpaceOnUse" color-interpolation-filters="sRGB">
<feFlood flood-opacity="0" result="BackgroundImageFix"/>
<feColorMatrix in="SourceAlpha" type="matrix" values="0 0 0 0 0 0 0 0 0 0 0 0 0 0 0 0 0 0 127 0" result="hardAlpha"/>
<feOffset/>
<feGaussianBlur stdDeviation="10"/>
<feComposite in2="hardAlpha" operator="out"/>
<feColorMatrix type="matrix" values="0 0 0 0 0.679166 0 0 0 0 0.641249 0 0 0 0 1 0 0 0 0.2 0"/>
<feBlend mode="normal" in2="BackgroundImageFix" result="effect1_dropShadow_1071_10"/>
<feBlend mode="normal" in="SourceGraphic" in2="effect1_dropShadow_1071_10" result="shape"/>
</filter>
<radialGradient id="paint0_radial_1071_10" cx="0" cy="0" r="1" gradientUnits="userSpaceOnUse" gradientTransform="translate(305.583 340.393) rotate(87.8769) scale(258.683 303.614)">
<stop stop-color="#05060F" stop-opacity="0"/>
<stop offset="1" stop-color="white" stop-opacity="0.1"/>
</radialGradient>
<radialGradient id="paint1_radial_1071_10" cx="0" cy="0" r="1" gradientUnits="userSpaceOnUse" gradientTransform="translate(213.227 153) rotate(90.0754) scale(172.312 317.604)">
<stop stop-color="#4930B3" stop-opacity="0.2"/>
<stop offset="1" stop-color="#010013" stop-opacity="0"/>
</radialGradient>
<linearGradient id="paint2_linear_1071_10" x1="111.351" y1="131" x2="111.351" y2="97" gradientUnits="userSpaceOnUse">
<stop stop-color="#5945FD"/>
<stop offset="1" stop-color="#B7AEFF"/>
</linearGradient>
<linearGradient id="paint3_linear_1071_10" x1="235.898" y1="283" x2="235.898" y2="249" gradientUnits="userSpaceOnUse">
<stop stop-color="#5945FD"/>
<stop offset="1" stop-color="#B7AEFF"/>
</linearGradient>
<linearGradient id="paint4_linear_1071_10" x1="330.392" y1="359" x2="330.392" y2="325" gradientUnits="userSpaceOnUse">
<stop stop-color="#5945FD"/>
<stop offset="1" stop-color="#B7AEFF"/>
</linearGradient>
<linearGradient id="paint5_linear_1071_10" x1="440.395" y1="407" x2="440.395" y2="373" gradientUnits="userSpaceOnUse">
<stop stop-color="#5945FD"/>
<stop offset="1" stop-color="#B7AEFF"/>
</linearGradient>
<linearGradient id="paint6_linear_1071_10" x1="307.907" y1="485" x2="307.907" y2="451" gradientUnits="userSpaceOnUse">
<stop stop-color="#5945FD"/>
<stop offset="1" stop-color="#B7AEFF"/>
</linearGradient>
</defs>
</svg>
