<svg width="601" height="643" viewBox="0 0 601 643" fill="none" xmlns="http://www.w3.org/2000/svg">
<g filter="url(#filter0_d_1071_10)">
<path fill-rule="evenodd" clip-rule="evenodd" d="M61.1036 79.9046C60.657 80.991 61.6966 89.7319 63.4153 99.3287C65.1341 108.926 70.1539 137.576 74.5692 162.994C90.3724 253.957 102.388 320.54 104.546 329.104C106.741 337.814 110.513 347.833 115.388 357.906C123.998 375.689 132.639 397.358 132.639 401.162C132.639 402.223 130.01 405.334 126.796 408.075C121.292 412.767 120.668 414.102 116.06 431.027C110.212 452.505 110.001 459.072 114.709 472.827C119.054 485.522 119.124 489.942 115.28 509.08L112.281 524.015L119.723 540.76C123.817 549.97 128.693 561.941 130.557 567.362C134.979 580.217 137.294 583.341 143.037 584.21C148.156 584.985 171.472 586.238 257.56 590.368C306.962 592.739 348.891 594.977 396.121 597.764C416.298 598.955 415.059 598.264 416.214 608.99C417.533 621.242 418.81 622.689 428.512 622.942C436.27 623.144 436.346 623.107 439.169 617.787C441.561 613.281 442.018 609.638 442.041 594.891C442.081 570.049 442.748 569.607 468.087 577.685C480.888 581.765 485.928 582.629 502.771 583.627C520.398 584.672 522.727 584.557 524.824 582.537C528.645 578.86 541.126 543.117 546.887 519.358C552.373 496.729 553.444 493.948 565.984 469.762C576.342 449.787 578.973 442.932 580.051 433.111L581 424.469L566.097 424.008C553.703 423.623 549.988 422.982 544.016 420.197L536.837 416.848L533.625 400.103C531.859 390.893 529.846 382.152 529.152 380.679C528.46 379.205 527.673 377.397 527.405 376.66C526.75 374.864 517.394 367.815 512.065 365.102C508.536 363.307 507.595 361.77 506.735 356.395C506.161 352.804 503.459 343.84 500.729 336.472C497.985 329.061 496.062 321.58 496.429 319.727C497.692 313.323 492.679 308.505 475.38 299.503C470.798 297.119 465.452 293.396 463.5 291.233C459.063 286.312 439.167 255.116 439.598 253.752C439.773 253.199 439.424 252.897 438.824 253.082C436.478 253.802 421.377 236.73 419.932 231.725C418.841 227.947 415.896 224.466 408.799 218.569C379.449 194.18 379.839 194.678 361.307 157.636C354.616 144.26 352.467 142.201 343.158 140.256C339.165 139.42 333.657 136.882 330.258 134.311C326.997 131.842 320.745 127.703 316.369 125.111C306.206 119.094 304.349 116.927 304.521 111.267C304.714 104.923 307.909 100.916 317.193 95.3756C325.125 90.6428 328.447 85.9917 327.623 80.7767C327.202 78.1109 326.191 78.0894 194.558 78.0104C78.95 77.9407 61.8114 78.1832 61.1036 79.9046Z" fill="url(#paint0_radial_1071_10)"/>
<path d="M194.558 79.0107C260.382 79.0503 293.528 79.0747 310.274 79.4229C318.671 79.5974 322.872 79.8536 324.996 80.2168C326.082 80.4026 326.452 80.5924 326.565 80.6816C326.572 80.6853 326.583 80.6632 326.606 80.7715L326.636 80.9326C327.334 85.3521 324.718 89.5531 317.403 94.0781L316.681 94.5166C312.01 97.3039 308.764 99.7654 306.666 102.396C304.534 105.07 303.624 107.872 303.521 111.236C303.431 114.217 303.881 116.451 305.81 118.705C307.418 120.584 310.032 122.445 314.05 124.887L315.859 125.971C319.939 128.387 325.66 132.158 329.016 134.632L329.654 135.108C333.056 137.681 338.459 140.205 342.561 141.148L342.953 141.234V141.235C347.563 142.199 350.195 143.153 352.522 145.382C354.615 147.386 356.514 150.466 359.207 155.703L360.413 158.083C369.658 176.564 374.243 185.81 380.207 193.462C385.431 200.164 391.705 205.633 403 215.047L408.159 219.338C415.038 225.053 417.8 228.339 418.873 231.679L418.972 232.003C419.188 232.751 419.633 233.651 420.201 234.616C420.778 235.596 421.513 236.698 422.353 237.86C424.031 240.186 426.15 242.792 428.291 245.213C430.43 247.632 432.612 249.886 434.42 251.499C435.32 252.302 436.155 252.97 436.861 253.42C437.213 253.644 437.565 253.834 437.901 253.956C438.096 254.026 438.347 254.096 438.622 254.103C438.63 254.141 438.638 254.178 438.646 254.211C438.688 254.373 438.75 254.548 438.819 254.719C438.959 255.065 439.17 255.504 439.431 256.01C439.955 257.027 440.725 258.396 441.665 259.998C443.548 263.206 446.14 267.398 448.881 271.696C451.622 275.995 454.517 280.407 457.007 284.056C459.326 287.454 461.329 290.244 462.528 291.642L462.757 291.902H462.758C463.814 293.073 465.717 294.597 467.883 296.105C469.794 297.436 471.961 298.789 474.036 299.92L474.918 300.391H474.919C483.571 304.893 489.03 308.291 492.173 311.311C493.732 312.809 494.676 314.172 495.17 315.483C495.628 316.699 495.722 317.927 495.497 319.265L495.447 319.533C495.317 320.192 495.402 321.17 495.572 322.24C495.75 323.359 496.051 324.732 496.444 326.264C497.133 328.946 498.121 332.158 499.283 335.42L499.791 336.819C502.347 343.719 504.856 351.961 505.619 355.837L505.748 356.553C506.179 359.247 506.65 361.15 507.546 362.613C508.355 363.934 509.457 364.818 510.948 365.643L511.611 365.993C514.202 367.312 517.82 369.714 520.886 372.023C522.415 373.175 523.786 374.289 524.809 375.218C525.321 375.683 525.732 376.09 526.028 376.423C526.176 376.589 526.287 376.728 526.364 376.838L526.465 377.002C526.678 377.588 527.184 378.771 527.716 379.949L528.247 381.104V381.104C528.375 381.377 528.611 382.109 528.93 383.299C529.239 384.454 529.608 385.96 530.012 387.714C530.617 390.344 531.299 393.519 531.974 396.881L532.643 400.291L535.854 417.036L535.951 417.538L536.414 417.754L543.594 421.104C549.369 423.797 553.141 424.532 563.833 424.932L566.066 425.008L579.888 425.434L579.057 433.001C578.066 442.02 575.764 448.482 566.947 465.709L565.096 469.302C558.832 481.384 555.402 488.176 552.857 494.784C550.628 500.573 549.083 506.207 546.896 515.101L545.915 519.122C543.044 530.962 538.494 545.805 534.184 558.148C532.029 564.32 529.938 569.852 528.152 574.064C527.259 576.172 526.448 577.936 525.747 579.278C525.116 580.488 524.617 581.269 524.271 581.669L524.131 581.816C523.685 582.246 523.265 582.543 522.64 582.764C521.983 582.995 521.055 583.159 519.571 583.232C516.963 583.361 512.866 583.204 505.964 582.812L502.83 582.629C487.099 581.697 481.761 580.889 470.687 577.455L468.391 576.732C462.074 574.719 457.22 573.211 453.524 572.491C449.876 571.781 447.054 571.768 445.025 573.108C442.968 574.467 442.044 576.998 441.573 580.451C441.158 583.504 441.069 587.53 441.047 592.635L441.041 594.889V594.89C441.019 609.216 440.572 612.843 438.492 616.922L438.285 617.318C437.569 618.667 437.067 619.605 436.585 620.291C436.121 620.952 435.724 621.308 435.256 621.535C434.764 621.773 434.096 621.916 433.002 621.972C432.181 622.014 431.179 622.005 429.905 621.977L428.538 621.942C426.118 621.879 424.311 621.742 422.917 621.406C421.551 621.077 420.646 620.571 419.97 619.805C419.275 619.016 418.738 617.858 418.299 616.065C417.914 614.498 417.619 612.518 417.331 609.997L417.208 608.883C416.927 606.273 416.778 604.188 416.396 602.639C415.99 600.999 415.28 599.762 413.789 598.929C412.409 598.158 410.444 597.787 407.709 597.518C406.326 597.381 404.7 597.267 402.791 597.15L396.181 596.766C354.851 594.326 317.58 592.309 275.81 590.254L257.607 589.369C214.564 587.304 187.216 585.959 169.989 585.032C153.81 584.162 146.606 583.664 143.71 583.294L143.187 583.222C141.828 583.016 140.732 582.686 139.776 582.147C138.825 581.612 137.961 580.841 137.105 579.686C135.47 577.477 133.924 573.954 131.911 568.215L131.502 567.037C129.742 561.917 125.335 551.048 121.414 542.113L120.637 540.354L113.323 523.9L116.261 509.277C118.181 499.717 119.148 493.728 119.065 488.521C118.988 483.606 117.976 479.435 116.052 473.677L115.655 472.503C113.321 465.683 112.236 460.732 112.426 454.855C112.605 449.309 113.92 442.889 116.493 433.26L117.025 431.29C119.339 422.792 120.623 418.327 121.998 415.388C123.161 412.901 124.381 411.521 126.486 409.665L127.445 408.836C129.087 407.435 130.588 405.934 131.687 404.634C132.234 403.986 132.698 403.369 133.03 402.827C133.196 402.557 133.34 402.287 133.445 402.029C133.545 401.784 133.639 401.48 133.639 401.162C133.639 400.55 133.474 399.689 133.22 398.693C132.959 397.671 132.58 396.418 132.104 394.984C131.15 392.115 129.793 388.473 128.171 384.405C125.129 376.777 121.14 367.613 117.098 359.152L116.288 357.47C111.739 348.071 108.163 338.735 105.941 330.493L105.516 328.86C103.504 320.876 92.8257 261.908 78.4727 179.59L75.5547 162.823C71.1394 137.405 66.1187 108.752 64.3994 99.1523C63.5428 94.3691 62.8566 89.804 62.4404 86.3066C62.2322 84.5564 62.0931 83.0852 62.0332 81.9932C62.0032 81.4459 61.9942 81.0091 62.0039 80.6875C62.007 80.585 62.0115 80.5043 62.0166 80.4424C62.124 80.4028 62.2852 80.3542 62.5186 80.3018C63.2064 80.1472 64.3259 80.0012 66.0723 79.8701C69.5512 79.609 75.3453 79.4197 84.7578 79.2861C101.221 79.0526 128.68 78.9896 174.014 79.001L194.558 79.0107Z" stroke="#CFC9FF" stroke-opacity="0.6" stroke-width="2"/>
</g>
<path d="M248 309.545C248 321.636 232 332 232 332C232 332 216 321.636 216 309.545C216 305.423 217.686 301.468 220.686 298.553C223.687 295.638 227.757 294 232 294C236.243 294 240.313 295.638 243.314 298.553C246.314 301.468 248 305.423 248 309.545Z" stroke="white" stroke-opacity="0.4" stroke-width="2" stroke-linecap="round" stroke-linejoin="round"/>
<path d="M232 314.727C234.946 314.727 237.333 312.407 237.333 309.545C237.333 306.684 234.946 304.364 232 304.364C229.054 304.364 226.667 306.684 226.667 309.545C226.667 312.407 229.054 314.727 232 314.727Z" stroke="white" stroke-opacity="0.4" stroke-width="2" stroke-linecap="round" stroke-linejoin="round"/>
<path d="M340 388.545C340 400.636 324 411 324 411C324 411 308 400.636 308 388.545C308 384.423 309.686 380.468 312.686 377.553C315.687 374.638 319.757 373 324 373C328.243 373 332.313 374.638 335.314 377.553C338.314 380.468 340 384.423 340 388.545Z" stroke="white" stroke-opacity="0.4" stroke-width="2" stroke-linecap="round" stroke-linejoin="round"/>
<path d="M324 393.727C326.946 393.727 329.333 391.407 329.333 388.545C329.333 385.684 326.946 383.364 324 383.364C321.054 383.364 318.667 385.684 318.667 388.545C318.667 391.407 321.054 393.727 324 393.727Z" stroke="white" stroke-opacity="0.4" stroke-width="2" stroke-linecap="round" stroke-linejoin="round"/>
<path d="M458 434.545C458 446.636 442 457 442 457C442 457 426 446.636 426 434.545C426 430.423 427.686 426.468 430.686 423.553C433.687 420.638 437.757 419 442 419C446.243 419 450.313 420.638 453.314 423.553C456.314 426.468 458 430.423 458 434.545Z" stroke="white" stroke-opacity="0.4" stroke-width="2" stroke-linecap="round" stroke-linejoin="round"/>
<path d="M442 439.727C444.946 439.727 447.333 437.407 447.333 434.545C447.333 431.684 444.946 429.364 442 429.364C439.054 429.364 436.667 431.684 436.667 434.545C436.667 437.407 439.054 439.727 442 439.727Z" stroke="white" stroke-opacity="0.4" stroke-width="2" stroke-linecap="round" stroke-linejoin="round"/>
<path d="M324 513.545C324 525.636 308 536 308 536C308 536 292 525.636 292 513.545C292 509.423 293.686 505.468 296.686 502.553C299.687 499.638 303.757 498 308 498C312.243 498 316.313 499.638 319.314 502.553C322.314 505.468 324 509.423 324 513.545Z" stroke="white" stroke-opacity="0.4" stroke-width="2" stroke-linecap="round" stroke-linejoin="round"/>
<path d="M308 518.727C310.946 518.727 313.333 516.407 313.333 513.545C313.333 510.684 310.946 508.364 308 508.364C305.054 508.364 302.667 510.684 302.667 513.545C302.667 516.407 305.054 518.727 308 518.727Z" stroke="white" stroke-opacity="0.4" stroke-width="2" stroke-linecap="round" stroke-linejoin="round"/>
<rect width="426" height="306" fill="url(#paint1_radial_1071_10)"/>
<path d="M221.32 156.256C218.995 156.256 216.989 155.765 215.304 154.784C213.64 153.803 212.36 152.448 211.464 150.72C210.589 148.971 210.152 146.965 210.152 144.704C210.152 142.4 210.6 140.373 211.496 138.624C212.413 136.875 213.715 135.52 215.4 134.56C217.085 133.579 219.091 133.088 221.416 133.088C223.72 133.088 225.704 133.568 227.368 134.528C229.032 135.488 230.312 136.832 231.208 138.56C232.125 140.288 232.584 142.304 232.584 144.608C232.584 146.869 232.125 148.885 231.208 150.656C230.312 152.405 229.021 153.781 227.336 154.784C225.672 155.765 223.667 156.256 221.32 156.256ZM221.384 151.968C222.92 151.968 224.168 151.616 225.128 150.912C226.088 150.208 226.781 149.301 227.208 148.192C227.656 147.083 227.88 145.92 227.88 144.704C227.88 143.808 227.752 142.923 227.496 142.048C227.261 141.173 226.888 140.384 226.376 139.68C225.864 138.976 225.192 138.421 224.36 138.016C223.528 137.589 222.525 137.376 221.352 137.376C219.837 137.376 218.6 137.728 217.64 138.432C216.68 139.115 215.965 140.011 215.496 141.12C215.048 142.229 214.824 143.413 214.824 144.672C214.824 145.931 215.048 147.115 215.496 148.224C215.965 149.333 216.68 150.24 217.64 150.944C218.621 151.627 219.869 151.968 221.384 151.968ZM235.51 156V139.136H239.542L239.83 141.152C240.257 140.512 240.737 140.032 241.27 139.712C241.803 139.371 242.358 139.147 242.934 139.04C243.51 138.912 244.097 138.848 244.694 138.848C244.971 138.848 245.227 138.859 245.462 138.88C245.697 138.88 245.867 138.88 245.974 138.88V143.2H244.918C243.915 143.2 243.041 143.371 242.294 143.712C241.547 144.053 240.971 144.587 240.566 145.312C240.182 146.037 239.99 146.965 239.99 148.096V156H235.51ZM257.673 156.224C257.118 156.224 256.531 156.171 255.913 156.064C255.315 155.957 254.718 155.755 254.121 155.456C253.545 155.136 253.001 154.688 252.489 154.112L252.457 156H248.073V133.344H252.553V141.12C253.193 140.352 253.982 139.787 254.921 139.424C255.881 139.04 256.873 138.848 257.897 138.848C259.561 138.848 260.926 139.232 261.993 140C263.059 140.747 263.849 141.771 264.361 143.072C264.894 144.373 265.161 145.867 265.161 147.552C265.161 149.195 264.894 150.677 264.361 152C263.827 153.301 263.006 154.336 261.897 155.104C260.809 155.851 259.401 156.224 257.673 156.224ZM256.713 152.224C257.758 152.224 258.569 151.989 259.145 151.52C259.721 151.051 260.126 150.453 260.361 149.728C260.595 149.003 260.713 148.245 260.713 147.456C260.713 146.667 260.585 145.931 260.329 145.248C260.073 144.544 259.646 143.989 259.049 143.584C258.473 143.157 257.694 142.944 256.713 142.944C255.817 142.944 255.049 143.168 254.409 143.616C253.79 144.043 253.321 144.608 253.001 145.312C252.681 146.016 252.521 146.773 252.521 147.584C252.521 148.395 252.659 149.163 252.937 149.888C253.235 150.592 253.694 151.157 254.312 151.584C254.931 152.011 255.731 152.224 256.713 152.224ZM268.041 156V139.136H272.521V156H268.041ZM270.281 137.44C269.449 137.44 268.777 137.195 268.265 136.704C267.753 136.192 267.497 135.541 267.497 134.752C267.497 133.92 267.764 133.248 268.297 132.736C268.831 132.224 269.503 131.968 270.313 131.968C271.06 131.968 271.7 132.224 272.233 132.736C272.788 133.227 273.065 133.888 273.065 134.72C273.065 135.531 272.799 136.192 272.265 136.704C271.753 137.195 271.092 137.44 270.281 137.44ZM283.72 156C282.313 156 281.129 155.829 280.169 155.488C279.23 155.147 278.515 154.571 278.025 153.76C277.555 152.928 277.321 151.797 277.321 150.368V143.136H274.825V139.136H277.321V134.624H281.801V139.136H285.481V143.136H281.801V149.728C281.801 150.432 281.929 150.987 282.185 151.392C282.441 151.797 283.017 152 283.913 152H285.321V156H283.72ZM287.791 156V133.344H292.271V156H287.791ZM303.279 163.776C301.977 163.776 300.708 163.605 299.471 163.264C298.233 162.923 297.071 162.347 295.983 161.536L297.487 157.952C298.169 158.464 298.948 158.869 299.823 159.168C300.697 159.488 301.668 159.648 302.735 159.648C304.377 159.648 305.593 159.264 306.383 158.496C307.193 157.728 307.599 156.619 307.599 155.168V154.272C307.236 154.763 306.777 155.157 306.223 155.456C305.689 155.733 305.113 155.936 304.495 156.064C303.876 156.192 303.257 156.256 302.639 156.256C301.017 156.256 299.716 155.915 298.735 155.232C297.753 154.549 297.039 153.621 296.591 152.448C296.164 151.253 295.951 149.899 295.951 148.384V139.136H300.431V147.456C300.431 148.011 300.463 148.565 300.527 149.12C300.591 149.675 300.74 150.187 300.975 150.656C301.209 151.125 301.561 151.509 302.031 151.808C302.5 152.085 303.129 152.224 303.919 152.224C304.943 152.224 305.711 151.979 306.223 151.488C306.735 150.976 307.076 150.336 307.247 149.568C307.439 148.8 307.535 148 307.535 147.168V139.136H312.015V153.568C312.015 155.104 311.865 156.501 311.567 157.76C311.289 159.019 310.809 160.096 310.127 160.992C309.465 161.888 308.569 162.571 307.439 163.04C306.329 163.531 304.943 163.776 303.279 163.776Z" fill="white"/>
<path fill-rule="evenodd" clip-rule="evenodd" d="M174.954 125.351C171.506 126.025 168.175 127.722 165.566 130.135C161.337 134.047 159.379 138.461 159.372 144.104L159.368 146.844L158.551 146.995C157.561 147.177 155.832 146.827 155.341 146.346C154.738 145.755 155.184 144.851 156.611 143.771C157.837 142.842 157.925 142.709 157.926 141.775C157.927 141.224 157.868 140.774 157.795 140.774C157.164 140.774 153.843 142.97 152.068 144.56C149.859 146.54 149.461 147.815 150.677 149.008C151.697 150.009 153.468 150.28 157.927 150.121C162.228 149.967 165.682 149.331 170.127 147.874C179.205 144.897 184.167 140.45 184.155 135.299C184.153 134.425 184.211 133.71 184.284 133.71C184.358 133.71 184.927 134.231 185.55 134.867C188.414 137.796 193.992 139.071 198.09 137.734C199.648 137.226 202.143 135.819 203.288 134.803C204.119 134.066 205 132.624 205 132C205 131.221 204.38 130.466 203.363 130.006C202.645 129.681 201.722 129.604 198.476 129.597C196.274 129.592 194.396 129.664 194.301 129.757C194.207 129.849 194.441 130.273 194.82 130.699C195.452 131.406 195.634 131.474 196.955 131.493C198.611 131.516 199.476 131.875 199.476 132.538C199.476 133.095 198.436 134.108 197.12 134.834L196.154 135.366L195.259 133.922C191.211 127.389 182.767 123.824 174.954 125.351ZM195.974 140.328C194.036 141.647 193.566 142.094 192.498 143.626C191.144 145.571 190.505 147.604 190.675 149.428C190.75 150.238 190.729 150.9 190.627 150.9C190.525 150.9 190.104 150.429 189.69 149.853C188.846 148.68 187.085 147.583 185.066 146.972C182.964 146.337 178.657 146.396 176.615 147.088C172.148 148.601 169.396 151.707 169.376 155.256C169.365 157.311 170.028 158.91 171.451 160.263C173.152 161.88 174.663 162.53 177.545 162.885C182.8 163.531 188.772 161.419 192.66 157.539C196.273 153.933 198.27 149.275 198.274 144.443C198.275 142.258 197.874 139.361 197.57 139.361C197.473 139.361 196.755 139.796 195.974 140.328Z" fill="white"/>
<circle cx="112" cy="162" r="9" fill="white" stroke="#5945FD" stroke-width="4"/>
<circle cx="112" cy="161.5" r="16" stroke="#5945FD" stroke-opacity="0.3"/>
<circle cx="112" cy="162" r="26.5" stroke="#5945FD" stroke-opacity="0.1"/>
<rect x="83.5" y="108.5" width="62" height="33" rx="3.5" fill="#5945FD"/>
<rect x="83.5" y="108.5" width="62" height="33" rx="3.5" stroke="url(#paint2_linear_1071_10)"/>
<path d="M94.68 134.78V132.06C93.9333 131.967 93.2333 131.773 92.58 131.48C91.94 131.173 91.4 130.74 90.96 130.18C90.5333 129.62 90.2467 128.92 90.1 128.08H92.28C92.4533 128.64 92.7333 129.08 93.12 129.4C93.5067 129.707 93.9533 129.92 94.46 130.04C94.98 130.16 95.5 130.22 96.02 130.22C96.5267 130.22 96.9933 130.153 97.42 130.02C97.86 129.887 98.2133 129.667 98.48 129.36C98.76 129.053 98.9 128.66 98.9 128.18C98.9 127.793 98.82 127.48 98.66 127.24C98.5133 127 98.3067 126.807 98.04 126.66C97.7733 126.5 97.46 126.373 97.1 126.28C96.5933 126.12 96.0733 125.993 95.54 125.9C95.0067 125.793 94.4933 125.68 94 125.56C93.5067 125.427 93.0467 125.247 92.62 125.02C92.0067 124.713 91.5133 124.3 91.14 123.78C90.7667 123.26 90.58 122.567 90.58 121.7C90.58 120.847 90.7733 120.14 91.16 119.58C91.56 119.007 92.08 118.573 92.72 118.28C93.36 117.973 94.04 117.793 94.76 117.74V115.08H96.82V117.78C97.5267 117.847 98.1667 118.04 98.74 118.36C99.3133 118.68 99.7733 119.113 100.12 119.66C100.467 120.207 100.647 120.873 100.66 121.66H98.6C98.5467 121.153 98.38 120.753 98.1 120.46C97.82 120.153 97.4667 119.94 97.04 119.82C96.6133 119.687 96.1533 119.62 95.66 119.62C95.1933 119.607 94.7333 119.66 94.28 119.78C93.84 119.9 93.4733 120.1 93.18 120.38C92.8867 120.66 92.74 121.06 92.74 121.58C92.74 121.9 92.8067 122.18 92.94 122.42C93.0733 122.66 93.2467 122.86 93.46 123.02C93.6867 123.18 93.9333 123.313 94.2 123.42C94.7733 123.647 95.4067 123.827 96.1 123.96C96.7933 124.08 97.44 124.24 98.04 124.44C98.6667 124.613 99.2 124.847 99.64 125.14C100.093 125.42 100.44 125.787 100.68 126.24C100.92 126.68 101.04 127.233 101.04 127.9C101.04 128.82 100.847 129.58 100.46 130.18C100.073 130.767 99.5533 131.22 98.9 131.54C98.2467 131.86 97.5133 132.053 96.7 132.12V134.78H94.68ZM102.504 132V130.24L106.484 126.84C106.817 126.56 107.184 126.247 107.584 125.9C107.997 125.553 108.391 125.18 108.764 124.78C109.151 124.38 109.464 123.953 109.704 123.5C109.957 123.047 110.084 122.573 110.084 122.08C110.084 121.32 109.851 120.727 109.384 120.3C108.931 119.873 108.311 119.66 107.524 119.66C106.857 119.66 106.291 119.8 105.824 120.08C105.371 120.36 105.071 120.753 104.924 121.26H102.764C102.884 120.447 103.184 119.78 103.664 119.26C104.144 118.74 104.731 118.353 105.424 118.1C106.117 117.833 106.844 117.7 107.604 117.7C108.484 117.7 109.271 117.86 109.964 118.18C110.657 118.5 111.204 118.973 111.604 119.6C112.004 120.213 112.204 120.967 112.204 121.86C112.204 122.7 112.044 123.447 111.724 124.1C111.404 124.753 110.977 125.347 110.444 125.88C109.924 126.413 109.357 126.933 108.744 127.44L105.604 130.06H112.304V132H102.504ZM119.693 132.16C118.68 132.16 117.82 131.98 117.113 131.62C116.406 131.247 115.833 130.733 115.393 130.08C114.953 129.413 114.626 128.647 114.413 127.78C114.213 126.9 114.113 125.953 114.113 124.94C114.113 123.927 114.213 122.987 114.413 122.12C114.613 121.24 114.933 120.473 115.373 119.82C115.826 119.153 116.406 118.633 117.113 118.26C117.833 117.887 118.693 117.7 119.693 117.7C120.76 117.7 121.646 117.9 122.353 118.3C123.073 118.7 123.646 119.247 124.073 119.94C124.513 120.62 124.82 121.393 124.993 122.26C125.18 123.127 125.273 124.02 125.273 124.94C125.273 125.86 125.18 126.753 124.993 127.62C124.806 128.487 124.5 129.26 124.073 129.94C123.646 130.62 123.073 131.16 122.353 131.56C121.633 131.96 120.746 132.16 119.693 132.16ZM119.693 130.22C120.426 130.22 121.02 130.06 121.473 129.74C121.926 129.407 122.273 128.973 122.513 128.44C122.753 127.907 122.913 127.333 122.993 126.72C123.086 126.107 123.133 125.513 123.133 124.94C123.133 124.38 123.086 123.793 122.993 123.18C122.913 122.553 122.753 121.973 122.513 121.44C122.273 120.907 121.926 120.473 121.473 120.14C121.033 119.807 120.446 119.64 119.713 119.64C118.966 119.64 118.36 119.807 117.893 120.14C117.44 120.473 117.093 120.907 116.853 121.44C116.613 121.973 116.453 122.547 116.373 123.16C116.293 123.773 116.253 124.367 116.253 124.94C116.253 125.513 116.293 126.107 116.373 126.72C116.453 127.333 116.606 127.907 116.833 128.44C117.073 128.973 117.42 129.407 117.873 129.74C118.34 130.06 118.946 130.22 119.693 130.22ZM132.755 132.16C131.742 132.16 130.882 131.98 130.175 131.62C129.468 131.247 128.895 130.733 128.455 130.08C128.015 129.413 127.688 128.647 127.475 127.78C127.275 126.9 127.175 125.953 127.175 124.94C127.175 123.927 127.275 122.987 127.475 122.12C127.675 121.24 127.995 120.473 128.435 119.82C128.888 119.153 129.468 118.633 130.175 118.26C130.895 117.887 131.755 117.7 132.755 117.7C133.822 117.7 134.708 117.9 135.415 118.3C136.135 118.7 136.708 119.247 137.135 119.94C137.575 120.62 137.882 121.393 138.055 122.26C138.242 123.127 138.335 124.02 138.335 124.94C138.335 125.86 138.242 126.753 138.055 127.62C137.868 128.487 137.562 129.26 137.135 129.94C136.708 130.62 136.135 131.16 135.415 131.56C134.695 131.96 133.808 132.16 132.755 132.16ZM132.755 130.22C133.488 130.22 134.082 130.06 134.535 129.74C134.988 129.407 135.335 128.973 135.575 128.44C135.815 127.907 135.975 127.333 136.055 126.72C136.148 126.107 136.195 125.513 136.195 124.94C136.195 124.38 136.148 123.793 136.055 123.18C135.975 122.553 135.815 121.973 135.575 121.44C135.335 120.907 134.988 120.473 134.535 120.14C134.095 119.807 133.508 119.64 132.775 119.64C132.028 119.64 131.422 119.807 130.955 120.14C130.502 120.473 130.155 120.907 129.915 121.44C129.675 121.973 129.515 122.547 129.435 123.16C129.355 123.773 129.315 124.367 129.315 124.94C129.315 125.513 129.355 126.107 129.435 126.72C129.515 127.333 129.668 127.907 129.895 128.44C130.135 128.973 130.482 129.407 130.935 129.74C131.402 130.06 132.008 130.22 132.755 130.22Z" fill="white"/>
<rect x="191.5" y="249.5" width="81" height="33" rx="3.5" stroke="url(#paint3_linear_1071_10)"/>
<path d="M202.68 275.78V273.06C201.933 272.967 201.233 272.773 200.58 272.48C199.94 272.173 199.4 271.74 198.96 271.18C198.533 270.62 198.247 269.92 198.1 269.08H200.28C200.453 269.64 200.733 270.08 201.12 270.4C201.507 270.707 201.953 270.92 202.46 271.04C202.98 271.16 203.5 271.22 204.02 271.22C204.527 271.22 204.993 271.153 205.42 271.02C205.86 270.887 206.213 270.667 206.48 270.36C206.76 270.053 206.9 269.66 206.9 269.18C206.9 268.793 206.82 268.48 206.66 268.24C206.513 268 206.307 267.807 206.04 267.66C205.773 267.5 205.46 267.373 205.1 267.28C204.593 267.12 204.073 266.993 203.54 266.9C203.007 266.793 202.493 266.68 202 266.56C201.507 266.427 201.047 266.247 200.62 266.02C200.007 265.713 199.513 265.3 199.14 264.78C198.767 264.26 198.58 263.567 198.58 262.7C198.58 261.847 198.773 261.14 199.16 260.58C199.56 260.007 200.08 259.573 200.72 259.28C201.36 258.973 202.04 258.793 202.76 258.74V256.08H204.82V258.78C205.527 258.847 206.167 259.04 206.74 259.36C207.313 259.68 207.773 260.113 208.12 260.66C208.467 261.207 208.647 261.873 208.66 262.66H206.6C206.547 262.153 206.38 261.753 206.1 261.46C205.82 261.153 205.467 260.94 205.04 260.82C204.613 260.687 204.153 260.62 203.66 260.62C203.193 260.607 202.733 260.66 202.28 260.78C201.84 260.9 201.473 261.1 201.18 261.38C200.887 261.66 200.74 262.06 200.74 262.58C200.74 262.9 200.807 263.18 200.94 263.42C201.073 263.66 201.247 263.86 201.46 264.02C201.687 264.18 201.933 264.313 202.2 264.42C202.773 264.647 203.407 264.827 204.1 264.96C204.793 265.08 205.44 265.24 206.04 265.44C206.667 265.613 207.2 265.847 207.64 266.14C208.093 266.42 208.44 266.787 208.68 267.24C208.92 267.68 209.04 268.233 209.04 268.9C209.04 269.82 208.847 270.58 208.46 271.18C208.073 271.767 207.553 272.22 206.9 272.54C206.247 272.86 205.513 273.053 204.7 273.12V275.78H202.68ZM215.864 273.16C215.264 273.16 214.671 273.093 214.084 272.96C213.497 272.827 212.951 272.62 212.444 272.34C211.951 272.06 211.531 271.687 211.184 271.22C210.851 270.753 210.637 270.187 210.544 269.52H212.684C212.831 269.947 213.071 270.287 213.404 270.54C213.751 270.78 214.137 270.953 214.564 271.06C215.004 271.167 215.444 271.22 215.884 271.22C216.177 271.22 216.491 271.193 216.824 271.14C217.171 271.087 217.491 270.98 217.784 270.82C218.091 270.66 218.337 270.427 218.524 270.12C218.711 269.813 218.804 269.42 218.804 268.94C218.804 268.473 218.717 268.1 218.544 267.82C218.371 267.527 218.137 267.3 217.844 267.14C217.564 266.98 217.244 266.873 216.884 266.82C216.524 266.767 216.151 266.74 215.764 266.74H214.324V264.9H215.224C215.651 264.9 216.051 264.86 216.424 264.78C216.797 264.687 217.117 264.56 217.384 264.4C217.664 264.227 217.884 264.007 218.044 263.74C218.204 263.46 218.284 263.12 218.284 262.72C218.284 262.16 218.164 261.733 217.924 261.44C217.684 261.133 217.371 260.92 216.984 260.8C216.597 260.68 216.177 260.62 215.724 260.62C215.351 260.62 214.977 260.68 214.604 260.8C214.244 260.907 213.924 261.08 213.644 261.32C213.364 261.56 213.177 261.867 213.084 262.24H211.004C211.084 261.613 211.271 261.08 211.564 260.64C211.871 260.187 212.244 259.813 212.684 259.52C213.137 259.227 213.637 259.02 214.184 258.9C214.731 258.767 215.297 258.7 215.884 258.7C216.484 258.7 217.051 258.767 217.584 258.9C218.131 259.02 218.611 259.227 219.024 259.52C219.437 259.813 219.764 260.2 220.004 260.68C220.257 261.147 220.384 261.72 220.384 262.4C220.384 262.867 220.304 263.3 220.144 263.7C219.997 264.1 219.771 264.453 219.464 264.76C219.171 265.053 218.811 265.3 218.384 265.5C218.957 265.62 219.437 265.84 219.824 266.16C220.211 266.48 220.497 266.873 220.684 267.34C220.884 267.793 220.984 268.3 220.984 268.86C220.984 269.74 220.824 270.46 220.504 271.02C220.184 271.58 219.764 272.013 219.244 272.32C218.737 272.627 218.184 272.847 217.584 272.98C216.984 273.1 216.411 273.16 215.864 273.16ZM223.674 275.64L223.094 274.78C223.281 274.66 223.468 274.5 223.654 274.3C223.854 274.113 224.028 273.907 224.174 273.68C224.321 273.467 224.428 273.26 224.494 273.06C224.121 273.033 223.814 272.907 223.574 272.68C223.334 272.453 223.214 272.147 223.214 271.76C223.228 271.347 223.368 271.027 223.634 270.8C223.914 270.56 224.228 270.44 224.574 270.44C225.028 270.44 225.388 270.607 225.654 270.94C225.921 271.26 226.054 271.7 226.054 272.26C226.054 272.74 225.941 273.213 225.714 273.68C225.488 274.147 225.194 274.553 224.834 274.9C224.474 275.247 224.088 275.493 223.674 275.64ZM233.45 273.16C232.437 273.16 231.577 272.98 230.87 272.62C230.163 272.247 229.59 271.733 229.15 271.08C228.71 270.413 228.383 269.647 228.17 268.78C227.97 267.9 227.87 266.953 227.87 265.94C227.87 264.927 227.97 263.987 228.17 263.12C228.37 262.24 228.69 261.473 229.13 260.82C229.583 260.153 230.163 259.633 230.87 259.26C231.59 258.887 232.45 258.7 233.45 258.7C234.517 258.7 235.403 258.9 236.11 259.3C236.83 259.7 237.403 260.247 237.83 260.94C238.27 261.62 238.577 262.393 238.75 263.26C238.937 264.127 239.03 265.02 239.03 265.94C239.03 266.86 238.937 267.753 238.75 268.62C238.563 269.487 238.257 270.26 237.83 270.94C237.403 271.62 236.83 272.16 236.11 272.56C235.39 272.96 234.503 273.16 233.45 273.16ZM233.45 271.22C234.183 271.22 234.777 271.06 235.23 270.74C235.683 270.407 236.03 269.973 236.27 269.44C236.51 268.907 236.67 268.333 236.75 267.72C236.843 267.107 236.89 266.513 236.89 265.94C236.89 265.38 236.843 264.793 236.75 264.18C236.67 263.553 236.51 262.973 236.27 262.44C236.03 261.907 235.683 261.473 235.23 261.14C234.79 260.807 234.203 260.64 233.47 260.64C232.723 260.64 232.117 260.807 231.65 261.14C231.197 261.473 230.85 261.907 230.61 262.44C230.37 262.973 230.21 263.547 230.13 264.16C230.05 264.773 230.01 265.367 230.01 265.94C230.01 266.513 230.05 267.107 230.13 267.72C230.21 268.333 230.363 268.907 230.59 269.44C230.83 269.973 231.177 270.407 231.63 270.74C232.097 271.06 232.703 271.22 233.45 271.22ZM246.512 273.16C245.499 273.16 244.639 272.98 243.932 272.62C243.225 272.247 242.652 271.733 242.212 271.08C241.772 270.413 241.445 269.647 241.232 268.78C241.032 267.9 240.932 266.953 240.932 265.94C240.932 264.927 241.032 263.987 241.232 263.12C241.432 262.24 241.752 261.473 242.192 260.82C242.645 260.153 243.225 259.633 243.932 259.26C244.652 258.887 245.512 258.7 246.512 258.7C247.579 258.7 248.465 258.9 249.172 259.3C249.892 259.7 250.465 260.247 250.892 260.94C251.332 261.62 251.639 262.393 251.812 263.26C251.999 264.127 252.092 265.02 252.092 265.94C252.092 266.86 251.999 267.753 251.812 268.62C251.625 269.487 251.319 270.26 250.892 270.94C250.465 271.62 249.892 272.16 249.172 272.56C248.452 272.96 247.565 273.16 246.512 273.16ZM246.512 271.22C247.245 271.22 247.839 271.06 248.292 270.74C248.745 270.407 249.092 269.973 249.332 269.44C249.572 268.907 249.732 268.333 249.812 267.72C249.905 267.107 249.952 266.513 249.952 265.94C249.952 265.38 249.905 264.793 249.812 264.18C249.732 263.553 249.572 262.973 249.332 262.44C249.092 261.907 248.745 261.473 248.292 261.14C247.852 260.807 247.265 260.64 246.532 260.64C245.785 260.64 245.179 260.807 244.712 261.14C244.259 261.473 243.912 261.907 243.672 262.44C243.432 262.973 243.272 263.547 243.192 264.16C243.112 264.773 243.072 265.367 243.072 265.94C243.072 266.513 243.112 267.107 243.192 267.72C243.272 268.333 243.425 268.907 243.652 269.44C243.892 269.973 244.239 270.407 244.692 270.74C245.159 271.06 245.765 271.22 246.512 271.22ZM259.574 273.16C258.56 273.16 257.7 272.98 256.994 272.62C256.287 272.247 255.714 271.733 255.274 271.08C254.834 270.413 254.507 269.647 254.294 268.78C254.094 267.9 253.994 266.953 253.994 265.94C253.994 264.927 254.094 263.987 254.294 263.12C254.494 262.24 254.814 261.473 255.254 260.82C255.707 260.153 256.287 259.633 256.994 259.26C257.714 258.887 258.574 258.7 259.574 258.7C260.64 258.7 261.527 258.9 262.234 259.3C262.954 259.7 263.527 260.247 263.954 260.94C264.394 261.62 264.7 262.393 264.874 263.26C265.06 264.127 265.154 265.02 265.154 265.94C265.154 266.86 265.06 267.753 264.874 268.62C264.687 269.487 264.38 270.26 263.954 270.94C263.527 271.62 262.954 272.16 262.234 272.56C261.514 272.96 260.627 273.16 259.574 273.16ZM259.574 271.22C260.307 271.22 260.9 271.06 261.354 270.74C261.807 270.407 262.154 269.973 262.394 269.44C262.634 268.907 262.794 268.333 262.874 267.72C262.967 267.107 263.014 266.513 263.014 265.94C263.014 265.38 262.967 264.793 262.874 264.18C262.794 263.553 262.634 262.973 262.394 262.44C262.154 261.907 261.807 261.473 261.354 261.14C260.914 260.807 260.327 260.64 259.594 260.64C258.847 260.64 258.24 260.807 257.774 261.14C257.32 261.473 256.974 261.907 256.734 262.44C256.494 262.973 256.334 263.547 256.254 264.16C256.174 264.773 256.134 265.367 256.134 265.94C256.134 266.513 256.174 267.107 256.254 267.72C256.334 268.333 256.487 268.907 256.714 269.44C256.954 269.973 257.3 270.407 257.754 270.74C258.22 271.06 258.827 271.22 259.574 271.22Z" fill="white"/>
<rect x="283.5" y="325.5" width="94" height="33" rx="3.5" stroke="url(#paint4_linear_1071_10)"/>
<path d="M294.68 351.78V349.06C293.933 348.967 293.233 348.773 292.58 348.48C291.94 348.173 291.4 347.74 290.96 347.18C290.533 346.62 290.247 345.92 290.1 345.08H292.28C292.453 345.64 292.733 346.08 293.12 346.4C293.507 346.707 293.953 346.92 294.46 347.04C294.98 347.16 295.5 347.22 296.02 347.22C296.527 347.22 296.993 347.153 297.42 347.02C297.86 346.887 298.213 346.667 298.48 346.36C298.76 346.053 298.9 345.66 298.9 345.18C298.9 344.793 298.82 344.48 298.66 344.24C298.513 344 298.307 343.807 298.04 343.66C297.773 343.5 297.46 343.373 297.1 343.28C296.593 343.12 296.073 342.993 295.54 342.9C295.007 342.793 294.493 342.68 294 342.56C293.507 342.427 293.047 342.247 292.62 342.02C292.007 341.713 291.513 341.3 291.14 340.78C290.767 340.26 290.58 339.567 290.58 338.7C290.58 337.847 290.773 337.14 291.16 336.58C291.56 336.007 292.08 335.573 292.72 335.28C293.36 334.973 294.04 334.793 294.76 334.74V332.08H296.82V334.78C297.527 334.847 298.167 335.04 298.74 335.36C299.313 335.68 299.773 336.113 300.12 336.66C300.467 337.207 300.647 337.873 300.66 338.66H298.6C298.547 338.153 298.38 337.753 298.1 337.46C297.82 337.153 297.467 336.94 297.04 336.82C296.613 336.687 296.153 336.62 295.66 336.62C295.193 336.607 294.733 336.66 294.28 336.78C293.84 336.9 293.473 337.1 293.18 337.38C292.887 337.66 292.74 338.06 292.74 338.58C292.74 338.9 292.807 339.18 292.94 339.42C293.073 339.66 293.247 339.86 293.46 340.02C293.687 340.18 293.933 340.313 294.2 340.42C294.773 340.647 295.407 340.827 296.1 340.96C296.793 341.08 297.44 341.24 298.04 341.44C298.667 341.613 299.2 341.847 299.64 342.14C300.093 342.42 300.44 342.787 300.68 343.24C300.92 343.68 301.04 344.233 301.04 344.9C301.04 345.82 300.847 346.58 300.46 347.18C300.073 347.767 299.553 348.22 298.9 348.54C298.247 348.86 297.513 349.053 296.7 349.12V351.78H294.68ZM308.104 349.18C307.491 349.18 306.911 349.107 306.364 348.96C305.817 348.813 305.317 348.593 304.864 348.3C304.424 347.993 304.051 347.613 303.744 347.16C303.451 346.693 303.244 346.14 303.124 345.5H305.244C305.364 345.847 305.564 346.147 305.844 346.4C306.137 346.653 306.471 346.853 306.844 347C307.231 347.147 307.624 347.22 308.024 347.22C308.624 347.22 309.151 347.12 309.604 346.92C310.071 346.707 310.437 346.4 310.704 346C310.971 345.6 311.104 345.087 311.104 344.46C311.104 343.593 310.837 342.92 310.304 342.44C309.771 341.96 309.071 341.72 308.204 341.72C307.684 341.72 307.197 341.813 306.744 342C306.304 342.173 305.897 342.42 305.524 342.74H303.524L304.024 334.86H312.784V336.8H305.964L305.644 340.72C306.017 340.427 306.464 340.2 306.984 340.04C307.517 339.88 308.124 339.807 308.804 339.82C309.711 339.82 310.497 340.007 311.164 340.38C311.844 340.753 312.364 341.28 312.724 341.96C313.097 342.627 313.284 343.413 313.284 344.32C313.284 345.347 313.051 346.22 312.584 346.94C312.131 347.66 311.511 348.213 310.724 348.6C309.951 348.987 309.077 349.18 308.104 349.18ZM320.728 349.16C319.715 349.16 318.855 348.98 318.148 348.62C317.442 348.247 316.868 347.733 316.428 347.08C315.988 346.413 315.662 345.647 315.448 344.78C315.248 343.9 315.148 342.953 315.148 341.94C315.148 340.927 315.248 339.987 315.448 339.12C315.648 338.24 315.968 337.473 316.408 336.82C316.862 336.153 317.442 335.633 318.148 335.26C318.868 334.887 319.728 334.7 320.728 334.7C321.795 334.7 322.682 334.9 323.388 335.3C324.108 335.7 324.682 336.247 325.108 336.94C325.548 337.62 325.855 338.393 326.028 339.26C326.215 340.127 326.308 341.02 326.308 341.94C326.308 342.86 326.215 343.753 326.028 344.62C325.842 345.487 325.535 346.26 325.108 346.94C324.682 347.62 324.108 348.16 323.388 348.56C322.668 348.96 321.782 349.16 320.728 349.16ZM320.728 347.22C321.462 347.22 322.055 347.06 322.508 346.74C322.962 346.407 323.308 345.973 323.548 345.44C323.788 344.907 323.948 344.333 324.028 343.72C324.122 343.107 324.168 342.513 324.168 341.94C324.168 341.38 324.122 340.793 324.028 340.18C323.948 339.553 323.788 338.973 323.548 338.44C323.308 337.907 322.962 337.473 322.508 337.14C322.068 336.807 321.482 336.64 320.748 336.64C320.002 336.64 319.395 336.807 318.928 337.14C318.475 337.473 318.128 337.907 317.888 338.44C317.648 338.973 317.488 339.547 317.408 340.16C317.328 340.773 317.288 341.367 317.288 341.94C317.288 342.513 317.328 343.107 317.408 343.72C317.488 344.333 317.642 344.907 317.868 345.44C318.108 345.973 318.455 346.407 318.908 346.74C319.375 347.06 319.982 347.22 320.728 347.22ZM328.678 351.64L328.098 350.78C328.284 350.66 328.471 350.5 328.658 350.3C328.858 350.113 329.031 349.907 329.178 349.68C329.324 349.467 329.431 349.26 329.498 349.06C329.124 349.033 328.818 348.907 328.578 348.68C328.338 348.453 328.218 348.147 328.218 347.76C328.231 347.347 328.371 347.027 328.638 346.8C328.918 346.56 329.231 346.44 329.578 346.44C330.031 346.44 330.391 346.607 330.658 346.94C330.924 347.26 331.058 347.7 331.058 348.26C331.058 348.74 330.944 349.213 330.718 349.68C330.491 350.147 330.198 350.553 329.838 350.9C329.478 351.247 329.091 351.493 328.678 351.64ZM338.453 349.16C337.44 349.16 336.58 348.98 335.873 348.62C335.167 348.247 334.593 347.733 334.153 347.08C333.713 346.413 333.387 345.647 333.173 344.78C332.973 343.9 332.873 342.953 332.873 341.94C332.873 340.927 332.973 339.987 333.173 339.12C333.373 338.24 333.693 337.473 334.133 336.82C334.587 336.153 335.167 335.633 335.873 335.26C336.593 334.887 337.453 334.7 338.453 334.7C339.52 334.7 340.407 334.9 341.113 335.3C341.833 335.7 342.407 336.247 342.833 336.94C343.273 337.62 343.58 338.393 343.753 339.26C343.94 340.127 344.033 341.02 344.033 341.94C344.033 342.86 343.94 343.753 343.753 344.62C343.567 345.487 343.26 346.26 342.833 346.94C342.407 347.62 341.833 348.16 341.113 348.56C340.393 348.96 339.507 349.16 338.453 349.16ZM338.453 347.22C339.187 347.22 339.78 347.06 340.233 346.74C340.687 346.407 341.033 345.973 341.273 345.44C341.513 344.907 341.673 344.333 341.753 343.72C341.847 343.107 341.893 342.513 341.893 341.94C341.893 341.38 341.847 340.793 341.753 340.18C341.673 339.553 341.513 338.973 341.273 338.44C341.033 337.907 340.687 337.473 340.233 337.14C339.793 336.807 339.207 336.64 338.473 336.64C337.727 336.64 337.12 336.807 336.653 337.14C336.2 337.473 335.853 337.907 335.613 338.44C335.373 338.973 335.213 339.547 335.133 340.16C335.053 340.773 335.013 341.367 335.013 341.94C335.013 342.513 335.053 343.107 335.133 343.72C335.213 344.333 335.367 344.907 335.593 345.44C335.833 345.973 336.18 346.407 336.633 346.74C337.1 347.06 337.707 347.22 338.453 347.22ZM351.515 349.16C350.502 349.16 349.642 348.98 348.935 348.62C348.228 348.247 347.655 347.733 347.215 347.08C346.775 346.413 346.448 345.647 346.235 344.78C346.035 343.9 345.935 342.953 345.935 341.94C345.935 340.927 346.035 339.987 346.235 339.12C346.435 338.24 346.755 337.473 347.195 336.82C347.648 336.153 348.228 335.633 348.935 335.26C349.655 334.887 350.515 334.7 351.515 334.7C352.582 334.7 353.468 334.9 354.175 335.3C354.895 335.7 355.468 336.247 355.895 336.94C356.335 337.62 356.642 338.393 356.815 339.26C357.002 340.127 357.095 341.02 357.095 341.94C357.095 342.86 357.002 343.753 356.815 344.62C356.628 345.487 356.322 346.26 355.895 346.94C355.468 347.62 354.895 348.16 354.175 348.56C353.455 348.96 352.568 349.16 351.515 349.16ZM351.515 347.22C352.248 347.22 352.842 347.06 353.295 346.74C353.748 346.407 354.095 345.973 354.335 345.44C354.575 344.907 354.735 344.333 354.815 343.72C354.908 343.107 354.955 342.513 354.955 341.94C354.955 341.38 354.908 340.793 354.815 340.18C354.735 339.553 354.575 338.973 354.335 338.44C354.095 337.907 353.748 337.473 353.295 337.14C352.855 336.807 352.268 336.64 351.535 336.64C350.788 336.64 350.182 336.807 349.715 337.14C349.262 337.473 348.915 337.907 348.675 338.44C348.435 338.973 348.275 339.547 348.195 340.16C348.115 340.773 348.075 341.367 348.075 341.94C348.075 342.513 348.115 343.107 348.195 343.72C348.275 344.333 348.428 344.907 348.655 345.44C348.895 345.973 349.242 346.407 349.695 346.74C350.162 347.06 350.768 347.22 351.515 347.22ZM364.577 349.16C363.563 349.16 362.703 348.98 361.997 348.62C361.29 348.247 360.717 347.733 360.277 347.08C359.837 346.413 359.51 345.647 359.297 344.78C359.097 343.9 358.997 342.953 358.997 341.94C358.997 340.927 359.097 339.987 359.297 339.12C359.497 338.24 359.817 337.473 360.257 336.82C360.71 336.153 361.29 335.633 361.997 335.26C362.717 334.887 363.577 334.7 364.577 334.7C365.643 334.7 366.53 334.9 367.237 335.3C367.957 335.7 368.53 336.247 368.957 336.94C369.397 337.62 369.703 338.393 369.877 339.26C370.063 340.127 370.157 341.02 370.157 341.94C370.157 342.86 370.063 343.753 369.877 344.62C369.69 345.487 369.383 346.26 368.957 346.94C368.53 347.62 367.957 348.16 367.237 348.56C366.517 348.96 365.63 349.16 364.577 349.16ZM364.577 347.22C365.31 347.22 365.903 347.06 366.357 346.74C366.81 346.407 367.157 345.973 367.397 345.44C367.637 344.907 367.797 344.333 367.877 343.72C367.97 343.107 368.017 342.513 368.017 341.94C368.017 341.38 367.97 340.793 367.877 340.18C367.797 339.553 367.637 338.973 367.397 338.44C367.157 337.907 366.81 337.473 366.357 337.14C365.917 336.807 365.33 336.64 364.597 336.64C363.85 336.64 363.243 336.807 362.777 337.14C362.323 337.473 361.977 337.907 361.737 338.44C361.497 338.973 361.337 339.547 361.257 340.16C361.177 340.773 361.137 341.367 361.137 341.94C361.137 342.513 361.177 343.107 361.257 343.72C361.337 344.333 361.49 344.907 361.717 345.44C361.957 345.973 362.303 346.407 362.757 346.74C363.223 347.06 363.83 347.22 364.577 347.22Z" fill="white"/>
<rect x="394.5" y="373.5" width="92" height="33" rx="3.5" stroke="url(#paint5_linear_1071_10)"/>
<path d="M405.68 399.78V397.06C404.933 396.967 404.233 396.773 403.58 396.48C402.94 396.173 402.4 395.74 401.96 395.18C401.533 394.62 401.247 393.92 401.1 393.08H403.28C403.453 393.64 403.733 394.08 404.12 394.4C404.507 394.707 404.953 394.92 405.46 395.04C405.98 395.16 406.5 395.22 407.02 395.22C407.527 395.22 407.993 395.153 408.42 395.02C408.86 394.887 409.213 394.667 409.48 394.36C409.76 394.053 409.9 393.66 409.9 393.18C409.9 392.793 409.82 392.48 409.66 392.24C409.513 392 409.307 391.807 409.04 391.66C408.773 391.5 408.46 391.373 408.1 391.28C407.593 391.12 407.073 390.993 406.54 390.9C406.007 390.793 405.493 390.68 405 390.56C404.507 390.427 404.047 390.247 403.62 390.02C403.007 389.713 402.513 389.3 402.14 388.78C401.767 388.26 401.58 387.567 401.58 386.7C401.58 385.847 401.773 385.14 402.16 384.58C402.56 384.007 403.08 383.573 403.72 383.28C404.36 382.973 405.04 382.793 405.76 382.74V380.08H407.82V382.78C408.527 382.847 409.167 383.04 409.74 383.36C410.313 383.68 410.773 384.113 411.12 384.66C411.467 385.207 411.647 385.873 411.66 386.66H409.6C409.547 386.153 409.38 385.753 409.1 385.46C408.82 385.153 408.467 384.94 408.04 384.82C407.613 384.687 407.153 384.62 406.66 384.62C406.193 384.607 405.733 384.66 405.28 384.78C404.84 384.9 404.473 385.1 404.18 385.38C403.887 385.66 403.74 386.06 403.74 386.58C403.74 386.9 403.807 387.18 403.94 387.42C404.073 387.66 404.247 387.86 404.46 388.02C404.687 388.18 404.933 388.313 405.2 388.42C405.773 388.647 406.407 388.827 407.1 388.96C407.793 389.08 408.44 389.24 409.04 389.44C409.667 389.613 410.2 389.847 410.64 390.14C411.093 390.42 411.44 390.787 411.68 391.24C411.92 391.68 412.04 392.233 412.04 392.9C412.04 393.82 411.847 394.58 411.46 395.18C411.073 395.767 410.553 396.22 409.9 396.54C409.247 396.86 408.513 397.053 407.7 397.12V399.78H405.68ZM413.504 397V395.24L417.484 391.84C417.817 391.56 418.184 391.247 418.584 390.9C418.997 390.553 419.391 390.18 419.764 389.78C420.151 389.38 420.464 388.953 420.704 388.5C420.957 388.047 421.084 387.573 421.084 387.08C421.084 386.32 420.851 385.727 420.384 385.3C419.931 384.873 419.311 384.66 418.524 384.66C417.857 384.66 417.291 384.8 416.824 385.08C416.371 385.36 416.071 385.753 415.924 386.26H413.764C413.884 385.447 414.184 384.78 414.664 384.26C415.144 383.74 415.731 383.353 416.424 383.1C417.117 382.833 417.844 382.7 418.604 382.7C419.484 382.7 420.271 382.86 420.964 383.18C421.657 383.5 422.204 383.973 422.604 384.6C423.004 385.213 423.204 385.967 423.204 386.86C423.204 387.7 423.044 388.447 422.724 389.1C422.404 389.753 421.977 390.347 421.444 390.88C420.924 391.413 420.357 391.933 419.744 392.44L416.604 395.06H423.304V397H413.504ZM430.193 397.18C429.58 397.18 429 397.107 428.453 396.96C427.906 396.813 427.406 396.593 426.953 396.3C426.513 395.993 426.14 395.613 425.833 395.16C425.54 394.693 425.333 394.14 425.213 393.5H427.333C427.453 393.847 427.653 394.147 427.933 394.4C428.226 394.653 428.56 394.853 428.933 395C429.32 395.147 429.713 395.22 430.113 395.22C430.713 395.22 431.24 395.12 431.693 394.92C432.16 394.707 432.526 394.4 432.793 394C433.06 393.6 433.193 393.087 433.193 392.46C433.193 391.593 432.926 390.92 432.393 390.44C431.86 389.96 431.16 389.72 430.293 389.72C429.773 389.72 429.286 389.813 428.833 390C428.393 390.173 427.986 390.42 427.613 390.74H425.613L426.113 382.86H434.873V384.8H428.053L427.733 388.72C428.106 388.427 428.553 388.2 429.073 388.04C429.606 387.88 430.213 387.807 430.893 387.82C431.8 387.82 432.586 388.007 433.253 388.38C433.933 388.753 434.453 389.28 434.813 389.96C435.186 390.627 435.373 391.413 435.373 392.32C435.373 393.347 435.14 394.22 434.673 394.94C434.22 395.66 433.6 396.213 432.813 396.6C432.04 396.987 431.166 397.18 430.193 397.18ZM438.017 399.64L437.437 398.78C437.624 398.66 437.811 398.5 437.997 398.3C438.197 398.113 438.371 397.907 438.517 397.68C438.664 397.467 438.771 397.26 438.837 397.06C438.464 397.033 438.157 396.907 437.917 396.68C437.677 396.453 437.557 396.147 437.557 395.76C437.571 395.347 437.711 395.027 437.977 394.8C438.257 394.56 438.571 394.44 438.917 394.44C439.371 394.44 439.731 394.607 439.997 394.94C440.264 395.26 440.397 395.7 440.397 396.26C440.397 396.74 440.284 397.213 440.057 397.68C439.831 398.147 439.537 398.553 439.177 398.9C438.817 399.247 438.431 399.493 438.017 399.64ZM447.793 397.16C446.78 397.16 445.92 396.98 445.213 396.62C444.506 396.247 443.933 395.733 443.493 395.08C443.053 394.413 442.726 393.647 442.513 392.78C442.313 391.9 442.213 390.953 442.213 389.94C442.213 388.927 442.313 387.987 442.513 387.12C442.713 386.24 443.033 385.473 443.473 384.82C443.926 384.153 444.506 383.633 445.213 383.26C445.933 382.887 446.793 382.7 447.793 382.7C448.86 382.7 449.746 382.9 450.453 383.3C451.173 383.7 451.746 384.247 452.173 384.94C452.613 385.62 452.92 386.393 453.093 387.26C453.28 388.127 453.373 389.02 453.373 389.94C453.373 390.86 453.28 391.753 453.093 392.62C452.906 393.487 452.6 394.26 452.173 394.94C451.746 395.62 451.173 396.16 450.453 396.56C449.733 396.96 448.846 397.16 447.793 397.16ZM447.793 395.22C448.526 395.22 449.12 395.06 449.573 394.74C450.026 394.407 450.373 393.973 450.613 393.44C450.853 392.907 451.013 392.333 451.093 391.72C451.186 391.107 451.233 390.513 451.233 389.94C451.233 389.38 451.186 388.793 451.093 388.18C451.013 387.553 450.853 386.973 450.613 386.44C450.373 385.907 450.026 385.473 449.573 385.14C449.133 384.807 448.546 384.64 447.813 384.64C447.066 384.64 446.46 384.807 445.993 385.14C445.54 385.473 445.193 385.907 444.953 386.44C444.713 386.973 444.553 387.547 444.473 388.16C444.393 388.773 444.353 389.367 444.353 389.94C444.353 390.513 444.393 391.107 444.473 391.72C444.553 392.333 444.706 392.907 444.933 393.44C445.173 393.973 445.52 394.407 445.973 394.74C446.44 395.06 447.046 395.22 447.793 395.22ZM460.855 397.16C459.842 397.16 458.982 396.98 458.275 396.62C457.568 396.247 456.995 395.733 456.555 395.08C456.115 394.413 455.788 393.647 455.575 392.78C455.375 391.9 455.275 390.953 455.275 389.94C455.275 388.927 455.375 387.987 455.575 387.12C455.775 386.24 456.095 385.473 456.535 384.82C456.988 384.153 457.568 383.633 458.275 383.26C458.995 382.887 459.855 382.7 460.855 382.7C461.922 382.7 462.808 382.9 463.515 383.3C464.235 383.7 464.808 384.247 465.235 384.94C465.675 385.62 465.982 386.393 466.155 387.26C466.342 388.127 466.435 389.02 466.435 389.94C466.435 390.86 466.342 391.753 466.155 392.62C465.968 393.487 465.662 394.26 465.235 394.94C464.808 395.62 464.235 396.16 463.515 396.56C462.795 396.96 461.908 397.16 460.855 397.16ZM460.855 395.22C461.588 395.22 462.182 395.06 462.635 394.74C463.088 394.407 463.435 393.973 463.675 393.44C463.915 392.907 464.075 392.333 464.155 391.72C464.248 391.107 464.295 390.513 464.295 389.94C464.295 389.38 464.248 388.793 464.155 388.18C464.075 387.553 463.915 386.973 463.675 386.44C463.435 385.907 463.088 385.473 462.635 385.14C462.195 384.807 461.608 384.64 460.875 384.64C460.128 384.64 459.522 384.807 459.055 385.14C458.602 385.473 458.255 385.907 458.015 386.44C457.775 386.973 457.615 387.547 457.535 388.16C457.455 388.773 457.415 389.367 457.415 389.94C457.415 390.513 457.455 391.107 457.535 391.72C457.615 392.333 457.768 392.907 457.995 393.44C458.235 393.973 458.582 394.407 459.035 394.74C459.502 395.06 460.108 395.22 460.855 395.22ZM473.917 397.16C472.903 397.16 472.043 396.98 471.337 396.62C470.63 396.247 470.057 395.733 469.617 395.08C469.177 394.413 468.85 393.647 468.637 392.78C468.437 391.9 468.337 390.953 468.337 389.94C468.337 388.927 468.437 387.987 468.637 387.12C468.837 386.24 469.157 385.473 469.597 384.82C470.05 384.153 470.63 383.633 471.337 383.26C472.057 382.887 472.917 382.7 473.917 382.7C474.983 382.7 475.87 382.9 476.577 383.3C477.297 383.7 477.87 384.247 478.297 384.94C478.737 385.62 479.043 386.393 479.217 387.26C479.403 388.127 479.497 389.02 479.497 389.94C479.497 390.86 479.403 391.753 479.217 392.62C479.03 393.487 478.723 394.26 478.297 394.94C477.87 395.62 477.297 396.16 476.577 396.56C475.857 396.96 474.97 397.16 473.917 397.16ZM473.917 395.22C474.65 395.22 475.243 395.06 475.697 394.74C476.15 394.407 476.497 393.973 476.737 393.44C476.977 392.907 477.137 392.333 477.217 391.72C477.31 391.107 477.357 390.513 477.357 389.94C477.357 389.38 477.31 388.793 477.217 388.18C477.137 387.553 476.977 386.973 476.737 386.44C476.497 385.907 476.15 385.473 475.697 385.14C475.257 384.807 474.67 384.64 473.937 384.64C473.19 384.64 472.583 384.807 472.117 385.14C471.663 385.473 471.317 385.907 471.077 386.44C470.837 386.973 470.677 387.547 470.597 388.16C470.517 388.773 470.477 389.367 470.477 389.94C470.477 390.513 470.517 391.107 470.597 391.72C470.677 392.333 470.83 392.907 471.057 393.44C471.297 393.973 471.643 394.407 472.097 394.74C472.563 395.06 473.17 395.22 473.917 395.22Z" fill="white"/>
<rect x="267.5" y="451.5" width="81" height="33" rx="3.5" stroke="url(#paint6_linear_1071_10)"/>
<path d="M278.68 477.78V475.06C277.933 474.967 277.233 474.773 276.58 474.48C275.94 474.173 275.4 473.74 274.96 473.18C274.533 472.62 274.247 471.92 274.1 471.08H276.28C276.453 471.64 276.733 472.08 277.12 472.4C277.507 472.707 277.953 472.92 278.46 473.04C278.98 473.16 279.5 473.22 280.02 473.22C280.527 473.22 280.993 473.153 281.42 473.02C281.86 472.887 282.213 472.667 282.48 472.36C282.76 472.053 282.9 471.66 282.9 471.18C282.9 470.793 282.82 470.48 282.66 470.24C282.513 470 282.307 469.807 282.04 469.66C281.773 469.5 281.46 469.373 281.1 469.28C280.593 469.12 280.073 468.993 279.54 468.9C279.007 468.793 278.493 468.68 278 468.56C277.507 468.427 277.047 468.247 276.62 468.02C276.007 467.713 275.513 467.3 275.14 466.78C274.767 466.26 274.58 465.567 274.58 464.7C274.58 463.847 274.773 463.14 275.16 462.58C275.56 462.007 276.08 461.573 276.72 461.28C277.36 460.973 278.04 460.793 278.76 460.74V458.08H280.82V460.78C281.527 460.847 282.167 461.04 282.74 461.36C283.313 461.68 283.773 462.113 284.12 462.66C284.467 463.207 284.647 463.873 284.66 464.66H282.6C282.547 464.153 282.38 463.753 282.1 463.46C281.82 463.153 281.467 462.94 281.04 462.82C280.613 462.687 280.153 462.62 279.66 462.62C279.193 462.607 278.733 462.66 278.28 462.78C277.84 462.9 277.473 463.1 277.18 463.38C276.887 463.66 276.74 464.06 276.74 464.58C276.74 464.9 276.807 465.18 276.94 465.42C277.073 465.66 277.247 465.86 277.46 466.02C277.687 466.18 277.933 466.313 278.2 466.42C278.773 466.647 279.407 466.827 280.1 466.96C280.793 467.08 281.44 467.24 282.04 467.44C282.667 467.613 283.2 467.847 283.64 468.14C284.093 468.42 284.44 468.787 284.68 469.24C284.92 469.68 285.04 470.233 285.04 470.9C285.04 471.82 284.847 472.58 284.46 473.18C284.073 473.767 283.553 474.22 282.9 474.54C282.247 474.86 281.513 475.053 280.7 475.12V477.78H278.68ZM292.104 475.18C291.491 475.18 290.911 475.107 290.364 474.96C289.817 474.813 289.317 474.593 288.864 474.3C288.424 473.993 288.051 473.613 287.744 473.16C287.451 472.693 287.244 472.14 287.124 471.5H289.244C289.364 471.847 289.564 472.147 289.844 472.4C290.137 472.653 290.471 472.853 290.844 473C291.231 473.147 291.624 473.22 292.024 473.22C292.624 473.22 293.151 473.12 293.604 472.92C294.071 472.707 294.437 472.4 294.704 472C294.971 471.6 295.104 471.087 295.104 470.46C295.104 469.593 294.837 468.92 294.304 468.44C293.771 467.96 293.071 467.72 292.204 467.72C291.684 467.72 291.197 467.813 290.744 468C290.304 468.173 289.897 468.42 289.524 468.74H287.524L288.024 460.86H296.784V462.8H289.964L289.644 466.72C290.017 466.427 290.464 466.2 290.984 466.04C291.517 465.88 292.124 465.807 292.804 465.82C293.711 465.82 294.497 466.007 295.164 466.38C295.844 466.753 296.364 467.28 296.724 467.96C297.097 468.627 297.284 469.413 297.284 470.32C297.284 471.347 297.051 472.22 296.584 472.94C296.131 473.66 295.511 474.213 294.724 474.6C293.951 474.987 293.077 475.18 292.104 475.18ZM299.928 477.64L299.348 476.78C299.535 476.66 299.722 476.5 299.908 476.3C300.108 476.113 300.282 475.907 300.428 475.68C300.575 475.467 300.682 475.26 300.748 475.06C300.375 475.033 300.068 474.907 299.828 474.68C299.588 474.453 299.468 474.147 299.468 473.76C299.482 473.347 299.622 473.027 299.888 472.8C300.168 472.56 300.482 472.44 300.828 472.44C301.282 472.44 301.642 472.607 301.908 472.94C302.175 473.26 302.308 473.7 302.308 474.26C302.308 474.74 302.195 475.213 301.968 475.68C301.742 476.147 301.448 476.553 301.088 476.9C300.728 477.247 300.342 477.493 299.928 477.64ZM309.704 475.16C308.691 475.16 307.831 474.98 307.124 474.62C306.417 474.247 305.844 473.733 305.404 473.08C304.964 472.413 304.637 471.647 304.424 470.78C304.224 469.9 304.124 468.953 304.124 467.94C304.124 466.927 304.224 465.987 304.424 465.12C304.624 464.24 304.944 463.473 305.384 462.82C305.837 462.153 306.417 461.633 307.124 461.26C307.844 460.887 308.704 460.7 309.704 460.7C310.771 460.7 311.657 460.9 312.364 461.3C313.084 461.7 313.657 462.247 314.084 462.94C314.524 463.62 314.831 464.393 315.004 465.26C315.191 466.127 315.284 467.02 315.284 467.94C315.284 468.86 315.191 469.753 315.004 470.62C314.817 471.487 314.511 472.26 314.084 472.94C313.657 473.62 313.084 474.16 312.364 474.56C311.644 474.96 310.757 475.16 309.704 475.16ZM309.704 473.22C310.437 473.22 311.031 473.06 311.484 472.74C311.937 472.407 312.284 471.973 312.524 471.44C312.764 470.907 312.924 470.333 313.004 469.72C313.097 469.107 313.144 468.513 313.144 467.94C313.144 467.38 313.097 466.793 313.004 466.18C312.924 465.553 312.764 464.973 312.524 464.44C312.284 463.907 311.937 463.473 311.484 463.14C311.044 462.807 310.457 462.64 309.724 462.64C308.977 462.64 308.371 462.807 307.904 463.14C307.451 463.473 307.104 463.907 306.864 464.44C306.624 464.973 306.464 465.547 306.384 466.16C306.304 466.773 306.264 467.367 306.264 467.94C306.264 468.513 306.304 469.107 306.384 469.72C306.464 470.333 306.617 470.907 306.844 471.44C307.084 471.973 307.431 472.407 307.884 472.74C308.351 473.06 308.957 473.22 309.704 473.22ZM322.766 475.16C321.752 475.16 320.892 474.98 320.186 474.62C319.479 474.247 318.906 473.733 318.466 473.08C318.026 472.413 317.699 471.647 317.486 470.78C317.286 469.9 317.186 468.953 317.186 467.94C317.186 466.927 317.286 465.987 317.486 465.12C317.686 464.24 318.006 463.473 318.446 462.82C318.899 462.153 319.479 461.633 320.186 461.26C320.906 460.887 321.766 460.7 322.766 460.7C323.832 460.7 324.719 460.9 325.426 461.3C326.146 461.7 326.719 462.247 327.146 462.94C327.586 463.62 327.892 464.393 328.066 465.26C328.252 466.127 328.346 467.02 328.346 467.94C328.346 468.86 328.252 469.753 328.066 470.62C327.879 471.487 327.572 472.26 327.146 472.94C326.719 473.62 326.146 474.16 325.426 474.56C324.706 474.96 323.819 475.16 322.766 475.16ZM322.766 473.22C323.499 473.22 324.092 473.06 324.546 472.74C324.999 472.407 325.346 471.973 325.586 471.44C325.826 470.907 325.986 470.333 326.066 469.72C326.159 469.107 326.206 468.513 326.206 467.94C326.206 467.38 326.159 466.793 326.066 466.18C325.986 465.553 325.826 464.973 325.586 464.44C325.346 463.907 324.999 463.473 324.546 463.14C324.106 462.807 323.519 462.64 322.786 462.64C322.039 462.64 321.432 462.807 320.966 463.14C320.512 463.473 320.166 463.907 319.926 464.44C319.686 464.973 319.526 465.547 319.446 466.16C319.366 466.773 319.326 467.367 319.326 467.94C319.326 468.513 319.366 469.107 319.446 469.72C319.526 470.333 319.679 470.907 319.906 471.44C320.146 471.973 320.492 472.407 320.946 472.74C321.412 473.06 322.019 473.22 322.766 473.22ZM335.828 475.16C334.814 475.16 333.954 474.98 333.248 474.62C332.541 474.247 331.968 473.733 331.528 473.08C331.088 472.413 330.761 471.647 330.548 470.78C330.348 469.9 330.248 468.953 330.248 467.94C330.248 466.927 330.348 465.987 330.548 465.12C330.748 464.24 331.068 463.473 331.508 462.82C331.961 462.153 332.541 461.633 333.248 461.26C333.968 460.887 334.828 460.7 335.828 460.7C336.894 460.7 337.781 460.9 338.488 461.3C339.208 461.7 339.781 462.247 340.207 462.94C340.648 463.62 340.954 464.393 341.128 465.26C341.314 466.127 341.408 467.02 341.408 467.94C341.408 468.86 341.314 469.753 341.128 470.62C340.941 471.487 340.634 472.26 340.207 472.94C339.781 473.62 339.208 474.16 338.488 474.56C337.768 474.96 336.881 475.16 335.828 475.16ZM335.828 473.22C336.561 473.22 337.154 473.06 337.608 472.74C338.061 472.407 338.408 471.973 338.648 471.44C338.888 470.907 339.048 470.333 339.128 469.72C339.221 469.107 339.268 468.513 339.268 467.94C339.268 467.38 339.221 466.793 339.128 466.18C339.048 465.553 338.888 464.973 338.648 464.44C338.408 463.907 338.061 463.473 337.608 463.14C337.168 462.807 336.581 462.64 335.848 462.64C335.101 462.64 334.494 462.807 334.028 463.14C333.574 463.473 333.228 463.907 332.988 464.44C332.748 464.973 332.588 465.547 332.508 466.16C332.428 466.773 332.388 467.367 332.388 467.94C332.388 468.513 332.428 469.107 332.508 469.72C332.588 470.333 332.741 470.907 332.968 471.44C333.208 471.973 333.554 472.407 334.008 472.74C334.474 473.06 335.081 473.22 335.828 473.22Z" fill="white"/>
<defs>
<filter id="filter0_d_1071_10" x="41" y="58" width="560" height="585" filterUnits="userSpaceOnUse" color-interpolation-filters="sRGB">
<feFlood flood-opacity="0" result="BackgroundImageFix"/>
<feColorMatrix in="SourceAlpha" type="matrix" values="0 0 0 0 0 0 0 0 0 0 0 0 0 0 0 0 0 0 127 0" result="hardAlpha"/>
<feOffset/>
<feGaussianBlur stdDeviation="10"/>
<feComposite in2="hardAlpha" operator="out"/>
<feColorMatrix type="matrix" values="0 0 0 0 0.679166 0 0 0 0 0.641249 0 0 0 0 1 0 0 0 0.2 0"/>
<feBlend mode="normal" in2="BackgroundImageFix" result="effect1_dropShadow_1071_10"/>
<feBlend mode="normal" in="SourceGraphic" in2="effect1_dropShadow_1071_10" result="shape"/>
</filter>
<radialGradient id="paint0_radial_1071_10" cx="0" cy="0" r="1" gradientUnits="userSpaceOnUse" gradientTransform="translate(305.583 340.393) rotate(87.8769) scale(258.683 303.614)">
<stop stop-color="#05060F" stop-opacity="0"/>
<stop offset="1" stop-color="white" stop-opacity="0.1"/>
</radialGradient>
<radialGradient id="paint1_radial_1071_10" cx="0" cy="0" r="1" gradientUnits="userSpaceOnUse" gradientTransform="translate(213.227 153) rotate(90.0754) scale(172.312 317.604)">
<stop stop-color="#4930B3" stop-opacity="0.2"/>
<stop offset="1" stop-color="#010013" stop-opacity="0"/>
</radialGradient>
<linearGradient id="paint2_linear_1071_10" x1="114.429" y1="142" x2="114.429" y2="108" gradientUnits="userSpaceOnUse">
<stop stop-color="#5945FD"/>
<stop offset="1" stop-color="#B7AEFF"/>
</linearGradient>
<linearGradient id="paint3_linear_1071_10" x1="231.907" y1="283" x2="231.907" y2="249" gradientUnits="userSpaceOnUse">
<stop stop-color="#5945FD"/>
<stop offset="1" stop-color="#B7AEFF"/>
</linearGradient>
<linearGradient id="paint4_linear_1071_10" x1="330.392" y1="359" x2="330.392" y2="325" gradientUnits="userSpaceOnUse">
<stop stop-color="#5945FD"/>
<stop offset="1" stop-color="#B7AEFF"/>
</linearGradient>
<linearGradient id="paint5_linear_1071_10" x1="440.395" y1="407" x2="440.395" y2="373" gradientUnits="userSpaceOnUse">
<stop stop-color="#5945FD"/>
<stop offset="1" stop-color="#B7AEFF"/>
</linearGradient>
<linearGradient id="paint6_linear_1071_10" x1="307.907" y1="485" x2="307.907" y2="451" gradientUnits="userSpaceOnUse">
<stop stop-color="#5945FD"/>
<stop offset="1" stop-color="#B7AEFF"/>
</linearGradient>
</defs>
</svg>
