<svg width="66" height="66" viewBox="0 0 66 66" fill="none" xmlns="http://www.w3.org/2000/svg">
<rect x="0.5" y="0.5" width="65" height="65" rx="9.5" fill="#5945FD" stroke="#3322BF"/>
<path d="M13 37.6157V28.8078V20H22.0661H31.1321L31.1296 28.8301L31.1271 37.6601L30.5601 38.2422C30.2483 38.5623 29.2756 39.5832 28.3986 40.5108C27.5216 41.4383 26.4556 42.5587 26.0296 43.0005C25.6036 43.4423 24.9954 44.073 24.6781 44.4019L24.101 45H22.5983H21.0955L21.5923 44.0881C21.8656 43.5865 22.1904 42.996 22.3142 42.7758C22.438 42.5556 22.7767 41.9351 23.0668 41.3968C23.357 40.8585 23.9168 39.8303 24.3109 39.1119C24.7049 38.3935 25.0273 37.763 25.0273 37.7107C25.0273 37.6442 23.2177 37.6157 19.0137 37.6157H13Z" fill="white"/>
<path d="M34.8899 28.8968C34.877 24.1259 34.886 20.1724 34.9099 20.1112C34.9442 20.0233 36.8418 20 43.9767 20H53L52.9986 28.8301L52.9973 37.6601L51.9368 38.7722C51.3535 39.3839 50.6467 40.1246 50.3661 40.4181C50.0856 40.7117 49.3028 41.5325 48.6267 42.242C47.9507 42.9515 47.1402 43.7956 46.8257 44.1179C46.5112 44.4401 46.2032 44.7714 46.1413 44.8542C46.042 44.9867 45.8491 45.0016 44.5144 44.98L43.0003 44.9555L43.9965 43.1317C44.5444 42.1286 45.3185 40.7009 45.7168 39.9591C46.1151 39.2172 46.5427 38.4365 46.667 38.2242C46.7913 38.0118 46.8935 37.7883 46.8941 37.7275C46.8949 37.6407 45.6059 37.612 40.9043 37.594L34.9134 37.5712L34.8899 28.8968Z" fill="white"/>
<rect x="2" y="2" width="62" height="62" rx="8" stroke="url(#paint0_linear_1092_12)" stroke-width="2"/>
<defs>
<linearGradient id="paint0_linear_1092_12" x1="33" y1="1" x2="33" y2="65" gradientUnits="userSpaceOnUse">
<stop stop-color="#A99EFF"/>
<stop offset="1" stop-color="#5945FD"/>
</linearGradient>
</defs>
</svg>
