<svg width="23" height="19" viewBox="0 0 23 19" fill="none" xmlns="http://www.w3.org/2000/svg">
<path d="M18.6562 14.1904L18.8154 14.6211L19.2471 14.7812L19.6758 14.9395L19.2471 15.0986L18.8154 15.2578L18.6562 15.6895L18.4971 16.1182L18.3389 15.6895L18.1787 15.2578L17.748 15.0986L17.3184 14.9395L17.748 14.7812L18.1787 14.6211L18.3389 14.1904L18.4971 13.7607L18.6562 14.1904Z" stroke="url(#paint0_linear_979_303)" stroke-width="2"/>
<path d="M18.6562 3.31055L18.8154 3.74121L19.2471 3.90137L19.6758 4.05957L19.2471 4.21875L18.8154 4.37793L18.6562 4.80957L18.4971 5.23828L18.3389 4.80957L18.1787 4.37793L17.748 4.21875L17.3184 4.05957L17.748 3.90137L18.1787 3.74121L18.3389 3.31055L18.4971 2.88086L18.6562 3.31055Z" stroke="url(#paint1_linear_979_303)" stroke-width="2"/>
<path d="M8.9375 7.18945L9.25586 8.05176L10.1191 8.37109L10.9766 8.6875L10.1191 9.00586L9.25586 9.32422L8.9375 10.1875L8.61914 11.0449L8.30273 10.1875L7.9834 9.32422L7.12109 9.00586L6.2627 8.6875L7.12109 8.37109L7.9834 8.05176L8.30273 7.18945L8.61914 6.33105L8.9375 7.18945Z" stroke="url(#paint2_linear_979_303)" stroke-width="4"/>
<defs>
<linearGradient id="paint0_linear_979_303" x1="18.5364" y1="19.2251" x2="18.5364" y2="11.1054" gradientUnits="userSpaceOnUse">
<stop stop-color="#9386FF"/>
<stop offset="1" stop-color="#F3B3FE"/>
</linearGradient>
<linearGradient id="paint1_linear_979_303" x1="18.5364" y1="8.34524" x2="18.5364" y2="0.225547" gradientUnits="userSpaceOnUse">
<stop stop-color="#9386FF"/>
<stop offset="1" stop-color="#F3B3FE"/>
</linearGradient>
<linearGradient id="paint2_linear_979_303" x1="8.69778" y1="17.2588" x2="8.69777" y2="1.01945" gradientUnits="userSpaceOnUse">
<stop stop-color="#9386FF"/>
<stop offset="1" stop-color="#F3B3FE"/>
</linearGradient>
</defs>
</svg>
